<svg width="52" height="47" viewBox="0 0 52 47" fill="none" xmlns="http://www.w3.org/2000/svg">
<path d="M26 46C39.7008 46 51 36.027 51 23.5C51 10.973 39.7008 1 26 1C12.2992 1 1 10.973 1 23.5C1 36.027 12.2992 46 26 46Z" fill="#014474" stroke="white" stroke-width="2"/>
<path fill-rule="evenodd" clip-rule="evenodd" d="M26 40.3997C15.7938 40.3997 7.52002 32.8459 7.52002 23.528C7.52002 14.21 15.7938 6.65625 26 6.65625C36.2062 6.65625 44.48 14.21 44.48 23.528C44.48 32.8459 36.2062 40.3997 26 40.3997ZM16.0378 25.9825C15.8964 26.3187 15.9504 26.8376 16.1612 27.1457L18.7091 30.8707C18.9186 31.177 19.407 31.4047 19.802 31.3792L25.6785 31C26.0726 30.9746 26.5212 30.6866 26.6791 30.3599L28.8601 25.846C29.0186 25.5179 28.9525 25.0208 28.7105 24.7333L24.9867 20.3099C24.7456 20.0234 24.233 19.829 23.8425 19.8755L19.0367 20.448C18.646 20.4945 18.2148 20.8044 18.0733 21.141L16.0378 25.9825ZM25.9959 19.5845L29.7461 24.0393C29.9881 24.3267 30.5008 24.5355 30.8956 24.5109L35.6983 24.2108C36.0957 24.186 36.5308 23.8948 36.6757 23.56L38.4981 19.351C38.6441 19.0137 38.5768 18.5046 38.3502 18.2081L35.1967 14.0834C34.9675 13.7835 34.4682 13.5538 34.0756 13.5626L28.675 13.6838C28.2841 13.6926 27.8429 13.9708 27.6932 14.3051L25.8323 18.4628C25.6821 18.7983 25.7558 19.2994 25.9959 19.5845ZM10.3879 26.1298C10.5 26.4743 10.902 26.6979 11.2919 26.6283L13.941 26.1554C14.3282 26.0862 14.7552 25.761 14.897 25.4238L17.0208 20.3721C17.1616 20.0372 17.1527 19.4931 17.0035 19.1626L15.482 15.7915C15.3316 15.4584 14.8898 15.2266 14.5021 15.2729L12.5807 15.5022C12.1899 15.5488 11.7554 15.855 11.6084 16.1903L9.21346 21.651C9.18483 21.8666 9.16108 22.0836 9.14229 22.3019L10.3879 26.1298ZM30.7089 34.7701L27.3914 32.4922C27.0782 32.2771 26.5033 32.1223 26.1093 32.1477L19.9538 32.5449C19.5567 32.5705 19.1441 32.8684 19.0253 33.2106L18.4289 34.9275C18.3103 35.2692 18.4357 35.7578 18.7095 36.0174L21.1367 38.3185C22.6769 38.7401 24.3095 38.9665 26 38.9665C27.1029 38.9665 28.1811 38.8702 29.2251 38.6861L30.9433 35.7349C31.1267 35.4199 31.023 34.9858 30.7089 34.7701ZM33.4948 34.712C33.1805 34.9295 32.7756 35.3634 32.5894 35.6832L31.0927 38.2541C34.9156 37.1532 38.152 34.8458 40.2659 31.821L38.7709 31.6393C38.3789 31.5916 37.8065 31.7292 37.4919 31.9468L33.4948 34.712ZM40.563 19.4876C40.1734 19.4396 39.7393 19.6738 39.5952 20.0066L37.6686 24.4566C37.5237 24.7912 37.4706 25.3514 37.5482 25.7L38.4612 29.7985C38.5397 30.1506 38.9218 30.4747 39.312 30.5222L40.2566 30.637C40.648 30.6846 40.9653 30.7232 40.9653 30.7232C42.2072 28.5746 42.9103 26.1262 42.9103 23.528C42.9103 22.2112 42.7297 20.9329 42.39 19.7127L40.563 19.4876ZM34.7712 11.751L35.1463 10.5402C32.5095 8.98928 29.3699 8.08937 26 8.08937C24.9731 8.08937 23.9676 8.17294 22.9911 8.33304L22.4996 9.57136C22.3655 9.90906 22.5431 10.3112 22.8958 10.4708L26.8263 12.2491C27.1774 12.408 27.7847 12.5309 28.1793 12.522L33.8623 12.3945C34.2574 12.3856 34.6638 12.0975 34.7712 11.751ZM12.409 14.3402C12.409 14.3402 12.7256 14.3024 13.1163 14.2557L15.2388 14.0024C15.6322 13.9555 16.203 13.7458 16.5198 13.5335L20.0894 11.1408C20.4028 10.9308 20.7719 10.4824 20.906 10.1446L21.5027 8.64133C17.8132 9.56831 14.6286 11.6079 12.409 14.3402ZM15.4442 35.7164C15.4442 35.7164 16.4923 36.7474 18.144 37.3836L17.4385 36.5926C17.1899 36.3139 16.6759 36.0128 16.2976 35.9218L15.4442 35.7164Z" fill="white"/>
</svg>
