<svg width="22" height="18" viewBox="0 0 22 18" fill="none" xmlns="http://www.w3.org/2000/svg">
<path d="M1.22266 1H6.55599C7.49898 1 8.40335 1.3746 9.07015 2.0414C9.73694 2.70819 10.1115 3.61256 10.1115 4.55556V17C10.1115 16.2928 9.83059 15.6145 9.3305 15.1144C8.8304 14.6143 8.15212 14.3333 7.44488 14.3333H1.22266V1Z" stroke="#008395" stroke-width="2" stroke-linecap="round" stroke-linejoin="round"/>
<path d="M20.7785 1H15.4452C14.5022 1 13.5978 1.3746 12.931 2.0414C12.2643 2.70819 11.8896 3.61256 11.8896 4.55556V17C11.8896 16.2928 12.1706 15.6145 12.6707 15.1144C13.1708 14.6143 13.8491 14.3333 14.5563 14.3333H20.7785V1Z" stroke="#008395" stroke-width="2" stroke-linecap="round" stroke-linejoin="round"/>
</svg>
