<svg width="19" height="26" viewBox="0 0 19 26" fill="none" xmlns="http://www.w3.org/2000/svg">
<path d="M18.0823 0H0.918208C0.411879 0 0 0.41138 0 0.916013V25.084C0 25.5886 0.411879 26 0.918208 26H18.0823C18.5886 26 19 25.5886 19 25.084V0.916013C19 0.41138 18.5881 0 18.0823 0ZM6.67137 21.8386C6.67137 22.3437 6.25949 22.7546 5.75316 22.7546H4C3.49318 22.7546 3.08179 22.3437 3.08179 21.8386V20.0896C3.08179 19.585 3.49318 19.1736 4 19.1736H5.75316C6.25949 19.1736 6.67137 19.585 6.67137 20.0896V21.8386ZM6.67137 16.785C6.67137 17.2896 6.25949 17.701 5.75316 17.701H4C3.49318 17.701 3.08179 17.2896 3.08179 16.785V15.0355C3.08179 14.5309 3.49318 14.1195 4 14.1195H5.75316C6.25949 14.1195 6.67137 14.5309 6.67137 15.0355V16.785ZM6.67137 11.6847C6.67137 12.1899 6.25949 12.6008 5.75316 12.6008H4C3.49318 12.6008 3.08179 12.1899 3.08179 11.6847V9.93529C3.08179 9.43066 3.49318 9.01976 4 9.01976H5.75316C6.25949 9.01976 6.67137 9.43066 6.67137 9.93529V11.6847ZM10.3778 22.7541L8.62463 22.7551H8.62415C8.11831 22.7551 7.70643 22.3447 7.70594 21.8401L7.70448 20.0911C7.70448 19.8468 7.7999 19.6166 7.97322 19.4437C8.14654 19.2703 8.37731 19.1741 8.62171 19.1741L10.3749 19.1731C10.8817 19.1731 11.2931 19.5835 11.2936 20.0882L11.2945 21.8371C11.2955 22.3423 10.8841 22.7536 10.3778 22.7541ZM10.3778 17.7L8.62463 17.7015H8.62415C8.11831 17.7015 7.70643 17.2906 7.70594 16.7864L7.70448 15.037C7.70399 14.5319 8.11587 14.1205 8.62171 14.12L10.3749 14.119C10.8817 14.119 11.2931 14.5299 11.2936 15.0341L11.2945 16.7835C11.2955 17.2887 10.8841 17.7 10.3778 17.7ZM11.0268 12.3307C10.853 12.5036 10.6227 12.5998 10.3778 12.5998L8.62463 12.6012H8.62415C8.11831 12.6012 7.70643 12.1904 7.70594 11.6862L7.70448 9.93675C7.70399 9.43163 8.11587 9.02073 8.62171 9.02025L10.3749 9.01879C10.8817 9.01879 11.2931 9.42969 11.2936 9.93432L11.2945 11.6833C11.2955 11.9276 11.2001 12.1578 11.0268 12.3307ZM15.3096 22.7541L13.5565 22.7551H13.5555C13.0497 22.7551 12.6383 22.3447 12.6378 21.8401L12.6363 20.0911C12.6363 19.8468 12.7317 19.6166 12.9051 19.4437C13.0784 19.2703 13.3092 19.1741 13.5536 19.1741L15.3067 19.1731C15.8135 19.1731 16.2249 19.5835 16.2254 20.0882L16.2264 21.8371C16.2274 22.3423 15.816 22.7536 15.3096 22.7541ZM15.3096 17.7L13.5565 17.7015H13.5555C13.0497 17.7015 12.6383 17.2906 12.6378 16.7864L12.6363 15.037C12.6363 14.5319 13.0477 14.1205 13.5536 14.12L15.3067 14.119C15.8135 14.119 16.2249 14.5299 16.2254 15.0341L16.2264 16.7835C16.2274 17.2887 15.816 17.7 15.3096 17.7ZM15.9581 12.4065C15.7848 12.5794 15.5545 12.6756 15.3096 12.6756L13.5565 12.677H13.5555C13.0497 12.677 12.6383 12.2661 12.6378 11.7615L12.6363 10.0125C12.6363 9.76822 12.7317 9.53848 12.9051 9.36509C13.0784 9.19219 13.3092 9.09602 13.5536 9.09602L15.3067 9.09456C15.8135 9.09456 16.2249 9.50546 16.2254 10.0101L16.2264 11.7591C16.2269 12.0034 16.1319 12.2336 15.9581 12.4065ZM17.0482 6.08133C17.0482 6.58597 16.6363 6.99735 16.13 6.99735H2.87001C2.36368 6.99735 1.9518 6.58597 1.9518 6.08133V3.92244C1.9518 3.41732 2.36368 3.00643 2.87001 3.00643H16.13C16.6363 3.00643 17.0482 3.41732 17.0482 3.92244V6.08133Z" fill="white"/>
</svg>
