<svg width="15" height="15" viewBox="0 0 15 15" fill="none" xmlns="http://www.w3.org/2000/svg">
<path d="M4.10305 0.470703C2.0997 0.470703 0.470703 2.09972 0.470703 4.10304V7.21647H3.06523V15.0001H12.4055V7.21647H15.0001V4.10304C15.0001 2.09972 13.3711 0.470703 11.3677 0.470703H8.7732V1.50853C8.7732 2.09245 8.31931 2.5463 7.73539 2.5463C7.15147 2.5463 6.69758 2.09245 6.69758 1.50853V0.470703H4.10305ZM4.62195 2.5463H5.14086V3.58413H4.62195C4.3255 3.58413 4.10305 3.80661 4.10305 4.10304H3.06523C3.06523 3.2496 3.76851 2.5463 4.62195 2.5463ZM10.3299 2.5463H10.8488C11.7023 2.5463 12.4055 3.2496 12.4055 4.10304H11.3677C11.3677 3.80661 11.1453 3.58413 10.8488 3.58413H10.3299V2.5463Z" fill="#008395"/>
</svg>
