<svg width="35" height="32" viewBox="0 0 35 32" fill="none" xmlns="http://www.w3.org/2000/svg">
<rect width="35" height="32" rx="5" fill="#0BACC6" fill-opacity="0.2"/>
<path d="M26.6996 20.1265L23.5793 17.1754C26.1493 14.3724 26.028 10.1123 23.2116 7.44839C21.7846 6.09866 19.8872 5.35556 17.8691 5.35556C17.8166 5.35556 17.7646 5.35812 17.7123 5.35914C17.6803 5.35735 17.6487 5.35786 17.6162 5.36144C15.8737 5.41548 14.2344 6.02466 12.9249 7.10014L9.80492 4.14999C9.59344 3.95 9.25063 3.95 9.03887 4.14999C8.82739 4.34998 8.82739 4.67442 9.03887 4.87415L10.5152 6.26971C7.04213 9.93147 7.1656 15.5839 10.8872 19.103C12.6238 20.7454 14.8937 21.6996 17.3275 21.8232V23.9757H14.1675C13.8685 23.9757 13.6259 24.2052 13.6259 24.4879C13.6259 24.7706 13.8685 25 14.1675 25H21.5709C21.8699 25 22.1125 24.7706 22.1125 24.4879C22.1125 24.2052 21.8699 23.9757 21.5709 23.9757H18.4106V21.8235C20.6652 21.7093 22.7784 20.8814 24.458 19.4549L25.9341 20.8507C26.0397 20.9508 26.1783 21.0007 26.317 21.0007C26.4556 21.0007 26.594 20.9508 26.6998 20.8507C26.911 20.6504 26.911 20.3265 26.6996 20.1265ZM13.2923 8.17255C13.2923 8.17229 13.2926 8.17229 13.2929 8.17204C13.2931 8.17178 13.2931 8.17178 13.2931 8.17153C13.3042 8.16128 13.3156 8.15181 13.3264 8.14157L14.3516 8.38483L15.1101 9.30718L14.4312 11.4016L13.7635 12.4281L11.47 11.6484C11.6576 10.376 12.2604 9.14868 13.2923 8.17255ZM13.8079 13.5315C13.855 13.5477 13.9051 13.5582 13.9566 13.5615C13.9566 13.5615 13.9566 13.5615 13.9568 13.5615C13.9571 13.5615 13.9574 13.5615 13.9579 13.5615C13.9582 13.5615 13.9584 13.5617 13.959 13.5617C13.959 13.5615 13.9595 13.5615 13.9601 13.5617C13.9601 13.5615 13.9606 13.5615 13.9612 13.5617C13.9614 13.5617 13.9617 13.5617 13.9622 13.5617L14.9909 13.6191L15.8385 14.5668C15.8683 14.6003 15.9029 14.6301 15.9408 14.6551L16.269 14.8731C16.3153 15.1363 16.3987 15.6075 16.4857 16.0784C16.5515 16.4351 16.6194 16.7915 16.6747 17.0583C16.7654 17.4967 16.8518 17.9126 17.2799 17.9126C17.3107 17.9126 17.3435 17.9105 17.3779 17.9062C17.4708 17.897 18.6671 17.8027 18.6674 17.8027C18.9617 17.7794 19.1821 17.5372 19.1626 17.2583L19.0267 15.3237L19.6386 13.9277C19.6866 13.8183 19.6931 13.6964 19.6565 13.583L19.2845 12.422C19.2252 12.2368 19.0608 12.0993 18.8596 12.0661L16.8203 11.7286C16.6871 11.7058 16.5498 11.7324 16.4358 11.801L15.1112 12.6L14.9297 12.5897L15.3898 11.8825C15.4139 11.8453 15.4329 11.8056 15.4461 11.7641L16.2276 9.35302C16.2793 9.19349 16.2455 9.02013 16.1374 8.88877L15.0917 7.61688C15.0175 7.52649 14.9132 7.46222 14.796 7.43456L14.3903 7.33828C15.2528 6.81642 16.2319 6.49685 17.2633 6.40697L17.6863 8.00226C17.7223 8.13798 17.8155 8.25372 17.9438 8.32286C18.0261 8.36716 18.1187 8.38995 18.2116 8.38995C18.2636 8.38995 18.3161 8.38304 18.3671 8.36844L21.396 7.51036C21.4442 7.49653 21.4873 7.47553 21.5276 7.45146C21.7648 7.60613 21.9931 7.77513 22.2095 7.96053L20.1707 8.4829C19.9698 8.53437 19.8176 8.69057 19.78 8.8839L19.4033 10.8059C19.3771 10.9399 19.4085 11.0784 19.4905 11.1906L20.1431 12.0822C20.2707 12.2568 20.4984 12.339 20.7174 12.2883L21.6487 12.0722L22.3042 13.5269C22.3286 13.5807 22.3624 13.6301 22.4044 13.6731L23.06 14.3453C23.1596 14.4472 23.2985 14.5069 23.4453 14.5102C23.4496 14.5105 23.454 14.5105 23.458 14.5105C23.6002 14.5105 23.7367 14.4577 23.8382 14.363L24.1052 14.1141C23.8193 15.1084 23.2696 16.0487 22.4453 16.8281C21.223 17.9843 19.5978 18.6209 17.8691 18.6209C16.1404 18.6209 14.5149 17.9843 13.2926 16.8281C12.089 15.6899 11.4664 14.2109 11.4109 12.7165L13.8079 13.5315ZM18.0473 16.8235C17.9419 16.832 17.8352 16.8404 17.7356 16.8486C17.6294 16.3316 17.4537 15.3719 17.3015 14.4946C17.278 14.3586 17.1975 14.2372 17.0781 14.1584L16.621 13.8549L16.0687 13.2376L16.8415 12.7715L18.3454 13.0207L18.5647 13.7049L17.9785 15.0423C17.9465 15.115 17.933 15.1939 17.9384 15.2723L18.0473 16.8235ZM18.3787 6.40005C19.0042 6.44614 19.6113 6.57597 20.1862 6.7839L18.5997 7.2333L18.3787 6.40005ZM24.3256 12.7503C24.1656 12.7303 23.9982 12.7756 23.8742 12.8914L23.4767 13.2619L23.2642 13.044L22.4645 11.2704C22.3608 11.0397 22.0955 10.9143 21.8374 10.9739L20.8217 11.2095L20.5098 10.7829L20.7832 9.38733L23.0259 8.81272C23.9517 9.96989 24.3846 11.3662 24.3256 12.7503ZM17.8713 20.8138C17.8707 20.8138 17.8699 20.8136 17.8691 20.8136C17.8685 20.8136 17.8677 20.8138 17.8672 20.8138C15.52 20.813 13.3132 19.9486 11.653 18.3789C8.3538 15.259 8.23167 10.2569 11.2831 6.99592L12.1594 7.8243C9.58883 10.628 9.71014 14.8882 12.5271 17.552C13.9541 18.9018 15.8515 19.6449 17.8694 19.6449C19.7058 19.6449 21.441 19.0277 22.8138 17.8998L23.6901 18.7284C22.0827 20.0756 20.0375 20.8133 17.8713 20.8138Z" fill="#0BACC6"/>
</svg>
