<svg width="14" height="14" viewBox="0 0 14 14" fill="none" xmlns="http://www.w3.org/2000/svg">
<path d="M13.0584 6.1205C13.0207 6.11814 12.9829 6.11814 12.9452 6.1205V6.06794C12.9439 5.86398 12.8781 5.66583 12.7577 5.50257C12.6372 5.33931 12.4684 5.21955 12.2759 5.16086C12.2308 3.77662 11.6573 2.46439 10.6765 1.50138C9.69583 0.538371 8.3847 0 7.02014 0C5.65558 0 4.34445 0.538371 3.36373 1.50138C2.38301 2.46439 1.80951 3.77662 1.76438 5.16086C1.56381 5.21226 1.38555 5.3294 1.25725 5.49411C1.12895 5.65881 1.05779 5.86189 1.05479 6.07184V6.1205C1.01608 6.11407 0.977009 6.11017 0.937808 6.10882C0.689397 6.10984 0.451448 6.21046 0.275793 6.38874C0.100139 6.56703 0.00100981 6.80854 0 7.06067V8.92739C0.00100981 9.17952 0.100139 9.42104 0.275793 9.59932C0.451448 9.77761 0.689397 9.87822 0.937808 9.87924C0.97701 9.8779 1.01609 9.87399 1.05479 9.86757V9.92012C1.05479 10.1728 1.1537 10.4152 1.32975 10.5939C1.50581 10.7726 1.74459 10.8729 1.99356 10.8729C2.24254 10.8729 2.48132 10.7726 2.65737 10.5939C2.83342 10.4152 2.93233 10.1728 2.93233 9.92012V6.07184C2.93083 6.03924 2.92763 6.00676 2.92274 5.97451V5.35746C2.92274 4.81273 3.02845 4.27333 3.23383 3.77007C3.43922 3.2668 3.74025 2.80953 4.11975 2.42434C4.49925 2.03916 4.94978 1.73362 5.44562 1.52516C5.94146 1.3167 6.4729 1.20941 7.00959 1.20941C7.54628 1.20941 8.07772 1.3167 8.57356 1.52516C9.0694 1.73362 9.51993 2.03916 9.89943 2.42434C10.2789 2.80953 10.58 3.2668 10.7853 3.77007C10.9907 4.27333 11.0964 4.81273 11.0964 5.35746V5.81489C11.0719 5.89831 11.059 5.98479 11.0581 6.07184V9.92207C11.0585 9.98752 11.0655 10.0528 11.0792 10.1167C10.8107 10.726 10.0436 12.1976 8.75096 12.6063C8.65688 12.3883 8.48886 12.2117 8.27743 12.1086C8.06599 12.0056 7.82516 11.983 7.59867 12.0448C7.37218 12.1066 7.17505 12.2489 7.04309 12.4457C6.91112 12.6425 6.85308 12.8808 6.87949 13.1173C6.9059 13.3539 7.01502 13.573 7.18703 13.7348C7.35904 13.8966 7.58253 13.9905 7.81691 13.9993C8.05129 14.0081 8.28102 13.9314 8.46438 13.7829C8.64773 13.6345 8.77255 13.4242 8.81616 13.1903C10.0704 12.8458 10.9641 11.6837 11.4551 10.6871C11.613 10.803 11.8029 10.8656 11.9978 10.8661C12.2466 10.8677 12.4858 10.7693 12.6633 10.5924C12.8408 10.4155 12.9422 10.1745 12.9452 9.92207V9.86951C12.9839 9.87594 13.023 9.87984 13.0622 9.88119C13.3106 9.88017 13.5486 9.77955 13.7242 9.60127C13.8999 9.42298 13.999 9.18147 14 8.92934V7.06456C13.997 6.81311 13.8964 6.57301 13.7202 6.39629C13.5439 6.21957 13.3061 6.12048 13.0584 6.1205Z" fill="#008395"/>
</svg>
