<svg width="22" height="21" viewBox="0 0 22 21" fill="none" xmlns="http://www.w3.org/2000/svg">
<path d="M18.5493 9.67483L18.2348 7.91138L19.9053 5.70706L17.446 2.64722L14.7674 3.71959L13.4448 3.02612L12.6894 0.473877H8.7812L8.02577 3.02612L6.70318 3.71959L4.02463 2.64722L1.56771 5.70467L3.23823 7.90899L2.92366 9.67245L0.464355 10.9021L1.21978 14.5243L4.05561 14.7769L4.96832 16.0376L4.65376 18.6518L8.02577 20.258L9.8226 18.3682H11.6504L13.4472 20.258L16.8192 18.6518L16.5047 16.0376L17.4198 14.7769L20.2556 14.5243L21.011 10.9021L18.5493 9.67483ZM10.7353 13.9119C8.77882 13.9119 7.19171 12.3248 7.19171 10.3683C7.19171 8.41182 8.77882 6.82471 10.7353 6.82471C12.6918 6.82471 14.2789 8.41182 14.2789 10.3683C14.2789 12.3248 12.6918 13.9119 10.7353 13.9119Z" fill="white"/>
<path d="M19.0092 9.5465C18.9044 8.95789 18.7995 8.36927 18.6947 7.78304C18.678 7.90458 18.6637 8.0285 18.647 8.15003C19.1355 7.50661 19.6217 6.8608 20.1102 6.21738C20.1793 6.12682 20.2484 6.03627 20.3175 5.94333C20.4534 5.7646 20.3652 5.51914 20.2437 5.36663C19.524 4.47299 18.8067 3.57934 18.087 2.6857C17.9869 2.56178 17.8868 2.43548 17.7867 2.31156C17.6914 2.19241 17.4626 2.13283 17.322 2.19002C16.5404 2.5022 15.7564 2.81677 14.9747 3.12894C14.8651 3.17422 14.7531 3.21712 14.6435 3.2624C14.765 3.27908 14.8889 3.29338 15.0105 3.31006C14.5696 3.0789 14.1287 2.84775 13.6879 2.61659C13.7618 2.71191 13.8332 2.80723 13.9071 2.90256C13.6855 2.15666 13.4663 1.41315 13.2446 0.667254C13.2137 0.5624 13.1827 0.455163 13.1517 0.350308C13.0921 0.147749 12.9039 0 12.6918 0C11.5503 0 10.4088 0 9.26732 0C9.10766 0 8.94561 0 8.78595 0C8.57386 0 8.3856 0.147749 8.32602 0.350308C8.1044 1.0962 7.88516 1.83971 7.66353 2.58561C7.63255 2.69046 7.60157 2.7977 7.57059 2.90256C7.64447 2.80723 7.71596 2.71191 7.78983 2.61659C7.34897 2.84775 6.9081 3.0789 6.46724 3.31006C6.58878 3.29338 6.71269 3.27908 6.83423 3.2624C6.05259 2.95022 5.26857 2.63565 4.48693 2.32347C4.3773 2.2782 4.2653 2.2353 4.15568 2.19002C4.01508 2.13283 3.78631 2.19479 3.69099 2.31156C2.97131 3.2052 2.25401 4.09885 1.53433 4.99249C1.43424 5.11641 1.33415 5.24271 1.23406 5.36663C1.11253 5.51676 1.02435 5.76698 1.16019 5.94333C1.64871 6.58675 2.13485 7.23256 2.62338 7.87598C2.69249 7.96654 2.7616 8.05709 2.83071 8.15003C2.81402 8.0285 2.79973 7.90458 2.78304 7.78304C2.67819 8.37166 2.57334 8.96027 2.46848 9.5465C2.54236 9.45118 2.61385 9.35586 2.68772 9.26053C1.97042 9.62037 1.25074 9.97783 0.533445 10.3377C0.433357 10.3877 0.330885 10.4378 0.230797 10.4902C0.0353872 10.5879 -0.0289551 10.831 0.0115568 11.0288C0.23318 12.0892 0.454804 13.1473 0.674045 14.2077C0.705025 14.3555 0.736004 14.5032 0.766984 14.6534C0.812262 14.8702 1.02435 14.9846 1.22691 15.0037C2.05383 15.0776 2.87837 15.1514 3.70528 15.2229C3.82444 15.2325 3.94359 15.2444 4.06274 15.2539C3.92453 15.1753 3.78869 15.0966 3.65047 15.018C3.9555 15.4374 4.26054 15.8592 4.56318 16.2786C4.54174 16.1976 4.52029 16.119 4.49884 16.0379C4.4059 16.8005 4.31535 17.5655 4.22241 18.328C4.21049 18.4353 4.19619 18.5449 4.18428 18.6521C4.16521 18.8023 4.28437 19.0001 4.4202 19.0644C5.4044 19.5339 6.3886 20.0033 7.3728 20.4728C7.5134 20.5395 7.65162 20.6062 7.79222 20.673C7.98048 20.7635 8.2164 20.7611 8.36891 20.5991C8.89319 20.0486 9.41507 19.4957 9.93934 18.9453C10.0132 18.8666 10.0895 18.788 10.1634 18.7093C10.0513 18.757 9.93934 18.8023 9.82734 18.8499C10.4374 18.8499 11.0451 18.8499 11.6551 18.8499C11.5431 18.8023 11.4311 18.757 11.3191 18.7093C11.8434 19.2598 12.3677 19.8127 12.8896 20.3632C12.9634 20.4418 13.0397 20.5204 13.1136 20.5991C13.2685 20.7611 13.502 20.7635 13.6903 20.673C14.6745 20.2035 15.6587 19.734 16.6429 19.2646C16.7835 19.1979 16.9217 19.1311 17.0623 19.0644C17.1981 19.0001 17.3173 18.8046 17.2982 18.6521C17.2053 17.8896 17.1147 17.1246 17.0218 16.362C17.0099 16.2548 16.9956 16.1452 16.9836 16.0379C16.9622 16.119 16.9407 16.1976 16.9193 16.2786C17.2243 15.8592 17.5294 15.4374 17.8344 15.018C17.6962 15.0966 17.5603 15.1753 17.4221 15.2539C18.249 15.18 19.0736 15.1062 19.9005 15.0347C20.0196 15.0251 20.1388 15.0132 20.258 15.0037C20.4581 14.987 20.6726 14.8702 20.7179 14.6534C20.9395 13.5929 21.1611 12.5348 21.3804 11.4744C21.4113 11.3266 21.4423 11.1789 21.4733 11.0288C21.5138 10.831 21.4495 10.5879 21.2541 10.4902C20.5368 10.1303 19.8171 9.77289 19.0998 9.41305C18.9997 9.363 18.8972 9.31296 18.7971 9.26053C18.5755 9.14853 18.2705 9.19381 18.1442 9.43211C18.0298 9.64897 18.0775 9.96592 18.3158 10.0851C19.0331 10.4449 19.7527 10.8024 20.47 11.1622C20.5701 11.2123 20.6726 11.2623 20.7727 11.3147C20.6988 11.136 20.6273 10.9549 20.5535 10.7762C20.3318 11.8366 20.1102 12.8947 19.891 13.9551C19.86 14.1029 19.829 14.2506 19.798 14.4008C19.9505 14.284 20.1054 14.1672 20.258 14.0505C19.3143 14.1339 18.3682 14.2054 17.4269 14.3031C17.2362 14.3221 17.1242 14.3889 17.0099 14.5414C16.9932 14.5628 16.9765 14.5867 16.9598 14.6105C16.8836 14.7153 16.8073 14.8202 16.731 14.925C16.5475 15.1776 16.364 15.4303 16.1829 15.6829C16.1019 15.7949 16.0257 15.8878 16.0328 16.0427C16.0352 16.088 16.0447 16.1332 16.0495 16.1785C16.0805 16.4454 16.1138 16.7099 16.1448 16.9768C16.2115 17.5369 16.2806 18.0969 16.3474 18.6569C16.426 18.5187 16.5046 18.3828 16.5833 18.2446C15.5991 18.7141 14.6149 19.1836 13.6307 19.653C13.4901 19.7197 13.3519 19.7865 13.2113 19.8532C13.4043 19.877 13.5973 19.9032 13.788 19.9271C13.4567 19.5768 13.1231 19.2288 12.7919 18.8785C12.5845 18.6617 12.3796 18.4448 12.1723 18.228C12.0102 18.0588 11.8911 17.9015 11.6218 17.8967C11.0665 17.8848 10.5113 17.8967 9.95603 17.8967C9.78445 17.8967 9.62955 17.9015 9.48895 18.0373C9.45797 18.0659 9.43175 18.0993 9.40077 18.1302C9.21966 18.3209 9.03855 18.5115 8.85506 18.7046C8.46662 19.1121 8.07818 19.5219 7.69213 19.9294C7.88515 19.9056 8.07818 19.8794 8.26883 19.8556C7.28463 19.3861 6.30043 18.9167 5.31623 18.4472C5.17563 18.3805 5.03741 18.3137 4.89681 18.247C4.97545 18.3852 5.05409 18.5211 5.13273 18.6593C5.18992 18.1851 5.24712 17.7084 5.30431 17.2342C5.34006 16.9316 5.37819 16.6313 5.41393 16.3287C5.43776 16.1356 5.48542 15.9593 5.36627 15.7806C5.08507 15.3588 4.77289 14.9536 4.47263 14.5461C4.35824 14.3936 4.24624 14.3269 4.05559 14.3078C4.03653 14.3055 4.01985 14.3054 4.00078 14.3031C3.91738 14.2959 3.83397 14.2888 3.75056 14.2816C3.45268 14.2554 3.15242 14.2292 2.85454 14.203C2.3112 14.1553 1.76786 14.1053 1.22453 14.0576C1.37704 14.1744 1.53194 14.2912 1.68446 14.4079C1.46283 13.3475 1.24121 12.2894 1.02197 11.2289C0.990991 11.0812 0.960011 10.9334 0.929031 10.7833C0.855157 10.962 0.783665 11.1431 0.709791 11.3219C1.15065 11.1002 1.5939 10.881 2.03477 10.6594C2.32073 10.5164 2.6067 10.3734 2.89266 10.2304C3.09999 10.128 3.33115 10.0493 3.39072 9.79195C3.51464 9.24624 3.58852 8.68622 3.68622 8.13573C3.71482 7.97845 3.7458 7.81879 3.65286 7.67342C3.62188 7.62576 3.58375 7.58048 3.548 7.53521C3.37642 7.30882 3.20484 7.08243 3.03326 6.85365C2.68296 6.39134 2.33503 5.93141 1.98472 5.4691C1.96089 5.66213 1.93468 5.85515 1.91085 6.0458C2.63053 5.15216 3.34783 4.25851 4.06751 3.36487C4.1676 3.24095 4.26768 3.11465 4.36777 2.99073C4.21287 3.03124 4.05798 3.07175 3.90308 3.11226C4.32726 3.28146 4.75144 3.45066 5.17563 3.62224C5.47827 3.74377 5.7833 3.86531 6.08595 3.98684C6.248 4.05119 6.40766 4.12744 6.57209 4.18225C6.82231 4.26566 7.13688 4.03927 7.35373 3.92488C7.6254 3.7819 7.89945 3.63892 8.17112 3.49594C8.31887 3.41729 8.43087 3.33389 8.49045 3.15516C8.50713 3.10511 8.51905 3.05507 8.53573 3.00503C8.61437 2.74289 8.69063 2.48076 8.76927 2.221C8.92893 1.68243 9.0886 1.14386 9.24826 0.607678C9.09574 0.724447 8.94085 0.841217 8.78833 0.957986C9.92981 0.957986 11.0713 0.957986 12.2128 0.957986C12.3724 0.957986 12.5345 0.957986 12.6942 0.957986C12.5416 0.841217 12.3867 0.724447 12.2342 0.607678C12.3701 1.06284 12.5035 1.518 12.6393 1.97555C12.7275 2.27105 12.8133 2.56416 12.9015 2.85966C12.9658 3.07652 13.0063 3.32674 13.2208 3.45066C13.4424 3.57934 13.676 3.68896 13.9024 3.80811C14.1121 3.91773 14.3194 4.03212 14.5315 4.13698C14.796 4.26804 14.9771 4.15366 15.2178 4.05833C15.499 3.94633 15.7826 3.83195 16.0638 3.71994C16.569 3.51738 17.0742 3.31482 17.5794 3.11465C17.4245 3.07414 17.2696 3.03362 17.1147 2.99311C17.8344 3.88676 18.5517 4.7804 19.2714 5.67404C19.3715 5.79796 19.4715 5.92426 19.5716 6.04818C19.5478 5.85516 19.5216 5.66213 19.4978 5.47148C19.0998 5.99814 18.6994 6.52479 18.3015 7.05145C18.1466 7.25401 17.9655 7.45418 17.832 7.67104C17.7295 7.83785 17.7748 8.01896 17.8082 8.19769C17.8415 8.38357 17.8749 8.56707 17.9083 8.75294C17.9702 9.10564 18.0346 9.45833 18.0965 9.80864C18.1394 10.0541 18.454 10.2161 18.6828 10.1423C18.9401 10.0469 19.0545 9.81102 19.0092 9.5465Z" fill="white"/>
<path d="M10.7354 13.4357C10.6472 13.4357 10.559 13.4333 10.4685 13.4262C10.4256 13.4238 10.3803 13.419 10.3374 13.4143C10.2468 13.4071 10.3588 13.4214 10.366 13.419C10.3445 13.4238 10.3064 13.4095 10.285 13.4071C10.111 13.3785 9.93704 13.338 9.77023 13.2832C9.6892 13.257 9.61056 13.2284 9.53192 13.1974C9.44851 13.164 9.55575 13.2093 9.55814 13.2093C9.55337 13.2117 9.51047 13.1879 9.50094 13.1831C9.45805 13.164 9.41515 13.1426 9.37464 13.1211C9.22212 13.0425 9.07438 12.9543 8.93378 12.8542C8.90995 12.8376 8.8456 12.8066 8.83369 12.7804C8.85275 12.8185 8.90041 12.8352 8.85752 12.7971C8.84084 12.7828 8.82416 12.7708 8.80986 12.7565C8.74313 12.6993 8.67641 12.6422 8.61206 12.5802C8.55249 12.523 8.49529 12.4634 8.4381 12.4015C8.40951 12.3705 8.38329 12.3395 8.35708 12.3085C8.34278 12.2918 8.33086 12.2775 8.31657 12.2609C8.26414 12.1965 8.29512 12.2585 8.32371 12.2728C8.27367 12.2513 8.20933 12.1155 8.18073 12.0702C8.13307 11.9963 8.08541 11.9201 8.04252 11.8415C8.002 11.7676 7.96387 11.6937 7.92813 11.6174C7.9186 11.5984 7.91145 11.5793 7.90192 11.5603C7.87332 11.5031 7.93528 11.646 7.91383 11.5865C7.89715 11.5412 7.87808 11.4983 7.8614 11.453C7.80183 11.2886 7.75417 11.117 7.71842 10.9454C7.70889 10.9025 7.70174 10.8596 7.69459 10.8167C7.69221 10.7953 7.68744 10.7738 7.68506 10.7524C7.67553 10.6857 7.69459 10.8477 7.68982 10.781C7.68029 10.6881 7.67076 10.5951 7.66838 10.5022C7.66123 10.3187 7.67314 10.1376 7.68982 9.95408C7.69697 9.88735 7.67553 10.0494 7.68506 9.98267C7.68744 9.96122 7.69221 9.93978 7.69459 9.91833C7.70174 9.87543 7.70889 9.83254 7.71842 9.78965C7.73748 9.70147 7.75655 9.61092 7.78276 9.52513C7.80659 9.4441 7.83281 9.36308 7.8614 9.28206C7.8757 9.24154 7.89238 9.20341 7.90668 9.1629C7.93051 9.10094 7.89 9.16767 7.89477 9.18912C7.89 9.17482 7.92098 9.12954 7.92813 9.11762C7.99962 8.96034 8.08541 8.81021 8.17835 8.66485C8.20933 8.61957 8.27129 8.48135 8.32133 8.46229C8.31657 8.46467 8.24984 8.55284 8.30465 8.48612C8.31895 8.46944 8.33086 8.45275 8.34516 8.43846C8.37614 8.40271 8.40474 8.36696 8.43572 8.3336C8.5501 8.2073 8.67402 8.08815 8.80509 7.97853C8.82177 7.96423 8.83845 7.95231 8.85275 7.93801C8.89565 7.90227 8.84799 7.91657 8.82892 7.9547C8.84084 7.92848 8.90518 7.8975 8.92901 7.88082C9.0005 7.83078 9.07438 7.78073 9.15063 7.73546C9.22213 7.69256 9.296 7.65205 9.36987 7.61392C9.40324 7.59724 9.4366 7.58056 9.46758 7.56626C9.48664 7.55673 9.50571 7.54958 9.52477 7.54005C9.62486 7.49238 9.42468 7.57817 9.52716 7.53766C9.69159 7.47332 9.85602 7.41851 10.0276 7.378C10.111 7.35893 10.1968 7.33987 10.2802 7.32795C10.2969 7.32557 10.3112 7.32319 10.3279 7.3208C10.4136 7.30651 10.3088 7.32557 10.2993 7.32557C10.3517 7.32795 10.4089 7.31366 10.4637 7.30889C10.6472 7.29459 10.8307 7.29697 11.0118 7.31127C11.0547 7.31366 11.1 7.32081 11.1429 7.32319C11.2096 7.33034 11.0475 7.30889 11.1143 7.31842C11.1309 7.3208 11.1476 7.32319 11.1619 7.32557C11.2573 7.33987 11.3526 7.35893 11.4479 7.38276C11.6195 7.42566 11.7839 7.48285 11.946 7.54481C12.0055 7.56864 11.8625 7.50668 11.9197 7.5329C11.9388 7.54243 11.9579 7.54958 11.9769 7.55911C12.0103 7.57341 12.0437 7.59009 12.077 7.60677C12.1604 7.64967 12.2438 7.69494 12.3249 7.7426C12.3963 7.7855 12.4655 7.83078 12.5346 7.87844C12.556 7.89274 12.6251 7.92848 12.6347 7.95231C12.6323 7.94755 12.5441 7.88082 12.6108 7.93563C12.6299 7.95231 12.6513 7.96899 12.6704 7.98568C12.8015 8.0953 12.9254 8.21445 13.0374 8.34313C13.066 8.37411 13.0922 8.40509 13.1184 8.43846C13.1327 8.45514 13.1446 8.47182 13.1589 8.48612C13.1947 8.52901 13.1804 8.48373 13.1422 8.46229C13.1685 8.4742 13.1994 8.53854 13.2161 8.56237C13.2423 8.6005 13.2685 8.63863 13.2948 8.67914C13.3877 8.82451 13.4711 8.97464 13.5426 9.13192C13.5474 9.14146 13.5712 9.18435 13.5688 9.18912C13.5688 9.18673 13.5235 9.0795 13.5569 9.1629C13.5712 9.20341 13.5879 9.24154 13.6022 9.28206C13.6308 9.3607 13.657 9.44172 13.6808 9.52513C13.7046 9.60853 13.7237 9.69194 13.7428 9.77535C13.7523 9.81824 13.7595 9.86114 13.7666 9.90165C13.7714 9.9231 13.7738 9.94454 13.7761 9.96599C13.7952 10.078 13.7666 9.85399 13.7761 9.96837C13.7928 10.1447 13.8023 10.3211 13.7952 10.4998C13.7928 10.588 13.7833 10.6761 13.7761 10.7643C13.769 10.8501 13.7785 10.7476 13.7809 10.7357C13.7761 10.7572 13.7738 10.7786 13.7714 10.8001C13.7618 10.8525 13.7523 10.9073 13.7428 10.9597C13.7094 11.1265 13.6617 11.291 13.6046 11.4506C13.5903 11.4911 13.5736 11.5293 13.5593 11.5698C13.5259 11.6532 13.5712 11.546 13.5712 11.5436C13.5736 11.5483 13.5497 11.5912 13.545 11.6008C13.5068 11.6866 13.464 11.77 13.4163 11.8534C13.3782 11.9225 13.3377 11.9892 13.2948 12.0535C13.2709 12.0893 13.2495 12.1227 13.2256 12.156C13.2066 12.1822 13.1708 12.2561 13.1422 12.2704C13.1804 12.2513 13.1947 12.2037 13.1589 12.2466C13.1446 12.2633 13.1327 12.2799 13.1184 12.2942C13.0922 12.3252 13.066 12.3586 13.0374 12.3896C12.9754 12.4587 12.9111 12.5254 12.842 12.5897C12.7848 12.6445 12.7276 12.6946 12.668 12.7446C12.6561 12.7542 12.5489 12.8447 12.6061 12.7947C12.6585 12.7494 12.6061 12.7947 12.5918 12.8042C12.5703 12.8185 12.5489 12.8352 12.5298 12.8495C12.3844 12.952 12.2319 13.0425 12.0746 13.1235C12.0413 13.1402 12.0079 13.1569 11.9745 13.1712C11.9555 13.1807 11.9364 13.1879 11.9174 13.1974C11.8602 13.226 12.0031 13.164 11.9436 13.1855C11.8602 13.2165 11.7768 13.2498 11.691 13.2784C11.517 13.3332 11.3407 13.3761 11.1595 13.4047C11.1429 13.4071 11.1262 13.4095 11.1119 13.4119C11.0452 13.4214 11.2072 13.4023 11.1405 13.4071C11.0976 13.4119 11.0523 13.4166 11.0094 13.419C10.9236 13.4309 10.8307 13.4333 10.7354 13.4357C10.4851 13.4357 10.2468 13.655 10.2588 13.9123C10.2707 14.1697 10.4685 14.3913 10.7354 14.3889C11.5527 14.3842 12.3773 14.1387 13.0445 13.6573C13.7237 13.1688 14.2337 12.5063 14.522 11.7199C15.0916 10.1733 14.5911 8.32884 13.3138 7.28506C12.6537 6.74649 11.8697 6.42478 11.0189 6.35805C10.2039 6.29371 9.36034 6.49865 8.66211 6.92284C7.98771 7.33272 7.42054 7.94755 7.09406 8.66723C6.73422 9.46078 6.63175 10.3258 6.79856 11.179C7.11074 12.7685 8.46193 14.0815 10.0657 14.327C10.2873 14.3603 10.5114 14.3842 10.7354 14.3842C10.9856 14.3842 11.2239 14.1649 11.212 13.9076C11.2001 13.6526 11.0023 13.4357 10.7354 13.4357Z" fill="white"/>
</svg>
