<svg width="33" height="32" viewBox="0 0 33 32" fill="none" xmlns="http://www.w3.org/2000/svg">
<path d="M10.9999 20.6001C7.3611 20.6001 4.3999 17.6389 4.3999 14.0001C4.3999 10.3613 7.3611 7.40015 10.9999 7.40015C14.6387 7.40015 17.5999 10.3613 17.5999 14.0001C17.5999 17.6389 14.6387 20.6001 10.9999 20.6001ZM10.9999 8.86681C8.16924 8.86681 5.86657 11.1695 5.86657 14.0001C5.86657 16.8308 8.16924 19.1335 10.9999 19.1335C13.8306 19.1335 16.1332 16.8308 16.1332 14.0001C16.1332 11.1695 13.8306 8.86681 10.9999 8.86681Z" fill="white"/>
<path d="M10.9999 5.93333C10.5951 5.93333 10.2666 5.6048 10.2666 5.2V3.73333C10.2666 3.32853 10.5951 3 10.9999 3C11.4047 3 11.7333 3.32853 11.7333 3.73333V5.2C11.7333 5.6048 11.4047 5.93333 10.9999 5.93333Z" fill="white"/>
<path d="M10.9999 25C10.5951 25 10.2666 24.6715 10.2666 24.2667V22.8C10.2666 22.3952 10.5951 22.0667 10.9999 22.0667C11.4047 22.0667 11.7333 22.3952 11.7333 22.8V24.2667C11.7333 24.6715 11.4047 25 10.9999 25Z" fill="white"/>
<path d="M17.2223 8.51086C17.0346 8.51086 16.8468 8.439 16.7038 8.296C16.4171 8.00926 16.4171 7.5458 16.7038 7.25906L17.7408 6.22213C18.0275 5.9354 18.491 5.9354 18.7777 6.22213C19.0644 6.50886 19.0644 6.97233 18.7777 7.25906L17.7408 8.296C17.5978 8.439 17.41 8.51086 17.2223 8.51086Z" fill="white"/>
<path d="M3.7406 21.9923C3.55286 21.9923 3.36513 21.9204 3.22213 21.7774C2.9354 21.4907 2.9354 21.0272 3.22213 20.7405L4.25906 19.7036C4.5458 19.4168 5.00926 19.4168 5.296 19.7036C5.58273 19.9903 5.58273 20.4538 5.296 20.7405L4.25906 21.7774C4.11533 21.9212 3.9276 21.9923 3.7406 21.9923Z" fill="white"/>
<path d="M21.2667 14.7338H19.8C19.3952 14.7338 19.0667 14.4052 19.0667 14.0004C19.0667 13.5956 19.3952 13.2671 19.8 13.2671H21.2667C21.6715 13.2671 22 13.5956 22 14.0004C22 14.4052 21.6715 14.7338 21.2667 14.7338Z" fill="white"/>
<path d="M2.2 14.7338H0.733333C0.328533 14.7338 0 14.4052 0 14.0004C0 13.5956 0.328533 13.2671 0.733333 13.2671H2.2C2.6048 13.2671 2.93333 13.5956 2.93333 14.0004C2.93333 14.4052 2.6048 14.7338 2.2 14.7338Z" fill="white"/>
<path d="M18.2592 21.9923C18.0715 21.9923 17.8838 21.9204 17.7408 21.7774L16.7038 20.7405C16.4171 20.4538 16.4171 19.9903 16.7038 19.7036C16.9906 19.4168 17.454 19.4168 17.7408 19.7036L18.7777 20.7405C19.0644 21.0272 19.0644 21.4907 18.7777 21.7774C18.6347 21.9212 18.447 21.9923 18.2592 21.9923Z" fill="white"/>
<path d="M4.77753 8.51086C4.5898 8.51086 4.40206 8.439 4.25906 8.296L3.22213 7.25906C2.9354 6.97233 2.9354 6.50886 3.22213 6.22213C3.50886 5.9354 3.97233 5.9354 4.25906 6.22213L5.296 7.25906C5.58273 7.5458 5.58273 8.00926 5.296 8.296C5.15226 8.439 4.96526 8.51086 4.77753 8.51086Z" fill="white"/>
</svg>
