<svg width="22" height="17" viewBox="0 0 22 17" fill="none" xmlns="http://www.w3.org/2000/svg">
<path d="M19.953 6.53846H1.84188C0.824718 6.53846 0 7.37168 0 8.39953C0 9.42737 0.824718 10.4615 1.84188 10.4615H19.953C20.9702 10.4615 21.7949 9.42715 21.7949 8.39953C21.7949 7.3719 20.9702 6.53846 19.953 6.53846ZM1.84188 3.92308H19.953C20.9702 3.92308 21.7949 2.88869 21.7949 1.86106C21.7949 0.833436 20.9702 0 19.953 0H1.84188C0.824718 0 0 0.833218 0 1.86106C0 2.88891 0.824718 3.92308 1.84188 3.92308ZM19.953 13.0769H1.84188C0.824718 13.0769 0 13.9101 0 14.938C0 15.9658 0.824718 17 1.84188 17H19.953C20.9702 17 21.7949 15.9656 21.7949 14.938C21.7949 13.9104 20.9702 13.0769 19.953 13.0769Z" fill="white"/>
</svg>
