<svg width="14" height="12" viewBox="0 0 14 12" fill="none" xmlns="http://www.w3.org/2000/svg">
<path d="M13.3488 0C13.7096 0 14 0.297333 14 0.666667V9C14 9.36933 13.7096 9.66667 13.3488 9.66667H0.651163C0.290417 9.66667 0 9.36933 0 9V0.666667C0 0.297333 0.290417 0 0.651163 0H13.3488ZM2.03488 0.494792C1.99322 0.494792 1.94966 0.514335 1.91788 0.546875L0.534157 1.95833C0.470586 2.02342 0.470579 2.13284 0.534157 2.19792C0.597728 2.263 0.704596 2.263 0.768169 2.19792L2.1468 0.78125C2.21038 0.716167 2.21038 0.611962 2.1468 0.546875C2.11502 0.514333 2.07655 0.494792 2.03488 0.494792ZM2.72166 0.96875C2.67999 0.968752 2.64153 0.983083 2.60974 1.01562L0.997093 2.66667C0.933523 2.73175 0.93352 2.83596 0.997093 2.90104C1.06067 2.96612 1.16244 2.96613 1.22602 2.90104L2.83866 1.25521C2.90223 1.19013 2.90224 1.08071 2.83866 1.01562C2.80688 0.983083 2.76332 0.968748 2.72166 0.96875ZM8.13953 10V11H5.86047V10H8.13953ZM8.95349 11.3333C9.1333 11.3333 9.27907 11.4826 9.27907 11.6667C9.27907 11.8508 9.1333 12 8.95349 12H5.04651C4.8667 12 4.72093 11.8508 4.72093 11.6667C4.72093 11.4826 4.8667 11.3333 5.04651 11.3333H8.95349Z" fill="#008395"/>
</svg>
