<svg width="35" height="32" viewBox="0 0 35 32" fill="none" xmlns="http://www.w3.org/2000/svg">
<rect width="35" height="32" rx="5" fill="#0BACC6" fill-opacity="0.4"/>
<path d="M24.4807 10.346C23.8938 10.2275 23.216 10.3036 22.5779 10.5231C22.5834 10.2083 22.5818 9.90084 22.5721 9.60596H17.1012H11.6303C11.6206 9.90084 11.6188 10.2083 11.6245 10.5231C10.9864 10.3036 10.3088 10.2275 9.72171 10.346C8.85365 10.5203 8.26429 11.065 8.06224 11.8784C7.79831 12.9403 8.37937 14.1579 9.69825 15.3072C10.7374 16.2125 12.1315 16.9657 13.6039 17.431C14.2139 18.2161 14.9948 18.8487 15.9856 19.2333C15.8412 19.7151 15.3341 21.1107 14.1089 21.9647H17.1012H20.0937C18.8683 21.1107 18.3614 19.7151 18.217 19.2333C19.2078 18.8487 19.9889 18.2161 20.5987 17.4308C22.0709 16.9657 23.4652 16.2125 24.5044 15.3072C25.8232 14.1577 26.4043 12.9403 26.1404 11.8784C25.9381 11.065 25.3488 10.5203 24.4807 10.346ZM10.5762 14.4676C9.6224 13.6359 9.1461 12.7644 9.30244 12.1355C9.39426 11.7643 9.61472 11.556 9.99575 11.4792C10.4988 11.3778 11.1548 11.5318 11.6953 11.8371C11.818 13.1682 12.106 14.5584 12.645 15.7919C11.8694 15.4237 11.1571 14.9739 10.5762 14.4676ZM23.6262 14.4676C23.0453 14.9737 22.333 15.4237 21.5574 15.792C22.0966 14.5586 22.3846 13.1684 22.5071 11.8372C23.0476 11.5322 23.7037 11.3782 24.2066 11.4794C24.5877 11.5562 24.8081 11.7645 24.9 12.1356C25.0563 12.7646 24.58 13.6361 23.6262 14.4676Z" fill="#0BACC6"/>
<path d="M20.9438 22.6968H13.2583V24.2135H20.9438V22.6968Z" fill="#0BACC6"/>
</svg>
