<svg width="26" height="26" viewBox="0 0 26 26" fill="none" xmlns="http://www.w3.org/2000/svg">
<path d="M13 0C5.83488 0 0 5.83488 0 13C0 20.1651 5.83488 26 13 26C20.1651 26 26 20.1651 26 13C26 5.83488 20.1651 0 13 0ZM12.093 5.44186C12.093 4.92791 12.486 4.53488 13 4.53488C13.514 4.53488 13.907 4.92791 13.907 5.44186V10.8837C13.907 11.3674 13.514 11.7907 13 11.7907C12.486 11.7907 12.093 11.3977 12.093 10.8837V5.44186ZM18.2907 17.5953C16.9605 19.1372 15.0256 20.014 13 20.014C9.13023 20.014 5.98605 16.8698 5.98605 13C5.98605 10.9744 6.86279 9.03953 8.40465 7.7093C8.79767 7.37674 9.34186 7.40698 9.67442 7.8C10.007 8.19302 9.97674 8.73721 9.58372 9.06977C7.40698 10.9442 7.16512 14.2395 9.06977 16.4163C10.9442 18.593 14.2395 18.8349 16.4163 16.9302C18.593 15.0256 18.8349 11.7605 16.9302 9.58372C16.7791 9.40233 16.5977 9.22093 16.4163 9.06977C16.0233 8.73721 15.993 8.16279 16.3256 7.8C16.6581 7.43721 17.2326 7.37674 17.5953 7.7093C20.5279 10.2488 20.8302 14.693 18.2907 17.5953Z" fill="#30EB92"/>
</svg>
