<svg width="35" height="32" viewBox="0 0 35 32" fill="none" xmlns="http://www.w3.org/2000/svg">
<rect width="35" height="32" rx="5" fill="#0BACC6" fill-opacity="0.2"/>
<path d="M17.0001 9.82677C17.9039 9.82677 18.6365 9.15791 18.6365 8.33282C18.6365 7.50773 17.9039 6.83887 17.0001 6.83887C16.0964 6.83887 15.3638 7.50773 15.3638 8.33282C15.3638 9.15791 16.0964 9.82677 17.0001 9.82677Z" fill="#0BACC6"/>
<path d="M14.5454 12.4826C14.5454 12.5706 14.5824 12.6551 14.6481 12.7173C14.7139 12.7796 14.8031 12.8146 14.8961 12.8146H19.1039C19.1968 12.8146 19.286 12.7796 19.3518 12.7173C19.4176 12.6551 19.4545 12.5706 19.4545 12.4826V11.4866C19.4545 11.0464 19.2698 10.6241 18.941 10.3128C18.6122 10.0015 18.1662 9.82666 17.7013 9.82666H16.2987C15.8337 9.82666 15.3877 10.0015 15.0589 10.3128C14.7301 10.6241 14.5454 11.0464 14.5454 11.4866V12.4826Z" fill="#0BACC6"/>
<path d="M9.51702 23.2726H12.9091C12.8723 23.1792 12.8538 23.0801 12.8545 22.9803V16.5498H9.51702C9.11468 16.5498 8.72882 16.7038 8.44433 16.9779C8.15983 17.2519 8 17.6237 8 18.0113V21.8111C8 22.1987 8.15983 22.5705 8.44433 22.8445C8.72882 23.1186 9.11468 23.2726 9.51702 23.2726Z" fill="#0BACC6"/>
<path d="M25.9999 21.7782V18.7903C25.9999 18.3941 25.8401 18.0141 25.5556 17.734C25.2711 17.4538 24.8852 17.2964 24.4829 17.2964H21.1454V22.9734C21.1461 23.0755 21.1276 23.1768 21.0908 23.2722H24.4829C24.8852 23.2722 25.2711 23.1148 25.5556 22.8346C25.8401 22.5545 25.9999 22.1745 25.9999 21.7782Z" fill="#0BACC6"/>
<path d="M13.7271 15.0328V22.978C13.7271 23.056 13.7615 23.1308 13.8229 23.186C13.8843 23.2412 13.9675 23.2722 14.0543 23.2722H19.9452C20.032 23.2722 20.1153 23.2412 20.1766 23.186C20.238 23.1308 20.2725 23.056 20.2725 22.978V15.0328C20.2725 14.6426 20.1001 14.2684 19.7932 13.9925C19.4863 13.7165 19.0701 13.5615 18.6361 13.5615H15.3634C14.9294 13.5615 14.5132 13.7165 14.2063 13.9925C13.8995 14.2684 13.7271 14.6426 13.7271 15.0328ZM15.838 15.9657L16.8198 15.3771C16.869 15.348 16.9261 15.3313 16.9849 15.3289C17.0438 15.3265 17.1023 15.3385 17.1543 15.3635C17.2062 15.3885 17.2497 15.4257 17.2801 15.471C17.3105 15.5164 17.3267 15.5684 17.3271 15.6214V19.4468C17.3271 19.5248 17.2926 19.5997 17.2312 19.6549C17.1698 19.7101 17.0866 19.7411 16.9998 19.7411C16.913 19.7411 16.8297 19.7101 16.7684 19.6549C16.707 19.5997 16.6725 19.5248 16.6725 19.4468V16.1716L16.198 16.4659C16.1259 16.5042 16.0404 16.5162 15.9588 16.4995C15.8772 16.4828 15.8059 16.4387 15.7594 16.3762C15.7129 16.3136 15.6947 16.2375 15.7088 16.1633C15.7228 16.0892 15.7678 16.0226 15.8347 15.9774L15.838 15.9657Z" fill="#0BACC6"/>
</svg>
