<svg width="70" height="17" viewBox="0 0 70 17" fill="none" xmlns="http://www.w3.org/2000/svg">
<path fill-rule="evenodd" clip-rule="evenodd" d="M0.00114445 0.00131868L0.00114357 0.00131869C0 5.40419 0 10.8071 0 16.2099H4.5121C4.51618 16.0052 4.52247 15.8005 4.52877 15.5959L4.52877 15.5959V15.5958V15.5958V15.5958V15.5958V15.5958V15.5957V15.5957V15.5957C4.54365 15.1122 4.55852 14.6287 4.54408 14.144C4.86042 14.7973 5.20302 15.4882 5.82313 15.905C6.72647 16.5263 7.91188 16.5594 8.94997 16.3276C9.99035 16.0969 10.8686 15.3626 11.371 14.4341C12.1088 13.1139 12.2515 11.5574 12.2276 10.0716C12.1853 8.59041 11.8404 7.03042 10.8252 5.89868C9.81562 4.76923 8.11173 4.46089 6.70249 4.90399C5.91678 5.14724 5.31494 5.74337 4.85356 6.40003C4.85961 5.37289 4.85878 4.34602 4.85794 3.31916C4.85704 2.21331 4.85614 1.10747 4.86384 0.00131869C3.24218 -0.000965344 1.62166 0.00017667 0.00114445 0.00131868ZM29.0999 1.55417L29.0999 1.55418C28.2995 1.82998 27.4992 2.10579 26.6935 2.3653C26.6671 2.90673 26.671 3.44995 26.6748 3.99328V3.99352C26.6771 4.32107 26.6795 4.64867 26.6752 4.97594C26.5129 4.97594 26.3508 4.97613 26.1887 4.97631L26.1877 4.97632C25.7819 4.97678 25.3766 4.97725 24.9713 4.9748C24.9713 5.28177 24.9702 5.58865 24.9691 5.89546L24.9691 5.89683V5.89703C24.9663 6.66491 24.9635 7.43238 24.9781 8.19985C25.3975 8.18629 25.8169 8.18719 26.2368 8.1881C26.3829 8.18841 26.529 8.18872 26.6752 8.18843C26.6756 8.74188 26.6754 9.29532 26.6751 9.84884V9.84893V9.84901V9.84909V9.84917V9.84926V9.84934V9.84942V9.84951V9.85135C26.6747 10.6813 26.6743 11.5114 26.6763 12.3419C26.7117 13.2795 26.8545 14.2617 27.3821 15.0622C27.8537 15.8022 28.676 16.2625 29.5348 16.3881C30.9555 16.5937 32.3955 16.2956 33.7511 15.8742L33.7502 15.271C33.7488 14.3982 33.7473 13.525 33.7557 12.6526C33.276 12.7965 32.7598 12.8958 32.2642 12.7885C31.7731 12.592 31.5596 12.0325 31.547 11.538C31.5313 10.9515 31.5338 10.3651 31.5363 9.7786C31.5385 9.25387 31.5407 8.72915 31.5299 8.20442C31.977 8.18227 32.4254 8.18529 32.8737 8.18831C33.1652 8.19027 33.4566 8.19224 33.7477 8.18729C33.7502 7.71178 33.75 7.23628 33.7499 6.76067C33.7497 6.16598 33.7495 5.57114 33.7545 4.97594C33.3842 4.97594 33.0142 4.97623 32.6445 4.97651C32.2753 4.9768 31.9065 4.97709 31.5379 4.97709C31.5382 4.53822 31.5376 4.09924 31.537 3.66022V3.66014V3.66006V3.65998V3.6599V3.65982V3.65974V3.65966V3.65958C31.5356 2.68337 31.5341 1.70695 31.5436 0.731074C30.7254 0.994024 29.9127 1.27408 29.1 1.55415L29.0999 1.55417ZM34.9103 1.50192C36.4885 0.919494 38.2027 0.893229 39.8655 0.912644C41.3729 0.976597 42.9329 1.41399 44.0795 2.43266C45.5961 3.76083 45.6589 6.48682 44.0635 7.77387C43.6558 8.11761 43.1716 8.3563 42.6668 8.52075C43.3989 8.7777 44.1286 9.1283 44.6334 9.73928C45.4431 10.6746 45.5721 12.0267 45.2798 13.1904C45.016 14.2571 44.2143 15.1227 43.2493 15.6138C41.4974 16.564 39.4258 16.5445 37.4958 16.3573C36.5902 16.2716 35.6983 16.09 34.8212 15.8536C34.8003 15.1874 34.8033 14.5204 34.8063 13.8537V13.8535C34.8085 13.3535 34.8107 12.8537 34.8029 12.3545C36.3081 12.8535 37.9583 13.1847 39.5286 12.8079C40.5815 12.5429 40.6352 10.9064 39.6953 10.4599C38.7527 9.99075 37.6569 10.1384 36.645 10.2747L36.4817 10.2966C36.4853 9.58926 36.4848 8.88146 36.4842 8.17319V8.173V8.17281V8.17262V8.17242V8.17223V8.17204V8.17185C36.4839 7.77819 36.4836 7.38439 36.484 6.99045L36.5828 6.99515C37.3704 7.03274 38.1645 7.07064 38.945 6.9402C39.4361 6.8534 39.9922 6.60673 40.127 6.07912C40.2024 5.65657 40.1567 5.17579 39.8643 4.84232C39.532 4.45403 39.0067 4.301 38.5122 4.27131C37.2971 4.2085 36.074 4.41977 34.9365 4.84232C34.9156 4.25955 34.9182 3.67553 34.9208 3.09125V3.09099C34.9231 2.56128 34.9255 2.03134 34.9103 1.50192ZM52.5042 0.932065C50.7249 1.05198 48.9742 1.85482 47.8424 3.25264C46.4446 4.91085 46.0232 7.16176 46.0689 9.27677C46.102 11.0206 46.6045 12.801 47.7282 14.1589C48.6875 15.3831 50.1356 16.2042 51.6819 16.3927C53.4532 16.6222 55.3706 16.2933 56.8038 15.1753C57.778 14.4524 58.4198 13.3218 58.5934 12.1261C58.7567 10.9978 58.6642 9.79639 58.1343 8.77314C57.4262 7.40044 55.9667 6.46741 54.4285 6.36806C53.2133 6.29383 51.9035 6.47541 50.919 7.24513C50.9624 6.67755 51.0287 6.09055 51.3233 5.59034C51.7447 4.84461 52.5693 4.4175 53.3984 4.30558C54.7631 4.15255 56.1289 4.41179 57.4388 4.77837C57.4443 4.27654 57.443 3.77449 57.4418 3.27241V3.27154C57.4401 2.62334 57.4385 1.97509 57.4514 1.3272C55.8423 0.88867 54.1578 0.864686 52.5042 0.932065ZM59.7182 1.16733C62.8942 1.16619 66.0701 1.16619 69.2449 1.16733C69.2431 1.79785 69.2432 2.42837 69.2434 3.05889C69.2435 3.58409 69.2437 4.10929 69.2427 4.63449C68.5834 4.6398 67.9239 4.63738 67.2643 4.63497C66.2236 4.63115 65.183 4.62734 64.1435 4.6539C64.1595 5.41905 64.163 6.18763 64.1424 6.95392C64.3433 6.95011 64.5457 6.9408 64.7487 6.93146C65.5197 6.89598 66.2993 6.86011 67.0351 7.12408C68.3644 7.56946 69.3968 8.7583 69.7063 10.1207C70.0009 11.4329 69.9233 12.8901 69.2381 14.0721C68.594 15.1798 67.4074 15.8571 66.1946 16.1711C64.0054 16.717 61.7076 16.4212 59.5618 15.8297C59.5419 15.1159 59.5445 14.4022 59.5472 13.6885V13.6882C59.5488 13.2543 59.5504 12.8204 59.5469 12.3865C60.9242 12.7337 62.4088 13.0728 63.8032 12.624C64.9635 12.2643 65.136 10.5284 64.2212 9.82266C63.6719 9.40925 62.9604 9.30875 62.2912 9.2802C61.542 9.26878 60.7917 9.36814 60.0631 9.54058C59.9078 9.57027 59.7731 9.65935 59.6497 9.75185C59.6851 9.62738 59.7091 9.50061 59.7194 9.3727C59.716 6.63758 59.7171 3.90131 59.7182 1.16733ZM19.2806 4.72013C17.587 4.71213 15.7484 5.07644 14.5116 6.31781C13.3159 7.53063 13.0315 9.33958 13.1377 10.9761C13.2074 12.5007 13.7373 14.0869 14.933 15.0976C16.2166 16.1985 17.981 16.4886 19.6232 16.4589C21.0713 16.4326 22.5365 16.2933 23.9115 15.8102C23.9154 15.3411 23.9152 14.8719 23.9151 14.4029C23.9149 13.9026 23.9148 13.4025 23.9195 12.9027C22.822 13.5011 21.5464 13.6336 20.3164 13.613C19.6141 13.5662 18.8318 13.4977 18.2951 12.9895C17.9924 12.7051 17.9114 12.2848 17.8748 11.8886H24.6276L24.6283 11.6883C24.6313 10.9527 24.6344 10.2144 24.5213 9.48576C24.3398 8.17016 23.8772 6.81573 22.8791 5.89412C21.9164 5.00563 20.562 4.68358 19.2806 4.72013ZM20.0423 7.7225C19.6563 7.13893 18.6982 7.17433 18.3099 7.7362C17.9422 8.25467 17.9079 8.91362 17.8851 9.52574C18.7313 9.52574 19.5764 9.52574 20.4226 9.52459C20.4112 8.91362 20.3895 8.25125 20.0423 7.7225ZM5.67013 8.08794C6.1258 7.94062 6.66597 8.16674 6.87267 8.60299C7.15274 9.15668 7.16058 9.79406 7.16808 10.4043L7.1696 10.5216C7.14676 11.168 7.11478 11.8669 6.74591 12.4242C6.38846 12.9758 5.44973 12.9769 5.10484 12.4105C4.77708 11.884 4.74396 11.2353 4.74053 10.6323V10.6209C4.74053 10.0421 4.74052 9.45012 4.91184 8.89192C5.02261 8.52762 5.28413 8.1793 5.67013 8.08794ZM53.8985 9.90487C53.516 9.25278 52.6412 9.04379 51.9548 9.29504C51.4318 9.48233 51.112 10.0088 51.0138 10.5318C50.8528 11.2753 50.9019 12.1398 51.4238 12.7348C52.0291 13.4657 53.3492 13.3697 53.838 12.5521C54.3337 11.7766 54.3656 10.702 53.8985 9.90487Z" fill="#656565"/>
</svg>
