<svg width="98" height="17" viewBox="0 0 98 17" fill="none" xmlns="http://www.w3.org/2000/svg">
<path d="M26.7149 9.36416C26.7149 6.6415 28.4569 6.59116 30.809 6.59116H31.0768C33.3685 6.59116 34.6251 6.97579 34.6251 9.61186V11.4464C34.6251 13.6536 34.0552 14.594 30.9963 14.594H30.4123C27.5104 14.594 26.7169 13.7965 26.7169 11.5975C26.7149 11.5995 26.7149 9.36416 26.7149 9.36416ZM26.7149 15.2183H26.7633C27.4842 16.1688 28.8113 16.6602 30.4405 16.6602H31.2842C34.6956 16.6602 37.1907 15.7922 37.1887 11.8613V9.46082C37.1887 5.82189 35.5817 4.52903 31.391 4.52903H30.088C28.2575 4.52903 27.2365 5.14928 26.7592 5.82189H26.7149V0.00401688H24.1514V16.2896H26.7169L26.7149 15.2183Z" fill="#656565"/>
<path d="M68.2862 4.81517H64.8426V3.76396C64.8426 2.76109 65.4991 1.95557 66.9007 1.95557L69.4582 1.9596V0.00218391L66.0569 0.00419617C64.0008 0.00419617 62.275 1.07554 62.275 3.77806V4.81718H60.8936V6.87528H62.275V16.6543H64.8426V6.87528H68.2862V4.81517Z" fill="#656565"/>
<path d="M53.4604 12.8784C53.4604 15.583 55.1883 16.6543 57.2444 16.6543H60.4302V14.5922H57.8707C56.4711 14.5922 56.028 13.8914 56.028 12.8885V6.87327H59.4757V4.81114H56.028V0.000171661H53.4645V4.81315H52.083V6.87327H53.4645L53.4604 12.8784Z" fill="#656565"/>
<path d="M83.0089 2.60742H85.5724V0.00156426L83.0068 0.00357771L83.0089 2.60742Z" fill="#656565"/>
<path d="M83.0068 16.6582H85.5724V4.52506H83.0068V16.6582Z" fill="#656565"/>
<path d="M41.0379 9.15277C41.0379 6.8228 42.1233 6.5892 44.7695 6.5892H45.287C48.2654 6.5892 48.6501 7.34035 48.6501 8.87084L48.6521 9.52129L41.0359 9.52532L41.0379 9.15277ZM43.8351 16.6582H46.1429C49.2502 16.6582 50.6699 15.6714 51.0324 13.9476L48.7487 13.2569C48.3701 14.3182 47.4559 14.5961 45.4441 14.5961H44.852C41.5675 14.5961 41.0339 14.1792 41.0318 11.5895L41.0379 11.5874H51.2176V9.34408C51.2176 5.28224 49.1092 4.52707 45.7381 4.52707H44.4835C41.8152 4.52707 38.5811 4.99427 38.5811 9.12659V11.9902C38.5831 16.0037 41.3863 16.6602 43.8351 16.6582Z" fill="#656565"/>
<path d="M78.166 13.0334C78.166 14.1732 77.3846 14.5961 74.3478 14.5961H73.6631C71.0814 14.5961 70.7552 14.0987 70.7552 13.1139V12.4755C70.7552 11.3357 71.3976 10.9048 73.5363 10.9048H74.6781C76.6254 10.9048 78.168 11.2874 78.168 12.5641V13.0334H78.166ZM74.9761 4.52506H74.0176C70.5377 4.52506 69.0294 5.5964 68.9307 7.19939L71.3755 8.01095C71.4882 6.91544 72.7469 6.59122 74.6519 6.59122C77.4873 6.59122 78.1579 6.75434 78.1579 8.80438V9.91802H78.1076C77.4672 9.06416 76.5912 8.84265 74.37 8.84265H73.3671C70.0927 8.84265 68.1836 9.65823 68.1836 12.25V12.9911C68.1876 15.1317 69.0012 16.6582 72.4226 16.6582H74.9137C77.3887 16.6582 77.6364 16.2514 78.1257 15.5426H78.164V16.6522H80.7276V8.85272C80.7296 5.45946 78.4741 4.52506 74.9761 4.52506Z" fill="#656565"/>
<path d="M93.3985 4.52506C92.2587 4.52506 91.0967 4.95601 90.3758 6.1361H90.2831V4.52506L87.8545 4.52707V16.6582H90.4201V9.35818C90.4201 7.88408 91.2659 6.5892 93.2595 6.5892C94.6833 6.5892 95.37 6.97585 95.523 7.38264L97.1401 6.29318C96.7394 5.18961 95.668 4.52506 93.3985 4.52506Z" fill="#656565"/>
<path d="M19.4252 0.0424986H12.7837V3.37534H9.2334L16.1045 11.4023L22.9776 3.37534H19.4252V0.0424986Z" fill="#656565"/>
<path d="M0.477539 13.2491H4.02988V16.584H10.6714V13.2471H14.2237L7.35467 5.22615L0.477539 13.2491Z" fill="#656565"/>
</svg>
