<svg width="143" height="21" viewBox="0 0 143 21" fill="none" xmlns="http://www.w3.org/2000/svg">
<path d="M0.673076 12.5869C1.59295 13.2151 3.09614 13.5965 4.5096 13.5965C5.42948 13.5965 6.55128 13.4394 6.66346 12.8785C6.95512 11.4875 0.291664 12.8337 1.1891 8.48112C1.86217 5.25036 5.67627 4.68945 8.39101 4.68945C9.74302 4.69699 11.09 4.85503 12.407 5.16061L11.7788 8.18946C10.6767 7.76278 9.50554 7.54223 8.3237 7.53881C7.3814 7.53881 6.41665 7.62856 6.2596 8.30164C6.01281 9.4683 12.6987 8.14459 11.8013 12.385C11.1282 15.5933 7.24679 16.4459 4.64423 16.4459C3.07594 16.4319 1.51563 16.2209 0 15.8177L0.673076 12.5869Z" fill="#656565"/>
<path d="M14.3587 4.93626H19.474L19.0477 7.00036H19.0926C20.2144 5.31767 21.4484 4.68945 23.2433 4.68945C26.9003 4.68945 27.6856 7.49394 27.0125 10.7471C26.3394 14.0003 24.3875 16.4459 20.9548 16.4459C19.4965 16.4459 18.4869 15.9523 17.8811 14.7407H17.8362L16.5798 20.7311H11.083L14.3587 4.93626ZM19.4292 13.0805C20.5734 13.0805 21.0221 11.9362 21.2689 10.7471C21.5157 9.55804 21.583 8.30164 20.3715 8.30164C19.1599 8.30164 18.7561 9.55804 18.5317 10.6125C18.3074 11.667 18.1952 13.0805 19.4292 13.0805Z" fill="#656565"/>
<path d="M36.3687 4.68945C40.968 4.68945 43.0546 6.59651 42.2693 10.3657C41.4841 14.135 38.5225 16.4459 33.9232 16.4459C29.3238 16.4459 27.3046 14.2471 28.1123 10.3657C28.92 6.48433 31.7469 4.68945 36.3687 4.68945ZM34.5963 13.2151C35.6507 13.2151 36.0546 12.0036 36.4136 10.3657C36.7725 8.72792 36.7725 7.92022 35.6956 7.92022C34.6187 7.92022 34.2597 9.01959 33.9905 10.3657C33.7213 11.7119 33.5193 13.2151 34.5963 13.2151Z" fill="#656565"/>
<path d="M49.6059 4.93636L49.0899 7.49404H49.1347C50.1219 5.9011 51.4681 4.68956 53.1956 4.68956C53.586 4.68587 53.9712 4.77834 54.3174 4.95879L53.3751 9.46841C52.9269 9.23031 52.424 9.11425 51.9168 9.13187C50.3911 9.13187 48.8206 10.4556 48.4617 12.1158L47.6091 16.1992H42.1123L44.4456 4.93636H49.6059Z" fill="#656565"/>
<path d="M57.4805 4.93575L58.0189 2.35562L63.8747 0.740234L62.9773 4.93575H65.4676L64.7946 8.18895H62.3042L61.6535 11.3524C61.4516 12.2947 61.833 12.8332 62.551 12.8332C63.0002 12.8372 63.4471 12.769 63.8747 12.6312L63.2016 15.862C61.9339 16.2375 60.6199 16.4339 59.2978 16.4453C56.4484 16.4453 55.3715 15.0543 55.9773 12.0704L56.8074 8.18895H54.8555L55.5285 4.93575H57.4805Z" fill="#656565"/>
<path d="M66.9036 4.93589H72.4004L70.0671 16.1987H64.5479L66.9036 4.93589ZM72.6472 3.74679H67.1504L67.9357 0H73.4325L72.6472 3.74679Z" fill="#656565"/>
<path d="M74.0608 4.93626H79.266L78.8621 6.88818H78.907C79.8717 5.31767 81.5095 4.68945 83.0801 4.68945C85.9967 4.68945 86.7595 6.19266 86.3108 8.36894L84.673 16.1991H79.1762L80.5224 9.71509C80.657 9.06445 80.8365 8.18946 79.8717 8.18946C78.907 8.18946 78.7051 9.06445 78.5704 9.71509L77.2243 16.1991H71.7051L74.0608 4.93626Z" fill="#656565"/>
<path d="M86.7824 16.6702C87.7247 17.276 89.2503 17.7471 90.8657 17.7471C93.2439 17.7471 94.6798 16.7375 95.1734 14.3144H95.151C94.6296 14.9016 93.9907 15.3728 93.2757 15.6974C92.5607 16.0221 91.7856 16.193 91.0003 16.1991C87.5901 16.1991 86.6926 13.5741 87.3209 10.5901C87.9491 7.60613 89.9234 4.68945 93.4458 4.68945C95.3304 4.68945 96.7664 5.54203 96.7439 7.22472H96.7888L97.2599 4.93626H102.42L100.311 15.0773C99.683 18.1061 97.574 21.0003 91.8305 21.0003C89.3849 21.0003 87.4555 20.7311 86.042 20.3048L86.7824 16.6702ZM94.074 12.6991C95.3753 12.6991 95.7792 11.4875 95.9811 10.5228C96.183 9.55804 96.2952 8.18946 95.0388 8.18946C93.7824 8.18946 93.401 9.49073 93.199 10.4555C92.9971 11.4202 92.8849 12.6991 94.074 12.6991Z" fill="#656565"/>
<path d="M105.09 0H110.609L109.286 6.39422H109.33C109.794 5.84403 110.376 5.40513 111.032 5.10998C111.688 4.81484 112.403 4.67099 113.122 4.68909C116.555 4.68909 117.407 7.33653 116.779 10.3878C116.151 13.4391 114.154 16.4455 110.519 16.4455C108.725 16.4455 107.737 15.8173 107.311 14.1346H107.266L106.84 16.1987H101.725L105.09 0ZM109.151 12.8333C110.34 12.8333 110.811 11.5769 111.058 10.3878C111.305 9.19871 111.35 8.05447 110.183 8.05447C109.016 8.05447 108.545 9.22114 108.276 10.5224C108.007 11.8237 107.962 12.8333 109.151 12.8333Z" fill="#656565"/>
<path d="M122.881 11.8689C122.679 13.2824 123.936 13.5965 125.574 13.5965C127.211 13.5965 128.49 13.3497 129.455 12.901L128.849 15.8177C127.129 16.2673 125.355 16.4787 123.577 16.4459C118.955 16.4459 116.958 14.2471 117.766 10.3657C118.574 6.48433 121.4 4.68945 126.022 4.68945C130.644 4.68945 131.429 7.4042 130.644 11.2183L130.487 11.8689H122.881ZM126.224 9.49074C126.404 8.63817 126.561 7.26958 125.304 7.26958C124.048 7.26958 123.465 8.61574 123.352 9.49074H126.224Z" fill="#656565"/>
<path d="M134.256 4.9357L134.794 2.35557L140.65 0.695312L139.775 4.9357H142.265L141.592 8.1889H139.102L138.429 11.3524C138.227 12.2947 138.608 12.8331 139.326 12.8331C139.783 12.8388 140.238 12.7706 140.673 12.6312L139.999 15.862C138.724 16.2375 137.403 16.4339 136.073 16.4453C133.246 16.4453 132.147 15.0543 132.775 12.0703L133.583 8.1889H131.631L132.304 4.9357H134.256Z" fill="#656565"/>
</svg>
