<svg width="52" height="52" viewBox="0 0 52 52" fill="none" xmlns="http://www.w3.org/2000/svg">
<circle cx="26" cy="26" r="25" fill="#014474" stroke="white" stroke-width="2"/>
<path fill-rule="evenodd" clip-rule="evenodd" d="M25.9995 44.4795C15.7933 44.4795 7.51953 36.2058 7.51953 25.9995C7.51953 15.7933 15.7933 7.51953 25.9995 7.51953C36.2058 7.51953 44.4795 15.7933 44.4795 25.9995C44.4795 36.2058 36.2058 44.4795 25.9995 44.4795ZM16.0373 28.688C15.896 29.0563 15.9499 29.6246 16.1607 29.9622L18.7086 34.0422C18.9181 34.3777 19.4065 34.6271 19.8015 34.5992L25.678 34.1839C26.0721 34.156 26.5208 33.8406 26.6786 33.4827L28.8596 28.5386C29.0181 28.1792 28.952 27.6347 28.71 27.3198L24.9862 22.4747C24.7451 22.1609 24.2325 21.948 23.842 21.9989L19.0362 22.626C18.6455 22.6769 18.2143 23.0163 18.0728 23.385L16.0373 28.688ZM25.9954 21.6801L29.7456 26.5596C29.9876 26.8744 30.5003 27.1031 30.8951 27.0761L35.6979 26.7475C36.0952 26.7203 36.5303 26.4013 36.6752 26.0346L38.4976 21.4244C38.6436 21.0549 38.5763 20.4973 38.3497 20.1726L35.1962 15.6546C34.967 15.3262 34.4677 15.0746 34.0751 15.0842L28.6745 15.217C28.2836 15.2266 27.8424 15.5313 27.6927 15.8976L25.8318 20.4516C25.6816 20.8191 25.7554 21.3679 25.9954 21.6801ZM10.3874 28.8494C10.4995 29.2267 10.9015 29.4717 11.2914 29.3954L13.9405 28.8774C14.3277 28.8017 14.7547 28.4455 14.8965 28.0761L17.0203 22.5428C17.1611 22.176 17.1522 21.5801 17.003 21.2181L15.4815 17.5256C15.3311 17.1608 14.8893 16.9068 14.5017 16.9575L12.5803 17.2087C12.1894 17.2598 11.7549 17.5952 11.6079 17.9624L9.21297 23.9437C9.18434 24.1799 9.16059 24.4175 9.1418 24.6566L10.3874 28.8494ZM30.7084 38.3133L27.3909 35.8183C27.0777 35.5827 26.5028 35.4131 26.1088 35.4409L19.9533 35.876C19.5562 35.904 19.1436 36.2303 19.0248 36.6052L18.4284 38.4858C18.3098 38.86 18.4352 39.3951 18.709 39.6795L21.1362 42.2C22.6764 42.6617 24.309 42.9098 25.9995 42.9098C27.1024 42.9098 28.1806 42.8042 29.2247 42.6026L30.9428 39.3701C31.1262 39.025 31.0225 38.5496 30.7084 38.3133ZM33.4943 38.2497C33.18 38.4879 32.7751 38.9632 32.5889 39.3135L31.0922 42.1295C34.9151 40.9236 38.1515 38.3962 40.2655 35.0832L38.7704 34.8841C38.3784 34.8319 37.806 34.9825 37.4915 35.2209L33.4943 38.2497ZM40.5625 21.5741C40.1729 21.5215 39.7388 21.778 39.5947 22.1426L37.6681 27.0167C37.5232 27.3832 37.4701 27.9968 37.5478 28.3786L38.4607 32.8678C38.5392 33.2535 38.9213 33.6085 39.3115 33.6605L40.2561 33.7863C40.6476 33.8384 40.9648 33.8806 40.9648 33.8806C42.2067 31.5273 42.9098 28.8455 42.9098 25.9995C42.9098 24.5573 42.7292 23.1571 42.3895 21.8206L40.5625 21.5741ZM34.7707 13.0999L35.1458 11.7738C32.509 10.075 29.3694 9.08926 25.9995 9.08926C24.9726 9.08926 23.9671 9.1808 22.9906 9.35616L22.4991 10.7125C22.365 11.0824 22.5426 11.5229 22.8953 11.6977L26.8258 13.6456C27.1769 13.8196 27.7842 13.9541 28.1788 13.9444L33.8618 13.8048C34.2569 13.795 34.6634 13.4795 34.7707 13.0999ZM12.4085 15.9359C12.4085 15.9359 12.7251 15.8945 13.1158 15.8434L15.2383 15.566C15.6317 15.5145 16.2025 15.2849 16.5193 15.0523L20.089 12.4316C20.4023 12.2015 20.7714 11.7104 20.9055 11.3404L21.5022 9.69384C17.8127 10.7092 14.6281 12.9432 12.4085 15.9359ZM15.4438 39.3499C15.4438 39.3499 16.4918 40.4791 18.1435 41.176L17.438 40.3096C17.1894 40.0043 16.6754 39.6745 16.2971 39.5748L15.4438 39.3499Z" fill="white"/>
</svg>
