<svg width="16" height="14" viewBox="0 0 16 14" fill="none" xmlns="http://www.w3.org/2000/svg">
<path d="M15.1667 13.1667H9.81049C9.38499 13.1667 9.05366 12.7813 8.92233 12.4187L3.98099 1.05933C3.89266 0.8175 3.92749 0.547833 4.07433 0.337833C4.22233 0.126333 4.46583 0 4.72583 0H5.90983C6.23383 0 6.53033 0.2115 6.65066 0.527167L10.5785 9.66667H15.1667C15.6885 9.66667 16 9.97817 16 10.5V12.3333C16 12.8552 15.6885 13.1667 15.1667 13.1667ZM4.60483 0.823833L9.54699 12.1858C9.61066 12.3673 9.75799 12.5 9.81049 12.5H15.1667C15.3208 12.5 15.3333 12.4875 15.3333 12.3333V10.5C15.3333 10.3458 15.3208 10.3333 15.1667 10.3333H10.1393L6.02849 0.766667C6.00833 0.7115 5.95516 0.666667 5.90999 0.666667H4.72599C4.66699 0.666667 4.63483 0.7 4.62099 0.719833C4.60533 0.742 4.59049 0.7775 4.60483 0.823833Z" fill="#0BACC6"/>
<path d="M7.00001 2H4.83334V2.66667H7.00001V2Z" fill="#0BACC6"/>
<path d="M14.133 10.259L13.6616 9.7876L10.9095 12.5397L11.3809 13.0111L14.133 10.259Z" fill="#0BACC6"/>
<path d="M10.0391 5.964L8.56381 2.64933L9.54765 0.438C9.61348 0.268833 9.79548 0 10.2875 0H11.4716C11.7465 0 11.996 0.122333 12.1391 0.327167C12.2735 0.519167 12.3016 0.763 12.2163 0.995833L12.2085 1.01517L10.0391 5.964ZM9.29331 2.649L10.0345 4.31417L11.5928 0.7595C11.6 0.736667 11.6 0.719667 11.5928 0.709167C11.578 0.688 11.5346 0.666667 11.4716 0.666667H10.2875C10.1921 0.666667 10.1633 0.6845 10.163 0.684667L9.29331 2.649Z" fill="#0BACC6"/>
<path d="M6.38683 13.1665H0.833333C0.3115 13.1665 0 12.855 0 12.3332V10.4998C0 9.97801 0.3115 9.66651 0.833333 9.66651H5.61083L6.181 8.20801L7.71933 11.555L7.271 12.4293C7.13717 12.7887 6.80833 13.1665 6.38683 13.1665ZM0.833333 10.3332C0.679167 10.3332 0.666667 10.3457 0.666667 10.4998V12.3332C0.666667 12.4873 0.679167 12.4998 0.833333 12.4998H6.38683C6.43933 12.4998 6.58683 12.3673 6.65033 12.1858L6.66833 12.1438L6.9785 11.539L6.23083 9.91234L6.066 10.3332H0.833333Z" fill="#0BACC6"/>
<path d="M11.3333 2H9.16666V2.66667H11.3333V2Z" fill="#0BACC6"/>
<path d="M5.28695 12.5401L2.53491 9.78809L2.06351 10.2595L4.81555 13.0115L5.28695 12.5401Z" fill="#0BACC6"/>
</svg>
