<svg width="16" height="16" viewBox="0 0 16 16" fill="none" xmlns="http://www.w3.org/2000/svg">
<path d="M3.4935 9.67691C3.30325 9.90665 3.11299 10.1364 2.92095 10.3643C2.89941 10.3895 2.87966 10.4146 2.85813 10.4397C2.82043 10.4846 2.78454 10.5295 2.74685 10.5725C2.68941 10.6425 2.63198 10.7107 2.57454 10.7807C2.33583 10.542 2.09891 10.3051 1.8602 10.0664C1.8602 10.0664 1.8602 10.0664 1.8584 10.0646C1.85661 10.0628 1.85481 10.061 1.85481 10.0592C1.85122 10.0556 1.84943 10.0538 1.84763 10.0502L1.84584 10.0484C1.84225 10.0449 1.83866 10.0395 1.83507 10.0359C1.77225 9.95152 1.76507 9.83485 1.81533 9.74332C1.81533 9.74152 1.81712 9.73973 1.81712 9.73973C1.81892 9.73434 1.82251 9.72896 1.8243 9.72357C2.00917 9.3323 2.20122 8.94462 2.39147 8.55334C2.39865 8.53719 2.40762 8.52104 2.4148 8.50488C2.47942 8.57668 2.54403 8.64847 2.60864 8.72026C2.67326 8.79206 2.73787 8.86385 2.80249 8.93385C3.03223 9.18692 3.26017 9.43281 3.4935 9.67691Z" fill="#0BACC6"/>
<path d="M6.26473 9.10816C6.44062 9.28405 6.6201 9.45815 6.79779 9.63225C6.76728 9.65738 6.73856 9.6825 6.70805 9.70584C6.26293 10.0738 5.81602 10.4435 5.3709 10.8115C4.97963 10.4292 4.59374 10.0415 4.21503 9.6484C4.44477 9.372 4.6745 9.09559 4.90245 8.81919C5.06757 8.62176 5.2309 8.42253 5.39603 8.2251C5.41039 8.23946 5.42295 8.25382 5.43731 8.26817C5.45167 8.28253 5.46423 8.29689 5.47859 8.31125C5.50551 8.33997 5.53423 8.36869 5.56115 8.3974C5.58807 8.42612 5.61679 8.45484 5.64371 8.48355C5.67602 8.51766 5.70833 8.54996 5.74243 8.58406C5.7514 8.59304 5.75858 8.60022 5.76756 8.60919C5.77833 8.61996 5.7891 8.63073 5.79987 8.6415C5.93986 8.78509 6.08345 8.92688 6.22524 9.06867C6.23601 9.08123 6.25037 9.0938 6.26473 9.10816Z" fill="#0BACC6"/>
<path d="M5.02097 7.83724C4.94199 7.93237 4.86302 8.02749 4.78405 8.12083C4.46995 8.49954 4.15406 8.88004 3.83817 9.25875C3.67663 9.08824 3.51689 8.91773 3.35895 8.74722C3.25664 8.63774 3.15613 8.52646 3.05562 8.41518C2.99101 8.34339 2.92639 8.27159 2.86178 8.1998C2.79717 8.12801 2.73255 8.05621 2.66794 7.98262C2.95511 7.38853 3.24408 6.79624 3.53125 6.20215C3.59587 6.27574 3.65869 6.34753 3.7233 6.42112C3.78791 6.49291 3.85073 6.5665 3.91714 6.63829C4.2797 7.04393 4.64764 7.44238 5.02097 7.83724Z" fill="#0BACC6"/>
<path d="M9.60115 2.32367C9.52218 2.41879 9.44321 2.51571 9.36244 2.61084C9.28347 2.70597 9.20449 2.80289 9.12373 2.89801C9.0286 3.01288 8.93168 3.12775 8.83655 3.24262C8.22631 3.9785 7.61427 4.71438 7.00223 5.45027C6.4566 6.10538 5.91277 6.76229 5.36714 7.4192C4.96151 6.99203 4.56126 6.55768 4.16998 6.11615C4.13947 6.08205 4.10896 6.04795 4.07845 6.01205C4.04435 5.97436 4.01024 5.93487 3.97794 5.89718C3.91332 5.82359 3.8505 5.75 3.78589 5.67642C4.15562 4.91361 4.52536 4.15081 4.8951 3.388C5.26483 2.6234 5.63636 1.8588 6.0061 1.096C6.16225 0.774724 6.3166 0.455244 6.47276 0.133968C6.51045 0.0567905 6.61993 -0.00961838 6.70608 0.00115062C6.80659 0.0119196 6.90531 0.0226885 7.00582 0.0334576C7.71658 0.110635 8.42733 0.187813 9.13808 0.263196C9.29603 0.281145 9.38936 0.374476 9.40731 0.532421C9.41808 0.632932 9.42885 0.733443 9.43962 0.832159C9.49346 1.32933 9.54731 1.8265 9.60115 2.32367Z" fill="#0BACC6"/>
<path d="M12.3042 5.08425C12.2216 5.15245 12.1391 5.22065 12.0565 5.28886C11.9739 5.35706 11.8914 5.42527 11.8088 5.49347C11.7047 5.57962 11.5988 5.66577 11.4947 5.75372C10.7714 6.3514 10.0499 6.94729 9.32656 7.54496C8.62299 8.12649 7.91941 8.70802 7.21584 9.28954C6.97712 9.05801 6.742 8.82468 6.50867 8.59135C6.50688 8.58956 6.50508 8.58776 6.50508 8.58776C6.49611 8.57879 6.48534 8.56981 6.47637 8.55905C6.22868 8.31136 5.98458 8.06188 5.74228 7.8106C6.20176 7.25779 6.66123 6.70498 7.12071 6.15217C7.76326 5.3786 8.40402 4.60682 9.04657 3.83325C9.2081 3.63941 9.36964 3.44556 9.53117 3.25172C9.59938 3.16916 9.66758 3.0866 9.73579 3.00404C9.80399 2.92147 9.87219 2.83891 9.9404 2.75635C10.5722 2.82455 11.204 2.89276 11.8357 2.96096C11.9937 2.97711 12.0888 3.07224 12.105 3.23018C12.1157 3.33069 12.1265 3.42941 12.1373 3.52992C12.1911 4.04683 12.2468 4.56554 12.3042 5.08425Z" fill="#0BACC6"/>
<path d="M6.54999 12.6494C6.46204 12.6925 6.3741 12.7356 6.28436 12.7787C5.96308 12.9348 5.6436 13.0892 5.32232 13.2453C5.21284 13.2974 5.08541 13.2938 4.99566 13.204C4.86644 13.0748 4.73721 12.9456 4.60798 12.8164L4.23645 12.4448C4.30645 12.3874 4.37645 12.33 4.44465 12.2725C4.50029 12.2259 4.55773 12.1792 4.61516 12.1325C4.62772 12.1218 4.64029 12.111 4.65465 12.1002C4.88439 11.91 5.11412 11.7215 5.34207 11.5312C5.53053 11.7107 5.71898 11.8884 5.90924 12.0661C5.97923 12.1307 6.04923 12.1971 6.12103 12.2617C6.19282 12.3264 6.26282 12.3928 6.33461 12.4574C6.4064 12.5202 6.4782 12.5848 6.54999 12.6494Z" fill="#0BACC6"/>
<path d="M14.9283 8.58951C14.9229 8.5913 14.9176 8.59489 14.9122 8.59668C14.5317 8.8013 14.1314 8.97539 13.7437 9.16385C12.945 9.55154 12.1463 9.93742 11.3476 10.3251C10.6925 10.6428 10.0374 10.9605 9.38229 11.2764C9.3087 11.2136 9.23511 11.1489 9.16152 11.0843C9.08794 11.0197 9.01614 10.9569 8.94255 10.8923C8.48846 10.4902 8.04334 10.0792 7.60361 9.66102C8.20308 9.16565 8.80256 8.67027 9.40024 8.17669C10.1541 7.55389 10.9097 6.92928 11.6635 6.30648C11.8143 6.18084 11.9686 6.05879 12.1212 5.93495C12.2181 5.85597 12.3168 5.777 12.4138 5.69623C12.5089 5.61726 12.6022 5.53829 12.6956 5.45752C13.3058 5.52393 13.916 5.58854 14.5281 5.65495C14.686 5.6729 14.7811 5.76623 14.7973 5.92418C14.8081 6.02469 14.8188 6.1234 14.8296 6.22391C14.9068 6.93467 14.9822 7.64542 15.0593 8.35618C15.0701 8.44412 15.0037 8.55181 14.9283 8.58951Z" fill="#0BACC6"/>
<path d="M4.95454 11.156C4.78403 11.296 4.61352 11.4378 4.44481 11.5778C4.38737 11.6245 4.33173 11.6711 4.2743 11.7178C4.2043 11.7752 4.1343 11.8309 4.0643 11.8883C3.9943 11.9458 3.92431 12.0014 3.85431 12.0588C3.55636 11.7609 3.25842 11.4629 2.96048 11.165C2.99638 11.1201 3.03407 11.0771 3.06996 11.0322C3.0915 11.0071 3.11125 10.9819 3.13278 10.9568C3.19022 10.8868 3.24765 10.8186 3.30509 10.7486C3.49355 10.5225 3.682 10.2945 3.87046 10.0684C4.22404 10.4345 4.5866 10.7971 4.95454 11.156Z" fill="#0BACC6"/>
<path d="M8.85816 11.531C8.76483 11.5759 8.6715 11.6207 8.57817 11.6674C8.07562 11.9097 7.57486 12.1538 7.0741 12.3961C7.0023 12.3315 6.92872 12.2669 6.85692 12.2022C6.78513 12.1376 6.71334 12.073 6.64154 12.0084C6.3436 11.7374 6.04925 11.4646 5.75848 11.1864C6.0995 10.9046 6.44232 10.621 6.78333 10.3392C6.91795 10.2279 7.05256 10.1167 7.18717 10.0054C7.5928 10.3913 8.00382 10.7718 8.42202 11.1451C8.4274 11.1505 8.43458 11.1559 8.43997 11.1612C8.50638 11.2205 8.57278 11.2797 8.63919 11.3389C8.71099 11.4035 8.78457 11.4664 8.85816 11.531Z" fill="#0BACC6"/>
<path d="M4.58828 13.746C4.58828 13.7424 4.58828 13.7388 4.58648 13.7352C4.58648 13.7316 4.58648 13.728 4.58469 13.7244C4.58469 13.7209 4.58289 13.7173 4.58289 13.7137C4.5811 13.7083 4.5811 13.7047 4.5793 13.6993C4.5793 13.6993 4.5793 13.6975 4.5793 13.6957C4.5793 13.6957 4.5793 13.6939 4.5793 13.6921C4.5793 13.6903 4.5793 13.6886 4.57751 13.6868C4.57751 13.6868 4.57751 13.6868 4.57751 13.685C4.57751 13.6832 4.57571 13.6796 4.57571 13.6778C4.57033 13.6634 4.56495 13.6491 4.55777 13.6365C4.55059 13.6221 4.54161 13.6096 4.53264 13.5988C4.52725 13.5916 4.52187 13.5845 4.51469 13.5791C4.267 13.3296 4.01752 13.0819 3.76804 12.8324C3.67471 12.7391 3.58138 12.6458 3.48804 12.5506L2.56909 11.6317C2.44166 11.5042 2.31422 11.3768 2.18679 11.2494C2.0791 11.1417 1.97141 11.034 1.86372 10.9263L1.48681 10.5494C1.3845 10.4471 1.20861 10.4471 1.1063 10.5494C0.804768 10.8509 0.483493 11.1381 0.282471 11.5204C-0.0208557 12.0947 -0.0872645 12.7857 0.119141 13.4032C0.329137 14.035 0.799384 14.5752 1.41142 14.8462C2.00551 15.1101 2.69293 15.1388 3.29959 14.8929C3.61368 14.7655 3.89188 14.5806 4.13239 14.3401C4.25982 14.2126 4.38905 14.0834 4.51649 13.956C4.52366 13.9488 4.52905 13.9434 4.53443 13.9362C4.53802 13.9309 4.54161 13.9273 4.5452 13.9219C4.547 13.9201 4.547 13.9183 4.54879 13.9165C4.55238 13.9129 4.55418 13.9075 4.55777 13.9039C4.55956 13.9003 4.56136 13.8968 4.56315 13.8932C4.56495 13.8896 4.56674 13.886 4.56854 13.8806C4.57033 13.8752 4.57212 13.8716 4.57392 13.8662C4.57571 13.8609 4.57751 13.8573 4.5793 13.8519C4.5811 13.8483 4.5811 13.8447 4.58289 13.8411C4.58289 13.8393 4.58289 13.8393 4.58289 13.8375C4.58289 13.8357 4.58469 13.8321 4.58469 13.8303C4.58469 13.8285 4.58648 13.8268 4.58648 13.825C4.58648 13.8232 4.58828 13.8214 4.58828 13.8196C4.59007 13.8124 4.59187 13.8052 4.59187 13.798C4.59187 13.7944 4.59187 13.7909 4.59366 13.7873C4.59366 13.7837 4.59366 13.7801 4.59366 13.7765C4.59007 13.7675 4.59007 13.7568 4.58828 13.746Z" fill="#0BACC6"/>
</svg>
