<svg width="17" height="16" viewBox="0 0 17 16" fill="none" xmlns="http://www.w3.org/2000/svg">
<path d="M0.686808 8.80029C0.245782 9.26613 0 9.88325 0 10.5247C0 11.1662 0.245782 11.7833 0.686808 12.2492C1.04697 11.7484 1.24206 11.1478 1.2449 10.531C1.24467 9.9099 1.04946 9.30453 0.686808 8.80029V8.80029Z" fill="#0BACC6"/>
<path d="M3.75336 10.5307C3.75359 11.1518 3.9488 11.7572 4.31145 12.2614C4.75248 11.7956 4.99826 11.1784 4.99826 10.5369C4.99826 9.89545 4.75248 9.27834 4.31145 8.8125C3.95129 9.31326 3.7562 9.91385 3.75336 10.5307Z" fill="#0BACC6"/>
<path d="M3.8253 8.40515C3.42813 8.15513 2.96837 8.02246 2.49905 8.02246C2.02973 8.02246 1.56996 8.15513 1.17279 8.40515C1.62738 9.02064 1.87246 9.76576 1.87198 10.5309C1.87246 11.2961 1.62738 12.0412 1.17279 12.6567C1.56996 12.9067 2.02973 13.0394 2.49905 13.0394C2.96837 13.0394 3.42813 12.9067 3.8253 12.6567C3.37106 12.041 3.12598 11.296 3.12598 10.5309C3.12598 9.76582 3.37106 9.02083 3.8253 8.40515V8.40515Z" fill="#0BACC6"/>
<path d="M16.4201 13.1425L16.1975 12.9199C16.0725 12.7944 15.9087 12.7149 15.7328 12.6944C15.5568 12.6739 15.3791 12.7136 15.2287 12.807L14.3915 11.8413L12.9022 13.3306L13.8679 14.1677C13.7745 14.3182 13.7348 14.4959 13.7553 14.6719C13.7758 14.8478 13.8553 15.0116 13.9808 15.1366L14.2003 15.3592C14.3481 15.5051 14.5475 15.5869 14.7552 15.5869C14.9629 15.5869 15.1623 15.5051 15.3102 15.3592L16.4201 14.2493C16.5666 14.1023 16.6488 13.9033 16.6488 13.6959C16.6488 13.4884 16.5666 13.2894 16.4201 13.1425V13.1425Z" fill="#0BACC6"/>
<path d="M4.72858 0.704553C4.70288 0.671999 4.67456 0.641591 4.64393 0.613627C4.34661 0.316966 3.96718 0.116243 3.55464 0.0373717C3.14211 -0.0414994 2.7154 0.00510402 2.32961 0.171165C1.94382 0.337225 1.61667 0.615118 1.3904 0.968964C1.16412 1.32281 1.04911 1.73636 1.06021 2.15622C1.06734 2.44161 1.13309 2.72248 1.25337 2.98138C1.37366 3.24029 1.5459 3.47168 1.7594 3.66119L7.67895 8.80005L9.8737 6.6053L4.72858 0.704553Z" fill="#0BACC6"/>
<path d="M12.3315 9.46777L10.5286 11.2706L12.4287 12.9198L13.9807 11.3678L12.3315 9.46777Z" fill="#0BACC6"/>
<path d="M10.2719 7.09424L8.15549 9.2106L10.0555 10.8598L11.9211 8.99426L10.2719 7.09424Z" fill="#0BACC6"/>
</svg>
