<svg width="17" height="17" viewBox="0 0 17 17" fill="none" xmlns="http://www.w3.org/2000/svg">
<path d="M3.07897 0.00192699C1.38336 0.00192699 0 1.38529 0 3.08089C2.05264e-07 4.7765 1.38336 6.15986 3.07897 6.15986C4.77457 6.15986 6.15793 4.7765 6.15793 3.08089C6.15793 1.38529 4.77457 0.00192699 3.07897 0.00192699ZM13.2973 0.00192699C13.2076 0.0132436 13.1242 0.0538287 13.06 0.117388L7.31255 5.65953C7.2911 5.67882 7.27175 5.70032 7.25482 5.72367L4.59921 9.61087L4.58638 9.6237L2.21301 12.0997L1.73192 11.6186C1.72375 11.6097 1.71519 11.6011 1.70626 11.593C1.62758 11.5279 1.52748 11.4944 1.42548 11.4992C1.32348 11.5039 1.22691 11.5465 1.15461 11.6186L0.121876 12.6513C0.0832863 12.6895 0.0526513 12.735 0.0317437 12.7851C0.0108361 12.8352 7.08635e-05 12.8889 7.08635e-05 12.9432C7.08635e-05 12.9975 0.0108361 13.0512 0.0317437 13.1013C0.0526513 13.1514 0.0832863 13.1969 0.121876 13.2351L2.77748 15.8907C2.85434 15.9667 2.95806 16.0093 3.06614 16.0093C3.17421 16.0093 3.27793 15.9667 3.35479 15.8907L4.39394 14.8579C4.43253 14.8198 4.46317 14.7743 4.48407 14.7242C4.50498 14.6741 4.51575 14.6204 4.51575 14.5661C4.51575 14.5118 4.50498 14.458 4.48407 14.408C4.46317 14.3579 4.43253 14.3124 4.39394 14.2742L3.91285 13.7931L6.38886 11.4262L6.40169 11.4133L10.2889 8.75774C10.3672 8.70672 10.4258 8.63049 10.455 8.54164C10.4841 8.45279 10.4821 8.35666 10.4492 8.26914C10.4163 8.18162 10.3545 8.10795 10.274 8.06033C10.1935 8.01271 10.0992 7.99398 10.0066 8.00724C9.94202 8.01616 9.88045 8.04035 9.82704 8.0778L6.20925 10.5538L5.45875 9.80972L7.91551 6.21118L13.3358 0.983348L15.0292 2.67678L10.9624 6.89112C10.9242 6.92971 10.894 6.97551 10.8736 7.02586C10.8532 7.07621 10.843 7.1301 10.8436 7.18442C10.8441 7.23875 10.8555 7.29241 10.877 7.34231C10.8984 7.39221 10.9296 7.43736 10.9686 7.47513C11.0077 7.5129 11.0538 7.54255 11.1044 7.56235C11.155 7.58216 11.209 7.59173 11.2633 7.59051C11.3176 7.58929 11.3712 7.5773 11.4208 7.55524C11.4705 7.53318 11.5152 7.50149 11.5525 7.46201L15.8952 2.9526C15.9684 2.87521 16.0086 2.77239 16.0074 2.66586C16.0062 2.55933 15.9637 2.45744 15.8888 2.38171L13.6308 0.123803C13.5879 0.0798164 13.5357 0.04603 13.4779 0.0249361C13.4202 0.00384218 13.3585 -0.00402091 13.2973 0.00192699ZM3.07897 0.822985C3.54526 0.822985 3.97751 0.961667 4.33621 1.20144C3.93486 1.72216 3.69476 2.37477 3.69476 3.08089C3.69476 3.78702 3.93486 4.44095 4.33621 4.96035C3.97751 5.20031 3.54526 5.3388 3.07897 5.3388C2.61267 5.3388 2.18061 5.20031 1.82172 4.96035C2.22307 4.44095 2.46317 3.78702 2.46317 3.08089C2.46317 2.37477 2.22307 1.72216 1.82172 1.20144C2.18061 0.961667 2.61267 0.822985 3.07897 0.822985ZM1.23159 1.78516C1.48997 2.15256 1.64212 2.59624 1.64212 3.08089C1.64212 3.56555 1.48997 4.01087 1.23159 4.37663C0.974319 4.0098 0.821058 3.56525 0.821058 3.08089C0.821058 2.59654 0.974319 2.15178 1.23159 1.78516ZM4.92635 1.78516C5.18341 2.15178 5.33688 2.59654 5.33688 3.08089C5.33688 3.56525 5.18341 4.0098 4.92635 4.37663C4.66796 4.01087 4.51582 3.56555 4.51582 3.08089C4.51582 2.59624 4.66796 2.15256 4.92635 1.78516ZM4.93276 10.4383L5.57421 11.0798L3.33555 13.2158L2.79031 12.677L4.93276 10.4383ZM1.44327 12.491L3.52157 14.5693L3.06614 15.0183L0.987835 12.9464L1.44327 12.491Z" fill="#0BACC6"/>
</svg>
