<svg width="16" height="17" viewBox="0 0 16 17" fill="none" xmlns="http://www.w3.org/2000/svg">
<path d="M13.6898 10.521C16.6794 7.27972 15.7667 5.64322 15.4521 4.85657C15.1935 4.20965 12.3367 -0.241363 9.1898 0.0102673C6.04291 0.261898 5.53935 5.32838 5.53935 5.32838C5.53935 5.32838 5.28772 3.5346 6.13727 1.70938C6.10491 1.39272 5.24054 0.938456 4.42213 1.85092C3.88651 2.44824 3.24201 3.28267 3.24201 4.41561C3.24201 5.37828 3.22629 6.69722 2.97466 7.20048C2.72303 7.70404 2.28237 8.61651 2.34528 9.12007C2.40819 9.62363 3.5254 10.9296 4.59543 11.8735C5.66547 12.8177 6.25885 13.3349 6.92422 13.6358C7.66822 13.973 10.7002 13.7625 13.6898 10.521ZM8.28762 2.07684C7.9126 2.08712 9.25271 -0.0629233 11.4554 1.67822C13.6584 3.41937 14.7281 5.32868 15.0009 6.23086C15.0009 6.23086 10.6161 2.01393 8.28762 2.07684Z" fill="#0BACC6"/>
<path d="M1.70158 12.6232C1.73032 13.2668 3.65505 14.9257 4.58112 15.6431C4.62921 15.6803 4.69483 15.6812 4.74383 15.6452C5.55558 15.0467 6.62803 14.2458 6.59355 14.2189C4.86723 12.8818 3.73066 11.7915 3.03323 11.0478C2.98272 10.994 2.90046 10.9897 2.84451 11.0378C2.48248 11.3475 1.67739 12.084 1.70158 12.6232Z" fill="#0BACC6"/>
<path d="M2.24168 14.0211C1.70031 13.4797 1.08968 12.733 1.07486 12.4012C1.04674 11.7712 1.96222 10.8315 2.34179 10.468C2.39562 10.4163 2.39985 10.3316 2.35298 10.2735C2.18482 10.0658 2.10921 9.95508 2.10921 9.95508C0.91336 10.6788 0.0638053 12.3468 0.000897691 12.6928C-0.0523318 12.9855 2.27434 15.4377 3.60175 16.0855C3.77989 16.1726 4.0539 16.1518 4.21389 16.0344C4.29555 15.9745 4.3884 15.9068 4.4882 15.8333C4.17457 15.6071 3.07641 14.8558 2.24168 14.0211Z" fill="#0BACC6"/>
</svg>
