<svg width="14" height="14" viewBox="0 0 14 14" fill="none" xmlns="http://www.w3.org/2000/svg">
<path d="M1.22161 0C0.864512 -1.55553e-06 0.542761 0.0922498 0.317456 0.31731C0.0921506 0.542369 -0.00225201 0.865837 4.07151e-05 1.22115V11.6923V11.6971C-0.00134373 12.0524 0.0914434 12.3761 0.317456 12.601C0.544528 12.8269 0.870123 12.9231 1.23123 12.9231H6.63209C7.41335 13.5946 8.42785 14 9.53692 14C11.9981 14 14 11.9989 14 9.53848C14 8.43275 13.596 7.42056 12.9275 6.63942C12.9275 4.82862 12.9275 3.01723 12.9275 1.20676C12.9252 0.856096 12.8302 0.539695 12.6053 0.317339C12.3803 0.0949803 12.0562 2.69275e-05 11.7011 2.8483e-05L1.22161 0ZM1.22161 0.615385H6.15116V6.15385H0.615633V1.22115C0.609007 1.04225 0.665202 0.849068 0.755103 0.754818C0.902827 0.632141 1.06232 0.616802 1.22161 0.615385ZM6.76675 0.615385H11.7011C11.952 0.615383 12.091 0.674283 12.1724 0.754809C12.2539 0.835335 12.3103 0.966052 12.3119 1.21154V6.04806C11.5494 5.43998 10.5856 5.07211 9.53692 5.07211C8.49015 5.07211 7.52856 5.43714 6.76675 6.04326V0.615385ZM9.49844 1.84134C9.34889 1.86015 9.2256 2.0032 9.22912 2.15384V3.07691C8.91175 3.07691 8.58667 3.07691 8.27206 3.07691C8.11089 3.08572 7.97226 3.24031 7.98107 3.40143C7.98989 3.56255 8.14456 3.70113 8.30573 3.6923H9.22912V4.61538C9.22683 4.77793 9.37429 4.92744 9.53692 4.92744C9.69954 4.92744 9.84701 4.77793 9.84471 4.61538V3.6923H10.7681C10.9307 3.69458 11.0803 3.54718 11.0803 3.38461C11.0803 3.22203 10.9307 3.07462 10.7681 3.07691H9.84471V2.15384C9.84952 1.92591 9.68023 1.8409 9.49844 1.84134ZM2.11614 3.07692C1.95497 3.08573 1.81633 3.24032 1.82515 3.40144C1.83396 3.56256 1.98863 3.70114 2.14981 3.69231H4.61218C4.77479 3.69459 4.92436 3.54719 4.92436 3.38462C4.92436 3.22204 4.77479 3.07462 4.61218 3.07692C3.78132 3.07692 2.94443 3.07692 2.11614 3.07692ZM9.53692 5.6923C11.6655 5.6923 13.3892 7.41064 13.3892 9.53846C13.3892 11.6663 11.6655 13.3798 9.53692 13.3798C7.40837 13.3798 5.68946 11.6663 5.68946 9.53846C5.68946 7.41064 7.40837 5.6923 9.53692 5.6923ZM0.615633 6.76922H6.04535C5.44047 7.5315 5.07868 8.49257 5.07868 9.53846C5.07868 10.5843 5.44047 11.5463 6.04535 12.3077H1.23123C0.971926 12.3077 0.836055 12.244 0.755103 12.1635C0.674152 12.0829 0.614015 11.9504 0.615633 11.6971V6.76922ZM4.03025 8.4471L3.38099 9.09614L2.72692 8.4471C2.56446 8.32301 2.43039 8.33677 2.29576 8.4359C2.15237 8.57553 2.21555 8.75479 2.28928 8.88454L2.93853 9.53839L2.28928 10.1874C2.1747 10.302 2.1747 10.5104 2.28928 10.6249C2.40385 10.7395 2.61235 10.7395 2.72692 10.6249L3.38099 9.97107L4.03025 10.6249C4.14482 10.7395 4.35332 10.7395 4.4679 10.6249C4.58247 10.5104 4.58247 10.302 4.4679 10.1874L3.81383 9.53839L4.4679 8.88454C4.60326 8.72273 4.57791 8.58358 4.46671 8.43333C4.31048 8.32066 4.15716 8.36795 4.03025 8.44702L4.03025 8.4471ZM8.27206 8.61538C8.11089 8.62425 7.97226 8.77878 7.98107 8.9399C7.98989 9.10101 8.14456 9.2396 8.30573 9.23076H10.7681C10.9307 9.23309 11.0803 9.08564 11.0803 8.92307C11.0803 8.7605 10.9307 8.61308 10.7681 8.61538C9.93725 8.61538 9.10036 8.61538 8.27206 8.61538ZM8.28168 9.84614C8.12049 9.85361 7.98069 10.0071 7.98825 10.1683C7.99581 10.3294 8.14935 10.4691 8.31053 10.4615H10.7729C10.9355 10.4639 11.0851 10.3164 11.0851 10.1538C11.0851 9.99127 10.9355 9.84384 10.7729 9.84614C9.94342 9.84614 9.10899 9.84614 8.28168 9.84614Z" fill="#0BACC6"/>
</svg>
