<svg width="16" height="15" viewBox="0 0 16 15" fill="none" xmlns="http://www.w3.org/2000/svg">
<path d="M15.3418 7.94984C14.2236 7.11206 13.4186 5.89826 13.0633 4.51421L12.9392 4.03017L10.4582 2.39127L11.0886 0L9.31646 1.07857C8.90338 1.32944 8.46092 1.52396 8 1.65731L7.06329 1.93879C4.5624 2.68502 2.39704 4.32828 0.951899 6.57664L0 8.06296C0 9.90278 0.703357 11.6672 1.95534 12.9682C3.20732 14.2691 4.90538 15 6.67595 15H7.6557L7.11646 13.2059C6.86309 12.3698 6.86035 11.4735 7.10858 10.6358C7.35681 9.79809 7.84428 9.0586 8.50633 8.51543L8.78228 8.2892L9.17215 8.8732C9.4764 9.33307 9.89857 9.69513 10.3908 9.91832C10.883 10.1415 11.4256 10.2169 11.957 10.1359L12.3899 10.0701L12.9544 10.5463C13.4132 10.9384 13.9882 11.154 14.5823 11.1566H15.5949L16 8.43651L15.3418 7.94984Z" fill="#0BACC6"/>
</svg>
