<svg width="17" height="11" viewBox="0 0 17 11" fill="none" xmlns="http://www.w3.org/2000/svg">
<path d="M12.8299 6.96091H10.9156C10.998 6.36927 11.27 5.8386 11.6721 5.43506L12.8299 6.96091Z" fill="#0BACC6"/>
<path d="M13.573 3.90469C12.9292 3.90469 12.328 4.08724 11.8125 4.39766L10.9622 3.27609L11.2005 2.77795H11.6857C11.8893 2.77795 12.0553 2.61276 12.0553 2.4084C12.0553 2.20405 11.8893 2.03886 11.6857 2.03886H9.40342C9.19906 2.03886 9.03387 2.20405 9.03387 2.4084C9.03387 2.61276 9.19906 2.77795 9.40342 2.77795H10.3812L10.2988 2.95053H5.05499L5.25085 2.26133C5.28004 2.1597 5.26341 2.04995 5.20614 1.96052C5.14849 1.87109 5.05536 1.81122 4.95041 1.79533C4.82735 1.77648 4.71464 1.71514 4.63186 1.62201C4.43785 1.40324 4.45781 1.06696 4.67695 0.87221C4.89572 0.678199 5.232 0.698154 5.42675 0.917664C5.56201 1.06992 5.79556 1.08433 5.94855 0.948705C6.10117 0.813822 6.11521 0.5799 5.97959 0.426909C5.51507 -0.0971042 4.71021 -0.145514 4.18656 0.319372C3.66255 0.784258 3.61451 1.58912 4.07866 2.1124C4.1825 2.22991 4.30667 2.326 4.44377 2.39732L4.00031 3.95716C3.81332 3.92538 3.6219 3.90506 3.42567 3.90506C1.53693 3.90506 0 5.44162 0 7.33073C0 9.21984 1.53656 10.7568 3.42567 10.7568C5.31478 10.7568 6.85135 9.22021 6.85135 7.33073C6.85135 6.51958 6.56606 5.7731 6.0923 5.18553L7.57048 6.51071C7.40862 6.74389 7.31217 7.02623 7.31217 7.33073C7.31217 8.12673 7.95961 8.77417 8.75561 8.77417C9.42337 8.77417 9.98028 8.31667 10.1451 7.70027H10.1684C10.3531 9.41644 11.8095 10.7568 13.573 10.7568C15.4617 10.7568 16.999 9.22021 16.999 7.33073C16.9987 5.44162 15.4628 3.90469 13.573 3.90469ZM10.1687 6.96082H10.1455C9.98101 6.34516 9.423 5.88803 8.75598 5.88803C8.5361 5.88803 8.32915 5.94161 8.14216 6.0303L5.5317 3.68998H10.348L11.2242 4.84481C10.6473 5.38952 10.2589 6.13008 10.1687 6.96082Z" fill="#0BACC6"/>
<path d="M4.7117 4.15739L4.75937 3.99072L5.27082 4.44896C5.09492 4.33551 4.9083 4.23795 4.7117 4.15739Z" fill="#0BACC6"/>
</svg>
