<svg width="14" height="14" viewBox="0 0 14 14" fill="none" xmlns="http://www.w3.org/2000/svg">
<path d="M2.625 2.625V1.75C2.625 1.51794 2.71719 1.29538 2.88128 1.13128C3.04538 0.967187 3.26794 0.875 3.5 0.875H11.375C11.6071 0.875 11.8296 0.967187 11.9937 1.13128C12.1578 1.29538 12.25 1.51794 12.25 1.75V2.625C12.25 2.85706 12.1578 3.07962 11.9937 3.24372C11.8296 3.40781 11.6071 3.5 11.375 3.5H3.5C3.26794 3.5 3.04538 3.40781 2.88128 3.24372C2.71719 3.07962 2.625 2.85706 2.625 2.625ZM3.0625 7C2.83044 7 2.60788 7.09219 2.44378 7.25628C2.27969 7.42038 2.1875 7.64294 2.1875 7.875V8.75C2.1875 8.98206 2.27969 9.20462 2.44378 9.36872C2.60788 9.53281 2.83044 9.625 3.0625 9.625H4.02106C3.8528 8.74399 3.93977 7.83324 4.27175 7H3.0625ZM2.1875 6.5625H4.46863C4.87141 5.7732 5.48431 5.11043 6.23975 4.64725C6.9952 4.18407 7.86387 3.93846 8.75 3.9375H2.1875C1.95544 3.9375 1.73288 4.02969 1.56878 4.19378C1.40469 4.35788 1.3125 4.58044 1.3125 4.8125V5.6875C1.3125 5.91956 1.40469 6.14212 1.56878 6.30622C1.73288 6.47031 1.95544 6.5625 2.1875 6.5625ZM4.12387 10.0625H1.3125C1.08044 10.0625 0.857876 10.1547 0.693782 10.3188C0.529687 10.4829 0.4375 10.7054 0.4375 10.9375V11.8125C0.4375 12.0446 0.529687 12.2671 0.693782 12.4312C0.857876 12.5953 1.08044 12.6875 1.3125 12.6875H5.99375C5.08802 12.0527 4.42789 11.1259 4.12387 10.0625ZM13.125 8.75C13.125 9.61529 12.8684 10.4612 12.3877 11.1806C11.9069 11.9001 11.2237 12.4608 10.4242 12.792C9.62481 13.1231 8.74515 13.2097 7.89648 13.0409C7.04781 12.8721 6.26826 12.4554 5.65641 11.8436C5.04455 11.2317 4.62787 10.4522 4.45906 9.60352C4.29025 8.75485 4.37689 7.87519 4.70803 7.07576C5.03916 6.27633 5.59992 5.59305 6.31938 5.11232C7.03885 4.63159 7.88471 4.375 8.75 4.375C9.90993 4.37627 11.022 4.83762 11.8422 5.65781C12.6624 6.47801 13.1237 7.59007 13.125 8.75ZM12.25 8.75C12.25 8.05777 12.0447 7.38108 11.6601 6.8055C11.2756 6.22993 10.7289 5.78133 10.0894 5.51642C9.44985 5.25151 8.74612 5.1822 8.06718 5.31725C7.38825 5.4523 6.76461 5.78564 6.27513 6.27513C5.78564 6.76461 5.4523 7.38825 5.31725 8.06718C5.1822 8.74612 5.25151 9.44985 5.51642 10.0894C5.78133 10.7289 6.22993 11.2756 6.8055 11.6601C7.38108 12.0447 8.05777 12.25 8.75 12.25C9.67794 12.249 10.5676 11.8799 11.2237 11.2237C11.8799 10.5676 12.249 9.67794 12.25 8.75ZM8.75 8.3125C8.63397 8.3125 8.52269 8.26641 8.44064 8.18436C8.35859 8.10231 8.3125 7.99103 8.3125 7.875C8.3125 7.75897 8.35859 7.64769 8.44064 7.56564C8.52269 7.48359 8.63397 7.4375 8.75 7.4375H9.625V6.5625H9.1875V6.125H8.3125V6.643C8.02083 6.74573 7.77492 6.94838 7.61835 7.21505C7.46177 7.48171 7.40462 7.79519 7.45702 8.09995C7.50942 8.40472 7.66799 8.6811 7.90464 8.88016C8.1413 9.07921 8.44076 9.18809 8.75 9.1875C8.86603 9.1875 8.97731 9.23359 9.05936 9.31564C9.14141 9.39769 9.1875 9.50897 9.1875 9.625C9.1875 9.74103 9.14141 9.85231 9.05936 9.93436C8.97731 10.0164 8.86603 10.0625 8.75 10.0625H7.875V10.9375H8.3125V11.375H9.1875V10.857C9.47917 10.7543 9.72508 10.5516 9.88165 10.285C10.0382 10.0183 10.0954 9.70481 10.043 9.40005C9.99058 9.09528 9.83201 8.8189 9.59536 8.61984C9.3587 8.42079 9.05924 8.31191 8.75 8.3125Z" fill="#0BACC6"/>
</svg>
