<svg width="17" height="17" viewBox="0 0 17 17" fill="none" xmlns="http://www.w3.org/2000/svg">
<path d="M8.50057 2.70898C7.3551 2.70898 6.23536 3.04865 5.28294 3.68504C4.33052 4.32143 3.5882 5.22595 3.14985 6.28422C2.71149 7.3425 2.5968 8.50699 2.82027 9.63045C3.04374 10.7539 3.59533 11.7859 4.4053 12.5958C5.21527 13.4058 6.24723 13.9574 7.37069 14.1809C8.49415 14.4043 9.65864 14.2896 10.7169 13.8513C11.7752 13.4129 12.6797 12.6706 13.3161 11.7182C13.9525 10.7658 14.2922 9.64603 14.2922 8.50057C14.2904 6.9651 13.6796 5.49303 12.5938 4.40729C11.5081 3.32155 10.036 2.71079 8.50057 2.70898ZM8.50057 8.15989C8.93721 8.15905 9.3585 8.32092 9.68223 8.61394C10.006 8.90695 10.2089 9.31007 10.2515 9.74463C10.294 10.1792 10.1731 10.614 9.91239 10.9643C9.65165 11.3145 9.26976 11.555 8.84125 11.6389V12.0409C8.84125 12.1313 8.80536 12.2179 8.74147 12.2818C8.67758 12.3457 8.59092 12.3816 8.50057 12.3816C8.41022 12.3816 8.32356 12.3457 8.25967 12.2818C8.19578 12.2179 8.15989 12.1313 8.15989 12.0409V11.6389C7.76116 11.5599 7.40213 11.3451 7.14387 11.0312C6.88562 10.7173 6.74408 10.3236 6.74334 9.91712C6.74334 9.82677 6.77923 9.74011 6.84312 9.67622C6.90701 9.61233 6.99366 9.57644 7.08402 9.57644C7.17437 9.57644 7.26102 9.61233 7.32492 9.67622C7.38881 9.74011 7.4247 9.82677 7.4247 9.91712C7.4247 10.1299 7.4878 10.3379 7.60602 10.5148C7.72423 10.6918 7.89226 10.8297 8.08885 10.9111C8.28544 10.9925 8.50176 11.0138 8.71046 10.9723C8.91916 10.9308 9.11086 10.8283 9.26133 10.6779C9.41179 10.5274 9.51426 10.3357 9.55577 10.127C9.59728 9.91831 9.57598 9.70199 9.49455 9.5054C9.41312 9.30881 9.27522 9.14078 9.09829 9.02257C8.92137 8.90435 8.71336 8.84125 8.50057 8.84125C8.06393 8.84209 7.64264 8.68021 7.31891 8.3872C6.99517 8.09419 6.79223 7.69107 6.74968 7.2565C6.70712 6.82194 6.82801 6.38711 7.08875 6.03686C7.34949 5.68662 7.73138 5.44609 8.15989 5.36221V4.95748C8.15989 4.86713 8.19578 4.78047 8.25967 4.71658C8.32356 4.65269 8.41022 4.6168 8.50057 4.6168C8.59092 4.6168 8.67758 4.65269 8.74147 4.71658C8.80536 4.78047 8.84125 4.86713 8.84125 4.95748V5.35949C9.23998 5.43855 9.59901 5.6533 9.85727 5.96721C10.1155 6.28111 10.2571 6.6748 10.2578 7.08129C10.2578 7.17164 10.2219 7.2583 10.158 7.32219C10.0941 7.38608 10.0075 7.42197 9.91712 7.42197C9.82677 7.42197 9.74012 7.38608 9.67623 7.32219C9.61234 7.2583 9.57644 7.17164 9.57644 7.08129C9.5759 6.86862 9.51235 6.66088 9.3938 6.48431C9.27526 6.30774 9.10704 6.17027 8.9104 6.08926C8.71377 6.00825 8.49753 5.98733 8.28901 6.02915C8.08049 6.07097 7.88905 6.17365 7.73886 6.32422C7.58866 6.47479 7.48647 6.6665 7.44518 6.87512C7.40388 7.08375 7.42535 7.29993 7.50686 7.49636C7.58837 7.69279 7.72627 7.86066 7.90313 7.97876C8.08 8.09686 8.2879 8.15989 8.50057 8.15989Z" fill="#0BACC6"/>
<path d="M8.83984 0V2.04409C10.3175 2.12077 11.7236 2.70401 12.8217 3.69571L14.2662 2.25122C12.7838 0.877724 10.8592 0.0792954 8.83984 0Z" fill="#0BACC6"/>
<path d="M2.04409 8.83984H0C0.0785476 10.8589 0.875992 12.7834 2.2485 14.2662L3.69299 12.8217C2.70228 11.7232 2.12001 10.3171 2.04409 8.83984Z" fill="#0BACC6"/>
<path d="M14.9563 8.83984C14.8796 10.3175 14.2964 11.7236 13.3047 12.8217L14.7492 14.2662C16.1217 12.7834 16.9191 10.8589 16.9977 8.83984H14.9563Z" fill="#0BACC6"/>
<path d="M2.04332 8.15879C2.11999 6.68116 2.70324 5.27501 3.69494 4.17691L2.25045 2.73242C0.877945 4.21527 0.0805007 6.13977 0.00195312 8.15879H2.04332Z" fill="#0BACC6"/>
<path d="M12.8217 13.3047C11.7236 14.2964 10.3175 14.8796 8.83984 14.9563V17.0004C10.8589 16.9219 12.7834 16.1244 14.2662 14.7519L12.8217 13.3047Z" fill="#0BACC6"/>
<path d="M13.3047 4.17691C14.2964 5.27501 14.8796 6.68116 14.9563 8.15879H17.0004C16.9219 6.13977 16.1244 4.21527 14.7519 2.73242L13.3047 4.17691Z" fill="#0BACC6"/>
<path d="M4.17691 3.69571C5.27501 2.70401 6.68116 2.12077 8.15879 2.04409V0C6.13977 0.0785476 4.21527 0.875992 2.73242 2.2485L4.17691 3.69571Z" fill="#0BACC6"/>
<path d="M8.15879 14.9563C6.68116 14.8796 5.27501 14.2964 4.17691 13.3047L2.73242 14.7492C4.21527 16.1217 6.13977 16.9191 8.15879 16.9977V14.9563Z" fill="#0BACC6"/>
</svg>
