<svg width="16" height="16" viewBox="0 0 16 16" fill="none" xmlns="http://www.w3.org/2000/svg">
<path d="M3.58031 15.9636C3.6251 15.9828 3.67311 15.9956 3.71791 15.9956C3.80112 15.9956 3.8843 15.9604 3.9451 15.8996L4.61071 15.234C4.02831 14.7892 3.65391 14.0884 3.65391 13.3012C3.65391 11.9572 4.74831 10.8628 6.09233 10.8628C6.87955 10.8628 7.58035 11.2372 8.02514 11.8196L11.67 8.17474C11.7276 8.11712 11.7628 8.03394 11.7628 7.95073C11.7628 7.86432 11.7276 7.78432 11.67 7.72352C11.4556 7.50912 11.3372 7.22432 11.3372 6.92351C11.3372 6.61951 11.4556 6.3379 11.67 6.12351L14.4924 3.30107L12.6972 1.50586L9.87477 4.32829C9.43317 4.7699 8.71316 4.7699 8.28435 4.33788C8.22354 4.2739 8.14036 4.23229 8.05395 4.23229C7.97075 4.22909 7.88116 4.26108 7.81715 4.32509L0.0922685 12.05C-0.000525461 12.146 -0.0261312 12.29 0.0282639 12.4116C0.761084 13.97 2.02508 15.2308 3.58031 15.9636Z" fill="#0BACC6"/>
<path d="M15.907 1.88642C16.0318 1.75841 16.0318 1.5568 15.907 1.43202L14.563 0.0912021C14.4446 -0.0304007 14.2302 -0.0304007 14.1118 0.0912021L13.1504 1.05258L14.9456 2.84779L15.907 1.88642Z" fill="#0BACC6"/>
<path d="M6.09233 15.0993C7.08557 15.0993 7.89075 14.2941 7.89075 13.3009C7.89075 12.3076 7.08557 11.5024 6.09233 11.5024C5.09909 11.5024 4.29391 12.3076 4.29391 13.3009C4.29391 14.2941 5.09909 15.0993 6.09233 15.0993Z" fill="#0BACC6"/>
</svg>
