<svg width="16" height="15" viewBox="0 0 16 15" fill="none" xmlns="http://www.w3.org/2000/svg">
<path d="M6.41132 7L7 6.41147L6.57711 6L6 6.57722L6.41132 7Z" fill="#0BACC6"/>
<path d="M6 2.11715C5.99982 1.7973 5.90639 1.48602 5.73357 1.22949C5.56074 0.972967 5.31772 0.784855 5.04056 0.693058L3.05949 0.0360391C2.98942 0.0123967 2.91659 0.000254204 2.84333 0H2.74002C2.56191 0.000647505 2.3898 0.0711278 2.25429 0.1989C2.11878 0.326671 2.02867 0.503447 2 0.697771L6 5V2.11715Z" fill="#0BACC6"/>
<path d="M1.19779 14.6703L1 15L1.32966 14.8022L2 14.1316C1.95346 14.0905 1.9095 14.0465 1.86836 14L1.19779 14.6703Z" fill="#0BACC6"/>
<path d="M2.00001 12.7109C1.99989 12.9438 2.06291 13.1723 2.18236 13.3722C2.30181 13.5721 2.47323 13.736 2.67838 13.8463C2.88354 13.9566 3.11477 14.0092 3.34748 13.9987C3.58019 13.9881 3.80569 13.9147 4 13.7863L2.21295 12C2.07332 12.2108 1.99923 12.4582 2.00001 12.7109V12.7109Z" fill="#0BACC6"/>
<path d="M1.06509 5.60556C1.20284 5.73098 1.36673 5.83043 1.54728 5.89813C1.72782 5.96584 1.92143 6.00046 2.11688 6H5L0.697772 2C0.503401 2.02868 0.326589 2.11882 0.198811 2.25437C0.0710337 2.38992 0.000583129 2.56209 1.14864e-06 2.74022V2.84378C-0.000134414 2.91709 0.01173 2.99001 0.0352085 3.06018L0.69195 5.04112C0.763012 5.2542 0.891193 5.4481 1.06509 5.60556Z" fill="#0BACC6"/>
<path d="M13.2602 0H13.1566C13.0835 7.12021e-05 13.0107 0.0119311 12.9407 0.0352054L10.9595 0.692188C10.6822 0.784021 10.4391 0.972248 10.2662 1.22893C10.0934 1.48561 10 1.79705 10 2.11704V5L14 0.697732C13.9713 0.503466 13.8813 0.326737 13.7458 0.198978C13.6103 0.071219 13.4383 0.000712961 13.2602 0V0Z" fill="#0BACC6"/>
<path d="M10.578 6L15.9464 0.482813C15.9809 0.447512 16.0002 0.399997 16 0.350576V0.189639C16 0.16469 15.9951 0.139987 15.9855 0.116944C15.9759 0.0939011 15.9619 0.0729718 15.9443 0.0553553C15.9266 0.0377388 15.9056 0.0237814 15.8826 0.0142828C15.8595 0.00478427 15.8348 -6.87385e-05 15.8098 1.83785e-06H15.6489C15.5995 -0.000216682 15.552 0.019059 15.5167 0.0536475L10 5.42197L10.578 6Z" fill="#0BACC6"/>
<path d="M10 6.57695L9.42278 6L9 6.41147L9.58853 7L10 6.57695Z" fill="#0BACC6"/>
<path d="M9 7.76728L8.24057 7L8 7.23643L8.77611 8L9 7.76728Z" fill="#0BACC6"/>
<path d="M5.42202 6L6 5.42199L0.483306 0.0536482C0.447876 0.0189301 0.400147 -0.000355267 0.350545 4.95709e-06H0.189622C0.139401 9.79026e-05 0.0912316 0.0199445 0.0555201 0.0552575C0.0378296 0.072808 0.0238098 0.0937047 0.014278 0.116729C0.0047462 0.139754 -0.000106853 0.164446 1.78434e-06 0.189366V0.350295C-0.000146107 0.399622 0.0191226 0.447025 0.0536427 0.482258L5.42202 6Z" fill="#0BACC6"/>
<path d="M13.7853 12L12 13.7854C12.2477 13.9497 12.5447 14.0232 12.8404 13.9936C13.1362 13.9639 13.4126 13.8329 13.6228 13.6227C13.833 13.4125 13.964 13.1361 13.9936 12.8403C14.0232 12.5446 13.9496 12.2477 13.7853 12V12Z" fill="#0BACC6"/>
<path d="M14.1316 14C14.0905 14.0465 14.0465 14.0905 14 14.1316L14.6703 14.8022L15 15L14.8013 14.6703L14.1316 14Z" fill="#0BACC6"/>
<path d="M15.302 2L11 5.99999H13.8828C14.0782 6.0005 14.2718 5.96591 14.4523 5.89825C14.6328 5.83058 14.7967 5.73119 14.9345 5.60581C15.1082 5.44815 15.2362 5.25408 15.307 5.04087L15.964 3.05993C15.9875 2.98984 15.9997 2.91703 16 2.84378V2.74022C15.9994 2.56205 15.9289 2.38985 15.8011 2.2543C15.6733 2.11874 15.4964 2.02863 15.302 2V2Z" fill="#0BACC6"/>
<path d="M13.0953 11L11 13.0956L11.5883 14L14 11.588L13.0953 11Z" fill="#0BACC6"/>
<path d="M6 9.28851L6.71466 10L8 8.68515L7.33046 8L6 9.28851Z" fill="#0BACC6"/>
<path d="M2 11.5881L4.4116 14L5 13.0958L2.90444 11L2 11.5881Z" fill="#0BACC6"/>
<path d="M3 11.2847L4.71513 13L6 10.9444L5.05573 10L3 11.2847Z" fill="#0BACC6"/>
<path d="M7.52499 7L7 7.52499L9.40812 10L10 9.40812L7.52499 7Z" fill="#0BACC6"/>
<path d="M10.9444 10L10 10.9444L11.2847 13L13 11.2847L10.9444 10Z" fill="#0BACC6"/>
</svg>
