<svg width="18" height="12" viewBox="0 0 18 12" fill="none" xmlns="http://www.w3.org/2000/svg">
<path d="M16.72 10.6501C16.7904 10.6501 16.858 10.623 16.9078 10.5748C16.9576 10.5266 16.9856 10.4612 16.9856 10.3931V9.06263C16.9844 8.40309 16.7131 7.77089 16.2312 7.30452C15.7492 6.83816 15.0959 6.57565 14.4144 6.57451H12.4056L10.9281 5.14686V0.257019C10.9284 0.223369 10.9218 0.189996 10.9087 0.158826C10.8956 0.127655 10.8762 0.0993037 10.8517 0.0754086C10.8272 0.0515135 10.7981 0.0325476 10.766 0.0196049C10.7339 0.00666216 10.6995 -1.20824e-06 10.6647 1.6433e-10H5.26116C5.19149 0.00113317 5.12508 0.0287117 5.07623 0.0767899C5.02738 0.124868 5.00001 0.189595 5.00002 0.257019V10.3931C4.99937 10.4449 5.01578 10.4956 5.04689 10.5378C5.05685 10.551 5.06806 10.5633 5.08037 10.5745C5.1039 10.5992 5.1326 10.6187 5.16455 10.6317C5.1965 10.6447 5.23096 10.651 5.26562 10.6501H6.38159V11.486H5.26562C5.19518 11.486 5.12762 11.513 5.07781 11.5612C5.028 11.6094 5.00002 11.6748 5.00002 11.743C5.00002 11.8111 5.028 11.8765 5.07781 11.9247C5.12762 11.9729 5.19518 12 5.26562 12H15.7134C16.1239 12.001 16.5305 11.9232 16.9098 11.7712C17.289 11.6192 17.6334 11.396 17.923 11.1145C17.9476 11.0904 17.9671 11.0618 17.9803 11.0304C17.9935 10.999 18.0002 10.9654 18 10.9315C17.9998 10.8976 17.9927 10.8641 17.9791 10.8329C17.9655 10.8016 17.9457 10.7733 17.9208 10.7495C17.8958 10.7256 17.8663 10.7068 17.8339 10.694C17.8014 10.6812 17.7667 10.6747 17.7317 10.6749C17.6967 10.6751 17.662 10.682 17.6297 10.6952C17.5975 10.7083 17.5682 10.7275 17.5436 10.7516C17.3034 10.9845 17.0181 11.1692 16.7041 11.2952C16.39 11.4212 16.0533 11.4861 15.7134 11.486H15.0929V10.6501H16.72ZM8.84343 4.02592C8.77299 4.02592 8.70543 3.99884 8.65562 3.95064C8.60581 3.90244 8.57783 3.83706 8.57783 3.7689C8.57783 3.70073 8.60581 3.63536 8.65562 3.58716C8.70543 3.53896 8.77299 3.51188 8.84343 3.51188H10.3902V4.02592H8.84343ZM10.3902 4.62419V5.13607H8.84343C8.77299 5.13607 8.70543 5.10899 8.65562 5.06079C8.60581 5.01259 8.57783 4.94721 8.57783 4.87905C8.57783 4.81088 8.60581 4.74551 8.65562 4.69731C8.70543 4.64911 8.77299 4.62203 8.84343 4.62203L10.3902 4.62419ZM8.84343 2.91145C8.77299 2.91145 8.70543 2.88437 8.65562 2.83617C8.60581 2.78797 8.57783 2.72259 8.57783 2.65443C8.57783 2.58626 8.60581 2.52089 8.65562 2.47269C8.70543 2.42449 8.77299 2.39741 8.84343 2.39741H10.3902V2.91145H8.84343ZM10.3902 1.13823H10.2875V1.60475H5.73656V1.09287H10.3902V1.13823ZM14.5617 11.486H6.9128V10.6501H14.5617V11.486ZM5.52676 9.78617V9.26997H16.4633V9.78617H5.52676Z" fill="#0BACC6"/>
<path d="M2.35471 6.99999H4.7019C4.78096 6.99999 4.85679 6.96936 4.91269 6.91483C4.96859 6.8603 5 6.78634 5 6.70922C5 6.6321 4.96859 6.55814 4.91269 6.50361C4.85679 6.44908 4.78096 6.41844 4.7019 6.41844H2.35471C1.88965 6.41844 1.44364 6.23824 1.11479 5.91747C0.785946 5.5967 0.601202 5.16164 0.601202 4.708C0.601202 4.56007 0.631072 4.41359 0.689107 4.27693C0.747142 4.14026 0.832204 4.01608 0.939438 3.91148C1.04667 3.80688 1.17398 3.72391 1.31409 3.6673C1.45419 3.61069 1.60436 3.58155 1.75601 3.58155C1.90766 3.58155 2.05783 3.61069 2.19794 3.6673C2.33805 3.72391 2.46535 3.80688 2.57259 3.91148C2.67982 4.01608 2.76488 4.14026 2.82292 4.27693C2.88095 4.41359 2.91082 4.56007 2.91082 4.708V4.99389C2.91082 5.03207 2.91853 5.06989 2.93351 5.10516C2.94849 5.14044 2.97045 5.1725 2.99813 5.1995C3.02581 5.2265 3.05867 5.24792 3.09484 5.26253C3.13101 5.27714 3.16977 5.28466 3.20892 5.28466C3.24806 5.28466 3.28683 5.27714 3.32299 5.26253C3.35916 5.24792 3.39202 5.2265 3.4197 5.1995C3.44738 5.1725 3.46934 5.14044 3.48432 5.10516C3.4993 5.06989 3.50701 5.03207 3.50701 4.99389V4.71044C3.50701 4.25681 3.32227 3.82175 2.99342 3.50098C2.66458 3.18021 2.21857 3 1.75351 3C1.28845 3 0.842437 3.18021 0.51359 3.50098C0.184744 3.82175 0 4.25681 0 4.71044C0.000328486 5.01164 0.0615137 5.30982 0.180058 5.58793C0.298602 5.86605 0.472179 6.11864 0.690867 6.33128C0.909555 6.54392 1.16906 6.71242 1.45456 6.82717C1.74005 6.94191 2.04593 7.00064 2.35471 6.99999V6.99999Z" fill="#0BACC6"/>
<path d="M2.23835 8.51183H4.68309C4.76714 8.51183 4.84775 8.48487 4.90718 8.43687C4.96661 8.38888 5 8.32379 5 8.25591C5 8.18804 4.96661 8.12295 4.90718 8.07496C4.84775 8.02696 4.76714 8 4.68309 8H2.23835C1.90992 8 1.59494 8.10536 1.3627 8.29289C1.13047 8.48043 1 8.73478 1 9C1 9.26522 1.13047 9.51957 1.3627 9.70711C1.59494 9.89464 1.90992 10 2.23835 10H2.58455C2.6686 10 2.74921 9.97304 2.80864 9.92504C2.86808 9.87705 2.90146 9.81196 2.90146 9.74409C2.90146 9.67621 2.86808 9.61112 2.80864 9.56313C2.74921 9.51513 2.6686 9.48817 2.58455 9.48817H2.23835C2.07802 9.48817 1.92425 9.43674 1.81088 9.34519C1.69751 9.25364 1.63382 9.12947 1.63382 9C1.63382 8.87053 1.69751 8.74636 1.81088 8.65481C1.92425 8.56326 2.07802 8.51183 2.23835 8.51183V8.51183Z" fill="#0BACC6"/>
<path d="M0.272062 8H4.72794C4.80009 8 4.86929 7.94732 4.92032 7.85355C4.97134 7.75979 5 7.63261 5 7.5C5 7.36739 4.97134 7.24021 4.92032 7.14645C4.86929 7.05268 4.80009 7 4.72794 7H0.272062C0.199907 7 0.130707 7.05268 0.079685 7.14645C0.0286635 7.24021 0 7.36739 0 7.5C0 7.63261 0.0286635 7.75979 0.079685 7.85355C0.130707 7.94732 0.199907 8 0.272062 8V8Z" fill="#0BACC6"/>
</svg>
