<svg width="17" height="11" viewBox="0 0 17 11" fill="none" xmlns="http://www.w3.org/2000/svg">
<path d="M14.3014 8.79823C14.3014 8.89546 14.2628 8.98871 14.1941 9.05745C14.1253 9.1262 14.0321 9.16483 13.9348 9.16483C13.8376 9.16483 13.7444 9.1262 13.6756 9.05745C13.6069 8.98871 13.5682 8.89546 13.5682 8.79823C13.5682 8.70101 13.6069 8.60776 13.6756 8.53901C13.7444 8.47026 13.8376 8.43164 13.9348 8.43164C14.0321 8.43164 14.1253 8.47026 14.1941 8.53901C14.2628 8.60776 14.3014 8.70101 14.3014 8.79823Z" fill="#0BACC6"/>
<path d="M16.1344 8.7983C16.1348 9.18769 16.0318 9.57021 15.836 9.90677C15.6401 10.2433 15.3584 10.5219 15.0197 10.7139C14.6809 10.906 14.2973 11.0047 13.9079 10.9999C13.5186 10.9951 13.1374 10.8871 12.8035 10.6868C12.4696 10.4865 12.1948 10.2012 12.0072 9.8599C11.8197 9.51865 11.7261 9.13372 11.736 8.74445C11.7459 8.35518 11.859 7.97553 12.0637 7.64427C12.2684 7.31301 12.5574 7.04203 12.9011 6.85902L13.2677 7.9368C13.0637 8.09696 12.9228 8.32406 12.87 8.57798C12.8173 8.8319 12.8559 9.09631 12.9792 9.3245C13.1024 9.55269 13.3024 9.72998 13.5437 9.82505C13.785 9.92012 14.0521 9.92685 14.2979 9.84406C14.5437 9.76127 14.7523 9.59429 14.8869 9.3726C15.0215 9.15091 15.0734 8.88878 15.0335 8.63252C14.9936 8.37626 14.8643 8.14236 14.6687 7.97212C14.473 7.80189 14.2235 7.70628 13.9642 7.70218L13.5976 6.62806C13.9109 6.57944 14.2311 6.59914 14.5361 6.68582C14.8411 6.77249 15.1238 6.92409 15.3647 7.13022C15.6057 7.33635 15.7992 7.59214 15.932 7.88005C16.0649 8.16797 16.1339 8.48121 16.1344 8.7983V8.7983Z" fill="#0BACC6"/>
<path d="M16.028 4.0691C15.8961 4.46869 15.9144 4.39904 15.7678 4.39904C15.6232 4.39843 15.482 4.3551 15.362 4.2745C15.242 4.19389 15.1485 4.07961 15.0933 3.94602C15.0381 3.81242 15.0235 3.66548 15.0516 3.52366C15.0796 3.38184 15.149 3.25148 15.2509 3.14895C15.4892 2.91067 15.7018 2.93266 16.083 2.93266C16.1665 3.3096 16.1475 3.70199 16.028 4.0691Z" fill="#0BACC6"/>
<path d="M11.4127 2.74944C11.3671 3.02266 11.2577 3.28126 11.0934 3.50422C10.929 3.72717 10.7144 3.90818 10.4669 4.03252L8.23431 5.1323L7.33615 3.58161C7.35744 3.30478 7.48264 3.04625 7.68662 2.8579C7.89061 2.66955 8.15829 2.56533 8.43593 2.56614C10.8518 2.56614 11.0021 2.50382 11.4127 2.74944Z" fill="#0BACC6"/>
<path d="M15.7935 2.19956C15.2179 1.25375 13.2273 0 10.9215 0L11.629 0.887156C11.8612 1.17743 12.0255 1.51596 12.1099 1.87795C12.1944 2.23995 12.1968 2.61624 12.117 2.97929C12.0372 3.34234 11.8773 3.68295 11.6489 3.97619C11.4204 4.26943 11.1293 4.50787 10.7968 4.67407C10.6978 4.72172 6.96958 6.59868 6.8596 6.59868H5.5032V9.89802H11.0021V8.79824C11.002 8.02986 11.3034 7.29212 11.8416 6.74368C12.3797 6.19523 13.1116 5.8799 13.8799 5.86549C14.734 5.4989 15.0346 5.41092 15.4012 5.07732C15.0608 4.98139 14.7666 4.76567 14.5727 4.46992C14.3788 4.17416 14.2983 3.81829 14.3461 3.46788C14.3938 3.11747 14.5666 2.79612 14.8326 2.56305C15.0986 2.32998 15.4398 2.20089 15.7935 2.19956ZM7.33617 9.16483H6.60298C6.50576 9.16483 6.41251 9.12621 6.34376 9.05746C6.27501 8.98871 6.23639 8.89547 6.23639 8.79824C6.23639 8.70101 6.27501 8.60777 6.34376 8.53902C6.41251 8.47027 6.50576 8.43165 6.60298 8.43165H7.33617C7.4334 8.43165 7.52664 8.47027 7.59539 8.53902C7.66414 8.60777 7.70276 8.70101 7.70276 8.79824C7.70276 8.89547 7.66414 8.98871 7.59539 9.05746C7.52664 9.12621 7.4334 9.16483 7.33617 9.16483Z" fill="#0BACC6"/>
<path d="M4.77 7.49316V9.16483H2.20384C2.10662 9.16483 2.01337 9.12621 1.94462 9.05746C1.87587 8.98871 1.83725 8.89546 1.83725 8.79824C1.83725 8.70101 1.87587 8.60776 1.94462 8.53902C2.01337 8.47027 2.10662 8.43164 2.20384 8.43164C2.31382 8.43164 2.14885 8.4793 4.77 7.49316Z" fill="#0BACC6"/>
<path d="M6.96959 4.39931C5.56187 4.39931 5.16595 4.52028 4.87634 4.03271H6.76063L6.96959 4.39931Z" fill="#0BACC6"/>
<path d="M7.57446 5.46578L6.77162 5.86536H5.20993L0.00430298 3.6658V2.93262H2.87473C4.21646 4.09838 4.01483 3.92975 4.06616 3.96274C4.13451 4.29328 4.31479 4.59012 4.57659 4.80317C4.83839 5.01621 5.16567 5.13242 5.5032 5.13218H7.38749L7.57446 5.46578Z" fill="#0BACC6"/>
<path d="M4.1028 9.89787C3.87583 10.2897 3.53346 10.6019 3.12245 10.7918C2.71144 10.9818 2.25181 11.0403 1.80631 10.9594C1.36081 10.8784 0.951153 10.662 0.633256 10.3395C0.315358 10.0171 0.104716 9.60441 0.030085 9.1578C-0.0445462 8.7112 0.0204708 8.25245 0.21626 7.84417C0.412049 7.4359 0.729069 7.09799 1.12404 6.87659C1.51902 6.65518 1.97269 6.56107 2.42314 6.6071C2.87359 6.65312 3.29886 6.83704 3.6409 7.13375L2.1122 7.69831C1.83669 7.72135 1.57996 7.84731 1.39314 8.05111C1.20632 8.25492 1.10311 8.52161 1.10407 8.79809C1.10407 9.08977 1.21994 9.3695 1.42619 9.57575C1.63244 9.782 1.91217 9.89787 2.20385 9.89787H4.1028Z" fill="#0BACC6"/>
</svg>
