<svg width="20" height="20" viewBox="0 0 20 20" fill="none" xmlns="http://www.w3.org/2000/svg">
<path d="M10 2C5.5871 2 2 5.5871 2 10C2 14.4129 5.5871 18 10 18C14.4129 18 18 14.4129 18 10C18 5.5871 14.4129 2 10 2ZM2.12903 11.2903V8.70968C2.83871 8.70968 3.41935 9.29032 3.41935 10C3.41935 10.7097 2.83871 11.2903 2.12903 11.2903ZM7.80645 14.0129C7.30323 14.5161 6.49032 14.5161 5.9871 14.0129C5.48387 13.5097 5.48387 12.6968 5.9871 12.1935C6.49032 11.6903 7.30323 11.6903 7.80645 12.1935C8.30968 12.6968 8.30968 13.5097 7.80645 14.0129ZM7.80645 7.80645C7.30323 8.30968 6.49032 8.30968 5.9871 7.80645C5.48387 7.30323 5.48387 6.49032 5.9871 5.9871C6.49032 5.48387 7.30323 5.48387 7.80645 5.9871C8.30968 6.49032 8.30968 7.30323 7.80645 7.80645ZM8.70968 17.871C8.70968 17.1613 9.29032 16.5806 10 16.5806C10.7097 16.5806 11.2903 17.1613 11.2903 17.871H8.70968ZM10 11.2903C9.29032 11.2903 8.70968 10.7097 8.70968 10C8.70968 9.29032 9.29032 8.70968 10 8.70968C10.7097 8.70968 11.2903 9.29032 11.2903 10C11.2903 10.7097 10.7097 11.2903 10 11.2903ZM10 3.41935C9.29032 3.41935 8.70968 2.83871 8.70968 2.12903H11.2903C11.2903 2.83871 10.7097 3.41935 10 3.41935ZM14.0129 14.0129C13.5097 14.5161 12.6968 14.5161 12.1935 14.0129C11.6903 13.5097 11.6903 12.6968 12.1935 12.1935C12.6968 11.6903 13.5097 11.6903 14.0129 12.1935C14.5161 12.6968 14.5161 13.5097 14.0129 14.0129ZM14.0129 7.80645C13.5097 8.30968 12.6968 8.30968 12.1935 7.80645C11.6903 7.30323 11.6903 6.49032 12.1935 5.9871C12.6968 5.48387 13.5097 5.48387 14.0129 5.9871C14.5161 6.49032 14.5161 7.30323 14.0129 7.80645ZM16.5806 10C16.5806 9.29032 17.1613 8.70968 17.871 8.70968V11.2903C17.1613 11.2903 16.5806 10.7097 16.5806 10Z" fill="#0BACC6"/>
<path d="M10 18C14.4183 18 18 14.4183 18 10C18 5.58172 14.4183 2 10 2C5.58172 2 2 5.58172 2 10C2 14.4183 5.58172 18 10 18Z" stroke="#0BACC6" stroke-width="4" stroke-miterlimit="10" stroke-linecap="round" stroke-linejoin="round"/>
</svg>
