<svg width="16" height="17" viewBox="0 0 16 17" fill="none" xmlns="http://www.w3.org/2000/svg">
<path d="M11.8448 5.66507L10.6559 4.40048L14.1719 0.660504C11.6846 -0.926967 7.29175 0.40041 3.84327 4.06863C0.394789 7.73686 -0.895231 12.4096 0.639302 15.0554L4.34916 11.1091L5.538 12.3737L1.82814 16.32C4.35759 17.9523 8.70825 16.5801 12.1567 12.9118C15.6052 9.24361 16.8952 4.57088 15.3607 1.9251L11.8448 5.66507ZM6.9292 12.0688L4.6274 9.62927L5.82467 8.3557L8.11804 10.7952L6.9292 12.0688ZM8.54805 10.3468L6.25468 7.90726L7.45195 6.6337L9.74532 9.0732L8.54805 10.3468ZM10.1669 8.62476L7.87353 6.18526L9.0708 4.9117L11.3726 7.3512L10.1669 8.62476Z" fill="#0BACC6"/>
</svg>
