<svg width="16" height="17" viewBox="0 0 16 17" fill="none" xmlns="http://www.w3.org/2000/svg">
<path d="M11.6163 0.406951C11.42 0.404754 11.2306 0.42014 11.0373 0.426732C10.9552 0.749871 10.9067 1.08679 10.9067 1.43614C10.9067 3.69047 12.7217 5.5055 14.976 5.5055C15.3283 5.5055 15.6678 5.4561 15.9934 5.3726C16.0333 4.0742 15.8935 2.70777 15.5404 1.29526L15.4552 0.956917L15.1168 0.871693C13.9127 0.570657 12.7403 0.420426 11.6163 0.407286L11.6163 0.406951ZM9.83031 0.519465C7.21107 0.845132 4.92802 1.94169 3.22895 3.64077C1.52871 5.34099 0.421205 7.6217 0.0963077 10.2432C0.397958 10.189 0.706989 10.1558 1.02395 10.1558C3.90664 10.1558 6.25599 12.5052 6.25599 15.3879C6.25599 15.7048 6.22296 16.0138 6.16856 16.3155C8.7901 15.9906 11.0708 14.8831 12.7711 13.1828C14.4713 11.4826 15.5788 9.2019 15.9037 6.58035C15.602 6.63485 15.293 6.66779 14.9761 6.66779C12.0934 6.66779 9.74402 4.31844 9.74402 1.43574C9.74402 1.12269 9.77721 0.817623 9.8303 0.519465H9.83031ZM8.99236 5.09413L11.3177 7.41945L10.4957 8.24152L9.74401 7.48986L8.82205 8.41183L9.5737 9.16349L8.75165 9.98549L8 9.23383L7.07803 10.1558L7.82969 10.9075L7.00764 11.7295L4.68229 9.40414L5.50434 8.58215L6.25599 9.33381L7.17795 8.41183L6.4263 7.66017L7.24835 6.83811L8 7.58977L8.92197 6.66779L8.17031 5.91613L8.99236 5.09413ZM1.02395 11.3185C0.67171 11.3185 0.33215 11.368 0.00660877 11.4515C-0.0333294 12.7499 0.106519 14.1162 0.459644 15.5287L0.5448 15.8671L0.883156 15.9521C2.29565 16.3052 3.66205 16.4451 4.96047 16.4052C5.04385 16.0796 5.09331 15.7401 5.09331 15.3879C5.09331 13.1335 3.27828 11.3185 1.02394 11.3185H1.02395Z" fill="#0BACC6"/>
</svg>
