<svg width="17" height="17" viewBox="0 0 17 17" fill="none" xmlns="http://www.w3.org/2000/svg">
<path d="M10.8754 15.0298C10.9268 15.1327 11.0041 15.1842 11.107 15.1842C11.1327 15.1842 11.1842 15.1842 11.2099 15.1585C11.8791 14.9011 12.4968 14.5151 13.0372 14.0776C13.1402 13.9746 13.1659 13.8202 13.063 13.7172C12.96 13.6143 12.8056 13.5886 12.7026 13.6915C12.1879 14.1033 11.6217 14.4636 11.0041 14.6952C10.8754 14.7467 10.8239 14.9011 10.8754 15.0298Z" fill="#0BACC6"/>
<path d="M11.6221 2.57375C12.2141 2.88258 12.7545 3.29436 13.2178 3.75761C13.2692 3.80908 13.3465 3.83482 13.3979 3.83482C13.4494 3.83482 13.5266 3.80908 13.5781 3.75761C13.681 3.65466 13.681 3.50025 13.5781 3.3973C13.0634 2.88258 12.4972 2.44506 11.8538 2.11049C11.7251 2.03329 11.5707 2.08476 11.4935 2.21344C11.4162 2.34212 11.4935 2.49654 11.6221 2.57375Z" fill="#0BACC6"/>
<path d="M16.2541 5.07002C16.2541 5.04429 16.2541 5.04429 16.2541 5.07002C16.2284 5.04429 16.2284 5.04429 16.2541 5.07002C15.8424 4.11779 15.2504 3.24276 14.5041 2.49641C12.8827 0.875029 10.7466 0 8.48182 0C6.21704 0 4.08094 0.875029 2.48529 2.49641C1.53306 3.44865 0.863916 4.58104 0.452138 5.7649C0.452138 5.79064 0.452138 5.79064 0.426401 5.81637C-0.268475 7.92674 -0.114058 10.2687 0.889652 12.3019C1.27569 13.0997 1.81615 13.8461 2.48529 14.4895C4.08094 16.1108 6.21704 16.9859 8.48182 16.9859C10.7466 16.9859 12.8827 16.1108 14.4783 14.4895C15.5078 13.46 16.2027 12.2504 16.5887 10.9379V10.9121C17.1806 9.00766 17.052 6.92303 16.2541 5.07002ZM15.0703 7.33481C15.0445 7.20613 15.1475 7.05171 15.2762 7.02597C15.4048 7.00024 15.5593 7.10318 15.585 7.23186C15.7394 8.13263 15.7137 9.05913 15.5335 9.98563C15.5078 10.1143 15.4048 10.1915 15.2762 10.1915C15.2504 10.1915 15.2504 10.1915 15.2247 10.1915C15.096 10.1658 14.9931 10.0371 15.0188 9.88269C15.199 9.05913 15.199 8.1841 15.0703 7.33481ZM11.4157 1.08092C12.4195 1.46696 13.346 2.08463 14.118 2.85671C14.7614 3.50012 15.2762 4.24647 15.6622 5.01855L6.34572 9.08487C6.26851 8.90471 6.13983 8.7503 5.98541 8.59588C5.831 8.44146 5.67658 8.33852 5.49643 8.23557C6.78323 5.22444 8.76492 2.80524 11.4157 1.08092ZM2.8456 2.85671C3.07723 2.62509 3.30885 2.4192 3.56621 2.21331C2.79413 3.93763 2.79413 5.91932 3.54048 8.33852C3.43753 8.41573 3.33459 8.49293 3.23164 8.59588C3.15443 8.67309 3.07723 8.77603 3.00002 8.87898C1.79042 8.26131 1.12128 7.28333 0.941125 5.91932C1.32717 4.78693 1.97057 3.73174 2.8456 2.85671ZM2.8456 14.1292C2.27941 13.563 1.79042 12.8938 1.43011 12.2247C1.79042 11.607 2.27941 11.221 2.97428 11.0408C3.05149 11.1438 3.1287 11.2467 3.23164 11.3496C3.38606 11.5041 3.59195 11.6585 3.79784 11.7357C3.82357 13.3313 4.23535 14.6439 5.03317 15.6733C4.20962 15.2873 3.489 14.7726 2.8456 14.1292ZM4.59566 11.4011C4.20962 11.4011 3.84931 11.2467 3.56621 10.9893C3.00002 10.4231 3.00002 9.52238 3.56621 8.95618C3.84931 8.67309 4.20962 8.54441 4.59566 8.54441C4.9817 8.54441 5.34201 8.69882 5.62511 8.95618C6.1913 9.52238 6.1913 10.4231 5.62511 10.9893C5.34201 11.2724 4.9817 11.4011 4.59566 11.4011ZM14.118 14.1292C13.3974 14.8498 12.5481 15.416 11.6216 15.8277C8.81639 15.416 6.80897 13.9747 5.70231 11.5813C5.80526 11.5041 5.9082 11.4269 5.98541 11.3496C6.11409 11.221 6.21704 11.0923 6.29425 10.9636C8.09578 11.7872 9.87157 12.1989 11.5959 12.1989C13.0629 12.1989 14.5041 11.9158 15.9453 11.3239C15.5593 12.3534 14.9416 13.3056 14.118 14.1292Z" fill="#0BACC6"/>
</svg>
