<svg width="16" height="16" viewBox="0 0 16 16" fill="none" xmlns="http://www.w3.org/2000/svg">
<path d="M15.9714 8.62528C15.9714 8.65386 15.9714 8.68245 15.9714 8.68245C15.9429 8.88254 15.9143 9.08263 15.8857 9.28272C15.8857 9.3113 15.8857 9.33988 15.8571 9.36847C15.8286 9.56856 15.7714 9.74006 15.7429 9.94015C15.7429 9.96874 15.7143 9.99732 15.7143 10.0545C15.6571 10.2546 15.6 10.4261 15.5429 10.6262V10.6548C14.3714 10.3117 13.5143 9.22555 13.5143 7.96784C13.5143 6.71014 14.3429 5.62394 15.5429 5.28093V5.30951C15.6 5.5096 15.6571 5.68111 15.7143 5.8812C15.7143 5.90978 15.7429 5.93837 15.7429 5.96695C15.8 6.16704 15.8286 6.33854 15.8571 6.53863C15.8571 6.56722 15.8571 6.5958 15.8857 6.62439C15.9143 6.82448 15.9429 7.02456 15.9714 7.22465C15.9714 7.25324 15.9714 7.28182 15.9714 7.28182C16 7.56766 16 7.76775 16 7.99643C16 8.2251 16 8.42519 15.9714 8.62528ZM15.3143 4.76641C14 5.16659 13.0571 6.33854 12.9429 7.71059H11.3714C11.2286 6.08129 9.94286 4.795 8.31429 4.65208V3.07995C9.68571 2.96561 10.8571 2.02233 11.2571 0.707459C13.0571 1.47923 14.5143 2.93703 15.3143 4.76641ZM10.6286 15.5427C10.4571 15.5998 10.2571 15.657 10.0857 15.7142C10.0571 15.7142 10 15.7427 9.97143 15.7427C9.8 15.7999 9.6 15.8285 9.42857 15.8571C9.4 15.8571 9.34286 15.8571 9.31429 15.8857C9.11429 15.9142 8.94286 15.9428 8.74286 15.9714C8.71429 15.9714 8.68571 15.9714 8.65714 15.9714C8.45714 16 8.25714 16 8.08571 16C8.05714 16 8.05714 16 8.02857 16C7.82857 16 7.62857 16 7.45714 15.9714C7.42857 15.9714 7.4 15.9714 7.37143 15.9714C7.17143 15.9428 7 15.9428 6.8 15.8857C6.77143 15.8857 6.71429 15.8857 6.68571 15.8571C6.48571 15.8285 6.31429 15.7713 6.14286 15.7427C6.11429 15.7427 6.05714 15.7142 6.02857 15.7142C5.82857 15.657 5.65714 15.5998 5.48571 15.5427H5.45714C5.8 14.3421 6.88571 13.5132 8.14286 13.5132C9.4 13.5132 10.4857 14.3421 10.8286 15.5427C10.6571 15.5427 10.6571 15.5427 10.6286 15.5427ZM8 10.7691C6.45714 10.7691 5.22857 9.51139 5.22857 7.99643C5.22857 6.48147 6.48571 5.22376 8 5.22376C9.51429 5.22376 10.7714 6.48147 10.7714 7.99643C10.7714 9.51139 9.54286 10.7691 8 10.7691ZM5.37143 0.450201C5.57143 0.393033 5.74286 0.335864 5.94286 0.278696C5.97143 0.278696 6 0.278696 6 0.250112C6.2 0.192943 6.42857 0.164359 6.62857 0.107191C6.62857 0.107191 6.62857 0.107191 6.65714 0.107191C7.54286 -0.0357302 8.45714 -0.0357302 9.34286 0.107191C9.34286 0.107191 9.34286 0.107191 9.37143 0.107191C9.57143 0.135775 9.8 0.192943 10 0.250112C10.0286 0.250112 10.0571 0.250112 10.0571 0.278696C10.2571 0.335864 10.4571 0.393033 10.6286 0.450201H10.6571C10.3143 1.65074 9.22857 2.47968 7.97143 2.47968C6.71429 2.47968 5.62857 1.65074 5.28571 0.450201C5.34286 0.450201 5.34286 0.450201 5.37143 0.450201ZM4.77143 0.678875C5.17143 1.99375 6.34286 2.93703 7.71429 3.05136V4.62349C6.08571 4.76641 4.8 6.0527 4.65714 7.682H3.08571C2.97143 6.30996 2.02857 5.13801 0.714286 4.73783C1.48571 2.93703 2.94286 1.47923 4.77143 0.678875ZM0.457143 10.6833V10.6548C0.4 10.4547 0.342857 10.2832 0.285714 10.0831C0.285714 10.0545 0.257143 10.0259 0.257143 9.99732C0.2 9.79723 0.171429 9.62573 0.142857 9.42564C0.142857 9.39705 0.142857 9.36847 0.114286 9.33988C0.0857143 9.13979 0.0571428 8.93971 0.0285714 8.73962C0.0285714 8.71103 0.0285714 8.68245 0.0285714 8.68245C-2.76736e-08 8.42519 0 8.2251 0 7.99643C0 7.76775 -2.76736e-08 7.56766 0.0285714 7.36758C0.0285714 7.33899 0.0285714 7.31041 0.0285714 7.31041C0.0571428 7.11032 0.0857143 6.91023 0.114286 6.71014C0.114286 6.68155 0.114286 6.65297 0.142857 6.62439C0.171429 6.4243 0.228571 6.25279 0.257143 6.0527C0.257143 6.02412 0.285714 5.99553 0.285714 5.93837C0.342857 5.73828 0.4 5.56677 0.457143 5.36668V5.3381C1.62857 5.68111 2.48571 6.76731 2.48571 8.02501C2.48571 9.25413 1.65714 10.3403 0.457143 10.6833ZM0.685714 11.2264C2 10.8263 2.94286 9.65431 3.05714 8.28227H4.62857C4.77143 9.91157 6.05714 11.1979 7.68571 11.3408V12.9129C6.31429 13.0272 5.14286 13.9705 4.74286 15.2854C2.94286 14.5136 1.48571 13.0558 0.685714 11.2264ZM11.2286 15.314C10.8286 13.9991 9.65714 13.0558 8.28571 12.9415V11.3694C9.91429 11.2264 11.2 9.94015 11.3429 8.31085H12.9143C13.0286 9.68289 13.9714 10.8548 15.2857 11.255C14.5143 13.0558 13.0571 14.5136 11.2286 15.314Z" fill="#0BACC6"/>
</svg>
