<svg width="18" height="17" viewBox="0 0 18 17" fill="none" xmlns="http://www.w3.org/2000/svg">
<path d="M8.85086 7.83594C8.1262 7.83594 7.42365 7.87463 6.75429 7.94931V10.4165C7.30747 10.7124 7.68366 11.296 7.68366 11.9654C7.68366 12.939 6.89536 13.7272 5.92453 13.7272C4.95369 13.7272 4.16545 12.939 4.16545 11.9654C4.16545 11.296 4.54158 10.7124 5.09476 10.4165V8.21483C2.06058 8.86207 0 10.2837 0 11.9709C0 14.2833 3.88886 16.0949 8.85086 16.0949C13.8129 16.0949 17.7017 14.2833 17.7017 11.9709C17.7017 9.65308 13.8129 7.83594 8.85086 7.83594ZM11.625 13.4673C10.9447 13.4673 10.3942 12.9169 10.3942 12.2365C10.3942 11.5561 10.9447 11.0056 11.625 11.0056C12.3055 11.0056 12.8559 11.5561 12.8559 12.2365C12.8559 12.9169 12.3055 13.4673 11.625 13.4673Z" fill="#0BACC6"/>
<path d="M5.92454 12.2419C6.07668 12.2419 6.20113 12.1202 6.20113 11.9653V10.231V6.10982L11.2572 3.95801C11.4702 3.86672 11.6085 3.6565 11.6085 3.42415C11.6085 3.19185 11.4702 2.98441 11.2572 2.89312L6.20113 0.741241V0.276589C6.20113 0.124452 6.07668 0 5.92454 0C5.77243 0 5.64795 0.124452 5.64795 0.276589V10.231V11.9653C5.64795 12.1202 5.77243 12.2419 5.92454 12.2419Z" fill="#0BACC6"/>
</svg>
