<svg width="16" height="15" viewBox="0 0 16 15" fill="none" xmlns="http://www.w3.org/2000/svg">
<path d="M14.7652 0.171049C14.4929 -0.0763058 14.0785 -0.0515703 13.8299 0.220521L13.8181 0.232888L13.7944 0.257624L3.68463 11.7967C3.55441 11.9204 3.38868 11.9946 3.2111 11.9946C3.02169 11.9946 2.84412 11.9204 2.7139 11.7844C2.44162 11.4999 2.44162 11.0299 2.7139 10.7455L2.89147 10.56C3.08088 10.3621 3.08088 10.0405 2.87964 9.84264C2.85596 9.81791 2.83228 9.80554 2.82044 9.7808L1.9681 9.17478C1.77869 9.03874 1.51825 9.06347 1.36435 9.23662L1.34067 9.26136L0.84347 9.76843C-0.281157 10.9681 -0.281157 12.8975 0.84347 14.0972C1.39986 14.6784 2.14567 15 2.91515 15H2.9625C3.67279 15 4.35941 14.7032 4.88029 14.1837C4.9158 14.1466 4.95132 14.1095 4.99867 14.06C7.5202 11.2649 13.6642 2.79302 14.8717 1.12337C15.073 0.838909 15.0374 0.418405 14.7652 0.171049ZM3.89772 13.8003C3.58993 13.9364 3.25846 14.0106 2.92699 14.0106C2.60736 14.0106 2.29956 13.9487 2.00361 13.8251C1.88523 13.7756 1.82604 13.6272 1.87339 13.5035C1.92074 13.3798 2.0628 13.318 2.18118 13.3675C2.67839 13.5777 3.22294 13.5653 3.72015 13.3427C3.83853 13.2932 3.98059 13.3427 4.02794 13.4664C4.07529 13.5901 4.02794 13.7385 3.89772 13.8003ZM6.65601 8.39561C6.66785 8.38325 6.67969 8.37088 6.69153 8.35851L6.65601 8.39561ZM5.68528 9.50871C5.69712 9.48398 5.70896 9.47161 5.7208 9.45924L5.68528 9.50871ZM6.97564 10.9063L5.91021 10.0034L6.22984 9.63239L7.2716 10.5229L6.97564 10.9063ZM7.86351 9.7437L6.8691 8.90269L7.18873 8.53166L8.15946 9.3603L7.86351 9.7437ZM13.1078 2.73118L13.0841 2.71881L12.6461 2.32304L12.9658 1.95201L13.3801 2.34778L13.1078 2.73118ZM13.8063 1.76649L13.4274 1.42019L13.7471 1.04916L14.0904 1.35835L13.8063 1.76649Z" fill="#0BACC6"/>
<path d="M14 11C12.8941 11 12 11.8889 12 13C12 14.1111 12.8941 15 14 15C15.1059 15 16 14.1111 16 13C16 11.8889 15.1059 11 14 11ZM14.2353 12.4386C13.9412 12.4386 13.6706 12.6023 13.5294 12.8713C13.4706 12.9883 13.3294 13.0234 13.2118 12.9649C13.1059 12.9064 13.0588 12.7661 13.1176 12.6608C13.3294 12.2398 13.7647 11.9825 14.2353 11.9825C14.3647 11.9825 14.4706 12.0877 14.4706 12.2164C14.4706 12.3333 14.3647 12.4386 14.2353 12.4386Z" fill="#0BACC6"/>
</svg>
