<svg width="32" height="27" viewBox="0 0 32 27" fill="none" xmlns="http://www.w3.org/2000/svg">
<path d="M12.4201 20.9253C19.3887 23.8881 25.8961 23.7422 27.2349 20.5932L29.1114 16.1796C30.4502 13.0308 26.0402 8.24336 19.0716 5.28058C12.107 2.31951 5.60265 2.46664 4.26391 5.61544L2.38742 10.029C1.04857 13.1781 5.45547 17.9642 12.4201 20.9253ZM18.6329 6.31237C25.4474 9.20961 29.0172 13.5259 28.0761 15.7394C27.135 17.9529 21.5498 18.3769 14.7353 15.4796C7.92518 12.5842 4.35814 8.26909 5.29922 6.05561C6.2403 3.84213 11.8227 3.41697 18.6329 6.31237ZM4.32942 8.33663C5.3868 11.1251 9.13884 14.3185 14.2967 16.5114C19.458 18.7058 24.3639 19.1931 27.1066 18.0198L26.1996 20.153C25.2584 22.3668 19.6732 22.7907 12.8588 19.8935C6.04859 16.9981 2.48155 12.6829 3.42274 10.4692L4.32942 8.33663Z" fill="white"/>
<path d="M17.5996 8.93926C21.004 10.3867 23.087 11.8778 24.2346 12.8733C24.2892 12.9208 24.3499 12.9581 24.4142 12.9855C24.6242 13.0747 24.8678 13.055 25.0217 12.9187C25.2231 12.7409 25.1969 12.4324 24.9628 12.2296C23.7426 11.1706 21.5381 9.58939 17.9684 8.07172C17.6774 7.94798 17.3588 8.04188 17.257 8.28143C17.1551 8.52097 17.3085 8.81552 17.5996 8.93926Z" fill="white"/>
<path d="M15.4002 7.90824C15.4109 7.93454 15.4261 7.96277 15.4461 7.99301C15.4613 8.02124 15.4832 8.04676 15.5071 8.06779C15.5289 8.09354 15.5573 8.11648 15.5832 8.13279C15.609 8.14909 15.6395 8.16764 15.6671 8.17936C15.792 8.23245 15.9291 8.23103 16.0524 8.18553C16.1775 8.13544 16.2745 8.03521 16.3253 7.91562C16.339 7.88347 16.3508 7.85582 16.3555 7.81961C16.3625 7.78994 16.3649 7.75858 16.3674 7.727C16.3654 7.69349 16.3631 7.65989 16.3611 7.62638C16.3523 7.59558 16.3437 7.56455 16.3304 7.53183C16.3062 7.4727 16.2691 7.41873 16.2233 7.37218C16.0835 7.22566 15.8579 7.1786 15.6782 7.25453C15.6452 7.26757 15.617 7.28295 15.5888 7.298C15.563 7.3197 15.5375 7.34149 15.5117 7.36319C15.4907 7.3869 15.4698 7.41039 15.4488 7.4341C15.4305 7.46456 15.4187 7.4922 15.4051 7.52435C15.3796 7.58415 15.3635 7.64788 15.363 7.71297C15.3627 7.77816 15.3735 7.84247 15.4002 7.90824Z" fill="white"/>
<path d="M13.5631 7.12693C13.5738 7.15297 13.5871 7.18595 13.6089 7.2114C13.624 7.23957 13.6457 7.26525 13.6694 7.28622C13.6912 7.31167 13.7149 7.33264 13.7451 7.35101C13.7708 7.36726 13.801 7.38541 13.8286 7.39716C13.8884 7.42257 13.9522 7.43909 14.019 7.43485C14.0888 7.43721 14.1531 7.42657 14.212 7.4028C14.3366 7.35233 14.4335 7.25237 14.4844 7.1326C14.5353 7.01306 14.54 6.87394 14.4899 6.74915C14.4661 6.69023 14.4292 6.6366 14.3791 6.58795C14.3121 6.51595 14.2238 6.46779 14.1286 6.44884C14.0945 6.4399 14.0629 6.43736 14.0295 6.43932C13.9979 6.43678 13.9644 6.43896 13.9336 6.44764C13.8981 6.45432 13.8673 6.46268 13.841 6.47327C13.7756 6.49985 13.7217 6.53665 13.6753 6.58219C13.6289 6.62772 13.5896 6.68157 13.5642 6.74134C13.5386 6.80133 13.5272 6.86703 13.5266 6.93205C13.5241 7.00156 13.5349 7.06587 13.5631 7.12693Z" fill="white"/>
</svg>
