<svg width="17" height="15" viewBox="0 0 17 15" fill="none" xmlns="http://www.w3.org/2000/svg">
<path d="M7.67281 7.11982C8.36405 7.81106 9.19355 8.15668 10.1613 8.15668L10.2304 9.60829C8.91705 9.60829 7.74194 9.12442 6.70507 8.15668L6.2212 7.67281L4.63134 9.3318L6.15207 10.7834V14.9309H4.76959V11.3364L3.87097 10.5069V12.0277L0.967742 15L0 14.0323L2.48848 11.5438L1.65899 9.12442C1.52074 8.70968 1.72811 8.36406 2.07373 8.08756L4.35484 5.80645C4.63134 5.46083 4.97696 5.32258 5.32258 5.32258C5.6682 5.32258 5.87558 5.39171 6.08295 5.52995L7.67281 7.11982ZM16.5207 8.01843H15.1382V5.6682L13.894 5.18433L14.5161 8.22581L15.2074 11.8203L15.8295 14.8618H14.3779L13.1336 9.3318L11.682 10.7143V14.8618H10.2995V9.67742L11.7512 8.29493L11.3364 6.2212C10.9217 6.63594 10.4378 7.05069 9.88479 7.32719C9.26267 7.25806 8.64055 6.98157 8.15668 6.4977C9.26267 6.29032 10.023 5.73733 10.5069 4.90783L11.1982 3.80184C11.6129 3.1106 12.235 2.90323 12.9954 3.24885L16.5207 4.76959V8.01843ZM7.81106 2.8341C8.57143 2.8341 9.19355 3.45622 9.19355 4.21659C9.19355 4.97696 8.57143 5.59908 7.81106 5.59908C7.05069 5.59908 6.42857 4.97696 6.42857 4.21659C6.42857 3.45622 7.05069 2.8341 7.81106 2.8341ZM11.3364 0C12.0968 0 12.7189 0.62212 12.7189 1.38249C12.7189 2.14286 12.0968 2.76498 11.3364 2.76498C10.576 2.76498 9.95392 2.14286 9.95392 1.38249C9.95392 0.62212 10.576 0 11.3364 0Z" fill="#0BACC6"/>
</svg>
