<svg width="22" height="22" viewBox="0 0 22 22" fill="none" xmlns="http://www.w3.org/2000/svg">
<path d="M10.9999 17.6004C7.3611 17.6004 4.3999 14.6392 4.3999 11.0004C4.3999 7.36159 7.3611 4.40039 10.9999 4.40039C14.6387 4.40039 17.5999 7.36159 17.5999 11.0004C17.5999 14.6392 14.6387 17.6004 10.9999 17.6004ZM10.9999 5.86706C8.16924 5.86706 5.86657 8.16972 5.86657 11.0004C5.86657 13.8311 8.16924 16.1337 10.9999 16.1337C13.8306 16.1337 16.1332 13.8311 16.1332 11.0004C16.1332 8.16972 13.8306 5.86706 10.9999 5.86706Z" fill="white"/>
<path d="M10.9999 2.93333C10.5951 2.93333 10.2666 2.6048 10.2666 2.2V0.733333C10.2666 0.328533 10.5951 0 10.9999 0C11.4047 0 11.7333 0.328533 11.7333 0.733333V2.2C11.7333 2.6048 11.4047 2.93333 10.9999 2.93333Z" fill="white"/>
<path d="M10.9999 21.9997C10.5951 21.9997 10.2666 21.6712 10.2666 21.2664V19.7997C10.2666 19.3949 10.5951 19.0664 10.9999 19.0664C11.4047 19.0664 11.7333 19.3949 11.7333 19.7997V21.2664C11.7333 21.6712 11.4047 21.9997 10.9999 21.9997Z" fill="white"/>
<path d="M17.2223 5.51062C17.0346 5.51062 16.8468 5.43875 16.7038 5.29575C16.4171 5.00902 16.4171 4.54555 16.7038 4.25882L17.7408 3.22189C18.0275 2.93515 18.491 2.93515 18.7777 3.22189C19.0644 3.50862 19.0644 3.97209 18.7777 4.25882L17.7408 5.29575C17.5978 5.43875 17.41 5.51062 17.2223 5.51062Z" fill="white"/>
<path d="M3.7406 18.9921C3.55286 18.9921 3.36513 18.9202 3.22213 18.7772C2.9354 18.4905 2.9354 18.027 3.22213 17.7403L4.25906 16.7033C4.5458 16.4166 5.00926 16.4166 5.296 16.7033C5.58273 16.9901 5.58273 17.4535 5.296 17.7403L4.25906 18.7772C4.11533 18.9209 3.9276 18.9921 3.7406 18.9921Z" fill="white"/>
<path d="M21.2667 11.7338H19.8C19.3952 11.7338 19.0667 11.4052 19.0667 11.0004C19.0667 10.5956 19.3952 10.2671 19.8 10.2671H21.2667C21.6715 10.2671 22 10.5956 22 11.0004C22 11.4052 21.6715 11.7338 21.2667 11.7338Z" fill="white"/>
<path d="M2.2 11.7338H0.733333C0.328533 11.7338 0 11.4052 0 11.0004C0 10.5956 0.328533 10.2671 0.733333 10.2671H2.2C2.6048 10.2671 2.93333 10.5956 2.93333 11.0004C2.93333 11.4052 2.6048 11.7338 2.2 11.7338Z" fill="white"/>
<path d="M18.2592 18.9921C18.0715 18.9921 17.8838 18.9202 17.7408 18.7772L16.7038 17.7403C16.4171 17.4535 16.4171 16.9901 16.7038 16.7033C16.9906 16.4166 17.454 16.4166 17.7408 16.7033L18.7777 17.7403C19.0644 18.027 19.0644 18.4905 18.7777 18.7772C18.6347 18.9209 18.447 18.9921 18.2592 18.9921Z" fill="white"/>
<path d="M4.77753 5.51062C4.5898 5.51062 4.40206 5.43875 4.25906 5.29575L3.22213 4.25882C2.9354 3.97209 2.9354 3.50862 3.22213 3.22189C3.50886 2.93515 3.97233 2.93515 4.25906 3.22189L5.296 4.25882C5.58273 4.54555 5.58273 5.00902 5.296 5.29575C5.15226 5.43875 4.96526 5.51062 4.77753 5.51062Z" fill="white"/>
</svg>
