<svg width="17" height="13" viewBox="0 0 17 13" fill="none" xmlns="http://www.w3.org/2000/svg">
<path d="M5.97526 6.76838H10.9458L11.6861 6.39824C11.6332 6.34536 11.5803 6.29248 11.5275 6.26604L9.86179 5.44643C9.78248 5.41999 9.70316 5.39355 9.62384 5.39355H7.27077C7.19145 5.39355 7.11214 5.41999 7.03282 5.44643L5.36716 6.26604C5.31428 6.29248 5.2614 6.34536 5.20853 6.39824L5.97526 6.76838Z" fill="#0BACC6"/>
<path d="M16.6301 6.26605L16.5244 6.21317V5.71083V5.52576V4.52107V3.06693C16.5244 2.67034 16.3129 2.30019 15.9427 2.11512L11.924 0.105756C11.7654 0.0264389 11.6067 0 11.4481 0H5.47288C5.31424 0 5.15561 0.0264389 4.99698 0.105756L0.978244 2.11512C0.608097 2.30019 0.396585 2.67034 0.396585 3.06693V4.52107V5.52576V5.71083V6.21317L0.290829 6.26605C0.105756 6.34537 0 6.53044 0 6.74195V9.59737C0 9.80888 0.105756 9.99395 0.290829 10.0733L4.83834 12.347C4.91766 12.3735 4.99698 12.3999 5.07629 12.3999H11.8447C11.924 12.3999 12.0033 12.3735 12.0826 12.347L16.6301 10.0733C16.8152 9.99395 16.921 9.80888 16.921 9.59737V6.74195C16.921 6.53044 16.8152 6.34537 16.6301 6.26605ZM15.4668 3.04049V4.49463V5.15561L12.1091 3.46351V1.34839L15.4668 3.04049ZM1.45415 7.588V6.71551L4.8119 8.40761V10.5227L1.45415 8.83063V7.588ZM5.47288 4.336H11.4745L14.6472 5.92234L11.4745 7.50868H5.47288L2.3002 5.92234L5.47288 4.336ZM11.0515 10.8136H5.86946V8.56624H11.0515V10.8136V10.8136ZM15.4668 8.83063L12.1091 10.5227V8.40761L15.4668 6.71551V7.588V8.83063ZM11.0515 1.03112V3.27844H5.86946V1.03112H11.0515ZM1.45415 4.52107V3.06693L4.8119 1.37483V3.48995L1.45415 5.18205V4.52107Z" fill="#0BACC6"/>
</svg>
