<svg width="16" height="17" viewBox="0 0 16 17" fill="none" xmlns="http://www.w3.org/2000/svg">
<path d="M15.2243 7.55371H0.668461C0.507326 7.55371 0.399902 7.68799 0.399902 7.82227V9.16506C0.399902 9.3262 0.507326 9.43362 0.668461 9.43362H15.1975C15.3586 9.43362 15.466 9.3262 15.466 9.16506V7.82227C15.4929 7.68799 15.3586 7.55371 15.2243 7.55371Z" fill="#0BACC6"/>
<path d="M13.3444 11.5821C13.2907 11.6358 13.2101 11.7163 13.1564 11.77L12.0821 10.6958L12.7804 9.99756H12.0284L11.7062 10.3198L11.3839 9.99756H10.6319L11.3302 10.6958L10.2559 11.77L9.18171 10.6958L9.87996 9.99756H9.128L8.80573 10.3198L8.48346 9.99756H7.7315L8.42975 10.6958L7.46294 11.6626C7.22124 10.9644 6.95268 10.4273 6.73783 9.99756H6.12015C6.97953 11.5015 7.7315 13.8111 7.86578 16.6578C7.86578 16.7921 8.00006 16.9264 8.13434 16.9264C8.26861 16.9264 8.40289 16.7921 8.40289 16.6578C8.37604 15.9327 8.29547 15.2344 8.18805 14.6168L8.80573 13.9991L9.87996 15.0733C8.72516 16.2281 9.128 15.8253 9.04743 15.9058C8.94001 16.0133 8.94001 16.1744 9.04743 16.2818C9.15486 16.3892 9.31599 16.3892 9.42342 16.2818C10.1217 15.5836 10.2022 15.503 10.2559 15.4493L11.169 16.3624C11.2765 16.4698 11.4376 16.4698 11.545 16.3624C11.6524 16.255 11.6524 16.0938 11.545 15.9864L10.6319 15.0733C10.9811 14.7242 11.357 14.3482 11.7062 13.9991L12.5655 14.8585C12.485 15.4224 12.4313 16.0133 12.4044 16.631C12.4044 16.7652 12.5118 16.8995 12.673 16.8995C12.8073 16.8995 12.9415 16.7921 12.9415 16.631C13.1027 13.1665 14.0963 10.9644 14.6872 9.9707H14.0695C13.8278 10.3735 13.5861 10.9107 13.3444 11.5821ZM8.05377 13.9454C8.00006 13.65 7.94634 13.3545 7.86578 13.086L8.40289 13.6231L8.05377 13.9454ZM7.67779 12.146L8.75202 11.0718L9.82625 12.146L8.75202 13.2203L7.67779 12.146ZM10.2291 14.6973L9.15486 13.6231L10.2291 12.5489L11.3302 13.65C10.9542 13.9722 10.6051 14.3213 10.2291 14.6973ZM10.6051 12.146L11.6793 11.0718L12.7535 12.146C12.4044 12.522 12.0284 12.8711 11.6793 13.2203L10.6051 12.146ZM12.673 14.1871L12.0821 13.5962C12.3776 13.3008 12.6998 12.9786 12.9952 12.6831C12.861 13.1397 12.7535 13.65 12.673 14.1871Z" fill="#0BACC6"/>
<path d="M8.48352 2.53128C9.04749 2.82669 9.61147 2.88041 9.85317 2.88041C10.0949 2.47757 10.9274 1.34962 12.4582 1.13478C12.1896 0.812506 11.8942 0.543948 11.5182 0.355957C9.96059 0.731939 8.99378 1.77932 8.48352 2.53128Z" fill="#0BACC6"/>
<path d="M10.2292 4.78715C10.2023 4.14261 9.96064 3.63235 9.85322 3.4175C9.36982 3.39064 7.94646 3.25637 7.0065 1.96729C6.84537 2.34327 6.7648 2.71925 6.7648 3.14894C7.89275 4.46488 9.39667 4.73344 10.2292 4.78715Z" fill="#0BACC6"/>
<path d="M11.6256 5.94243C12.1627 4.35794 11.7331 2.98829 11.3034 2.15576C10.7662 2.50489 10.444 2.96144 10.3097 3.17628C10.5514 3.60598 11.1154 4.92191 10.4708 6.37213C10.9005 6.31842 11.2765 6.15728 11.6256 5.94243Z" fill="#0BACC6"/>
<path d="M8.02702 2.26298C8.45671 1.61844 9.3161 0.597922 10.7126 0.087661C9.34295 -0.234609 8.02702 0.356219 7.30191 1.45731C7.4899 1.77958 7.75846 2.04814 8.02702 2.26298Z" fill="#0BACC6"/>
<path d="M9.85319 6.39896C10.068 6.02298 10.1755 5.67385 10.2023 5.32472C9.4235 5.27101 8.02699 5.02931 6.87219 4.00879C7.22132 5.35158 8.42983 6.34525 9.85319 6.39896Z" fill="#0BACC6"/>
<path d="M12.3239 5.37847C13.2907 4.33109 13.4518 2.82716 12.8073 1.64551C12.4313 1.67236 12.0822 1.75293 11.7867 1.88721C12.1359 2.61232 12.5924 3.9014 12.3239 5.37847Z" fill="#0BACC6"/>
</svg>
