<svg width="14" height="14" viewBox="0 0 14 14" fill="none" xmlns="http://www.w3.org/2000/svg">
<path d="M14 7C14 7.21841 13.9132 7.42788 13.7588 7.58232C13.6044 7.73676 13.3949 7.82353 13.1765 7.82353H7.82353V13.1765C7.82353 13.3949 7.73676 13.6044 7.58232 13.7588C7.42788 13.9132 7.21841 14 7 14C6.78159 14 6.57212 13.9132 6.41768 13.7588C6.26324 13.6044 6.17647 13.3949 6.17647 13.1765V7.82353H0.823529C0.605116 7.82353 0.395648 7.73676 0.241206 7.58232C0.0867644 7.42788 0 7.21841 0 7C0 6.78159 0.0867644 6.57212 0.241206 6.41768C0.395648 6.26324 0.605116 6.17647 0.823529 6.17647H6.17647V0.823529C6.17647 0.605116 6.26324 0.395648 6.41768 0.241206C6.57212 0.0867644 6.78159 0 7 0C7.21841 0 7.42788 0.0867644 7.58232 0.241206C7.73676 0.395648 7.82353 0.605116 7.82353 0.823529V6.17647H13.1765C13.3949 6.17647 13.6044 6.26324 13.7588 6.41768C13.9132 6.57212 14 6.78159 14 7Z" fill="white"/>
</svg>
