<svg width="17" height="14" viewBox="0 0 17 14" fill="none" xmlns="http://www.w3.org/2000/svg">
<path d="M0 13.8092C0.679432 13.796 1.13938 13.4233 1.38455 13.1496C1.63426 13.4283 2.10516 13.8119 2.80575 13.8119C3.50615 13.8119 3.97705 13.4283 4.22695 13.1496C4.47685 13.4283 4.94775 13.8119 5.64814 13.8119C6.34854 13.8119 6.81944 13.4283 7.06934 13.1496C7.31905 13.4283 7.78995 13.8119 8.49073 13.8119C9.19113 13.8119 9.66221 13.4286 9.91155 13.1496C10.1613 13.4286 10.6323 13.8119 11.3329 13.8119C12.0331 13.8119 12.5046 13.4286 12.7543 13.1496C13.0037 13.4286 13.4744 13.8119 14.1749 13.8119C14.8755 13.8119 15.3466 13.4283 15.5963 13.1496C15.844 13.426 16.3094 13.8041 16.999 13.8108V13.0758C16.2318 13.0646 15.8243 12.4035 15.8081 12.3767C15.7648 12.3029 15.6838 12.2664 15.6011 12.2649L15.596 12.2549L15.5905 12.2649C15.5081 12.2668 15.4271 12.304 15.3842 12.3771C15.3799 12.3841 14.9632 13.0769 14.1749 13.0769C13.3907 13.0769 12.9697 12.3829 12.9661 12.3775C12.9232 12.3036 12.8418 12.2664 12.759 12.2649L12.7536 12.2549L12.7485 12.2649C12.6657 12.2668 12.5847 12.3036 12.5418 12.3771C12.538 12.3841 12.1215 13.0769 11.3333 13.0769C10.553 13.0769 10.1403 12.4041 10.1237 12.3767C10.0808 12.3029 9.99938 12.2664 9.91702 12.2649L9.91155 12.2549L9.90607 12.2649C9.82334 12.2668 9.74193 12.304 9.6998 12.3775C9.69584 12.3845 9.2799 13.0769 8.49111 13.0769C7.70722 13.0769 7.28524 12.3829 7.28165 12.3767C7.23896 12.3032 7.15736 12.2668 7.07482 12.2653L7.06915 12.2549L7.06349 12.2653C6.98113 12.2668 6.89991 12.3036 6.85798 12.3767C6.8542 12.3837 6.43638 13.0769 5.64852 13.0769C4.86482 13.0769 4.44304 12.3829 4.43926 12.3767C4.39846 12.3066 4.31724 12.2711 4.23469 12.2694L4.22733 12.257L4.21977 12.2694C4.13723 12.2713 4.05619 12.3066 4.01577 12.376C4.0118 12.3829 3.59002 13.0769 2.80613 13.0769C2.0213 13.0769 1.60083 12.3837 1.59686 12.3767C1.55417 12.3032 1.47257 12.2668 1.39022 12.2653L1.38455 12.2549L1.37889 12.2649C1.29653 12.2668 1.21512 12.3036 1.17338 12.3767C1.16884 12.3837 0.763487 13.0529 0 13.0747V13.8092V13.8092Z" fill="#0BACC6"/>
<path d="M6.40485 5.65223C6.74069 4.50134 7.95222 3.84079 9.1035 4.17701C10.2574 4.5121 10.723 5.61805 10.3851 6.76932C10.0479 7.91852 9.03814 8.68843 7.88592 8.35013C6.73162 8.01334 6.06768 6.80483 6.40485 5.65223Z" fill="#0BACC6"/>
<path d="M4.25942 3.53524C5.23565 3.53524 6.02704 2.74385 6.02704 1.76762C6.02704 0.79139 5.23565 0 4.25942 0C3.28319 0 2.4918 0.79139 2.4918 1.76762C2.4918 2.74385 3.28319 3.53524 4.25942 3.53524Z" fill="#0BACC6"/>
<path d="M10.2552 9.29387C9.97731 9.14824 8.90933 8.96823 7.99625 8.82902C7.35667 8.73155 6.79284 8.6541 6.62983 8.62199C5.65289 8.43046 3.72831 6.89064 3.72831 6.89064C3.72831 6.89064 3.94062 5.17704 3.95668 4.13079C3.90398 4.12475 3.85562 4.11455 3.80651 4.10529C3.29727 4.06506 2.84016 3.84066 2.50299 3.49707C2.18301 4.55995 1.44805 6.6942 1.65054 7.47506C1.79541 8.03398 3.97859 9.97198 4.50275 11.1061L4.6856 11.7564C4.92076 11.9434 5.25453 12.1168 5.68916 12.1168C6.63681 12.1168 7.11036 11.2944 7.11036 11.2944C7.11036 11.2944 7.58409 12.1168 8.53174 12.1168C9.47959 12.1168 9.95256 11.2944 9.95256 11.2944C9.95256 11.2944 10.4267 12.1168 11.374 12.1168C11.9767 12.1168 12.3866 11.7847 12.6061 11.5428C12.4944 11.3803 10.5241 9.43516 10.2552 9.29387Z" fill="#0BACC6"/>
</svg>
