<svg width="16" height="12" viewBox="0 0 16 12" fill="none" xmlns="http://www.w3.org/2000/svg">
<path d="M2.17901 0C1.87938 0.0010911 1.63679 0.243793 1.63559 0.54342V4.36441H1.09111V3.81673C1.09056 3.51501 0.845141 3.27106 0.543424 3.27224C0.243376 3.27333 0.000587397 3.51668 3.65692e-06 3.81673V5.99893C-0.00108745 6.30024 0.242121 6.54544 0.543424 6.54662C0.846391 6.54771 1.0923 6.3019 1.09111 5.99893V5.45551H1.63453L1.63562 9.27437C1.63671 9.574 1.87941 9.8166 2.17904 9.81779H13.0933C13.3929 9.8167 13.6355 9.574 13.6367 9.27437V5.45445C13.6378 5.45445 13.6389 5.45554 13.64 5.45554H14.1834V5.99896C14.1823 6.30068 14.4261 6.54606 14.7279 6.54664C15.0308 6.54773 15.2767 6.30193 15.2756 5.99896V3.81675C15.275 3.51504 15.0296 3.27109 14.7279 3.27227C14.4274 3.27281 14.184 3.51629 14.1834 3.81675V4.36444H13.64C13.6389 4.36443 13.6378 4.36553 13.6367 4.36553V0.54347C13.6356 0.243848 13.3929 0.00125848 13.0933 5.82712e-05L2.17901 0ZM3.80927 2.16942H5.99255C6.29217 2.17051 6.53477 2.41321 6.53597 2.71284V4.89505C6.5376 5.19675 6.29425 5.44259 5.99255 5.44379H3.80927C3.5059 5.44488 3.25984 5.19842 3.26159 4.89505V2.71284C3.26268 2.41155 3.50798 2.16827 3.80927 2.16942ZM9.26692 2.16942H11.4449C11.7462 2.16833 11.9913 2.41155 11.9925 2.71284V4.89505C11.9942 5.19842 11.7482 5.44496 11.4449 5.44379H9.26692C8.96313 5.44543 8.71641 5.19884 8.71817 4.89505V2.71284C8.71926 2.41113 8.96521 2.16768 9.26692 2.16942ZM4.90144 7.07832H10.358C10.6577 7.07941 10.9003 7.3221 10.9014 7.62174C10.9025 7.92304 10.6593 8.16824 10.358 8.16942H4.90144C4.59806 8.17106 4.3515 7.92512 4.35269 7.62174C4.35379 7.32002 4.59972 7.07655 4.90144 7.07832ZM4.90892 10.9121C4.60928 10.9132 4.36666 11.1559 4.3655 11.4555C4.36604 11.7556 4.60888 11.9988 4.90892 12H10.3655C10.666 11.9995 10.9094 11.756 10.91 11.4555C10.9089 11.1555 10.6656 10.9127 10.3655 10.9121H4.90892Z" fill="#0BACC6"/>
</svg>
