<svg width="17" height="17" viewBox="0 0 17 17" fill="none" xmlns="http://www.w3.org/2000/svg">
<path d="M8.49594 15.4523C6.73168 14.7347 5.13339 13.6628 3.79989 12.3028C2.44082 10.9688 1.36782 9.37189 0.646377 7.60945C0.936653 7.39327 1.17271 7.11258 1.33591 6.78953C1.49912 6.46649 1.585 6.10993 1.58679 5.748V3.47712L3.56379 5.45445C3.77213 5.66464 4.04496 5.79885 4.33861 5.8356C4.63226 5.87236 4.92975 5.80952 5.18346 5.65716L5.68907 6.16277L4.98075 6.87108L5.45296 7.34329L6.16128 6.63498L6.63349 7.10752L5.92517 7.81584L6.39738 8.28805L7.10603 7.57973L7.57824 8.05228L6.86993 8.76092L7.34213 9.23313L8.05045 8.52449L8.52266 8.99669L7.81434 9.70534L8.28655 10.1776L8.99487 9.4689L9.46741 9.94145L8.75876 10.6498L9.23097 11.122L9.93962 10.4137L10.4452 10.9193C10.2929 11.173 10.23 11.4705 10.2668 11.7641C10.3035 12.0578 10.4377 12.3306 10.6479 12.5389L12.6253 14.5159H10.3547C9.99362 14.5178 9.63787 14.6034 9.31537 14.7659C8.99287 14.9283 8.7124 15.1633 8.49594 15.4523V15.4523ZM10.7919 16.0535L10.7742 16.0515C10.6566 16.0371 10.5371 16.0181 10.4172 15.9987C10.4048 15.9967 10.3925 15.9953 10.3798 15.993C10.2252 15.9663 10.0682 15.9329 9.91023 15.8965C9.68782 15.8451 9.46441 15.784 9.24233 15.7155C9.21661 15.7075 9.19123 15.7011 9.16552 15.6931C9.31894 15.5321 9.50358 15.404 9.70817 15.3167C9.91275 15.2295 10.133 15.1848 10.3554 15.1855H13.2942L13.7757 15.6664C12.836 16.0687 11.803 16.2021 10.7919 16.0518V16.0535ZM15.3236 14.3924C15.2652 14.4762 15.2034 14.5563 15.1396 14.6342L15.1202 14.6592C15.0494 14.7437 14.9756 14.8262 14.8985 14.9017C14.8905 14.91 14.8815 14.9173 14.8728 14.9254C14.8521 14.9457 14.8297 14.9644 14.8083 14.9845L14.6514 15.1181C14.5635 15.1919 14.472 15.2603 14.3779 15.3258L11.1201 12.0681C11.0581 12.006 11.0089 11.9324 10.9753 11.8513C10.9418 11.7703 10.9245 11.6834 10.9245 11.5957C10.9245 11.508 10.9418 11.4211 10.9753 11.34C11.0089 11.259 11.0581 11.1853 11.1201 11.1233C11.1822 11.0613 11.2558 11.0121 11.3369 10.9785C11.4179 10.9449 11.5048 10.9276 11.5925 10.9276C11.6802 10.9276 11.7671 10.9449 11.8482 10.9785C11.9292 11.0121 12.0029 11.0613 12.0649 11.1233L15.3276 14.386L15.3236 14.3924ZM16.0884 12.1215L16.0867 12.1372C16.078 12.2484 16.0657 12.3576 16.0506 12.4658C16.047 12.4922 16.0423 12.5182 16.0383 12.5446C16.0249 12.6312 16.0096 12.7165 15.9922 12.8004C15.9848 12.8358 15.9772 12.8705 15.9688 12.9056C15.9517 12.98 15.933 13.0534 15.9127 13.126C15.902 13.1644 15.891 13.2028 15.8793 13.2409C15.8583 13.3077 15.8356 13.3745 15.8125 13.4413C15.7985 13.4803 15.7845 13.5194 15.7691 13.5582C15.7444 13.6213 15.7173 13.6831 15.69 13.7442L15.6713 13.7852L14.8087 12.9226V10.7309C14.8106 10.4254 14.8963 10.1262 15.0563 9.86593C15.2163 9.60565 15.4446 9.39418 15.7163 9.25451C16.0178 10.1781 16.144 11.1499 16.0884 12.1198V12.1215ZM7.48273 0.607795C9.2961 1.32146 10.9384 2.40982 12.3023 3.80172C13.6939 5.16664 14.7839 6.808 15.5023 8.62C15.098 8.80618 14.7551 9.10371 14.5138 9.47774C14.2725 9.85177 14.1427 10.2868 14.1397 10.7319V12.2541L12.5368 10.6511C12.3284 10.4409 12.0556 10.3067 11.762 10.2699C11.4683 10.2332 11.1708 10.296 10.9171 10.4484L10.4115 9.94278L11.1198 9.23447L10.6476 8.76226L9.93929 9.47057L9.46708 8.99803L10.1754 8.28972L9.70352 7.81617L8.99487 8.52449L8.52266 8.05228L9.23097 7.34363L8.75876 6.87142L8.05045 7.58007L7.57824 7.10786L8.28655 6.39921L7.81434 5.927L7.10603 6.63565L6.63349 6.1631L7.34213 5.45479L6.86993 4.98258L6.16128 5.69089L5.65567 5.18529C5.80803 4.93158 5.87087 4.63409 5.83411 4.34043C5.79736 4.04678 5.66315 3.77395 5.45296 3.56562L3.84999 1.96264H5.37215C5.81622 1.96021 6.25044 1.83154 6.62415 1.59165C6.99785 1.35176 7.29563 1.01053 7.48273 0.607795V0.607795ZM2.62037 0.307237C2.6334 0.302561 2.64709 0.298554 2.66045 0.293879C2.7751 0.252468 2.89243 0.215511 3.01243 0.183006C3.04316 0.174657 3.07421 0.167311 3.10494 0.15963C3.21626 0.131578 3.33025 0.107199 3.44691 0.0864939C3.47295 0.0818186 3.49867 0.076809 3.52472 0.0724676C3.82724 0.0242915 4.13308 6.05503e-05 4.43942 0H4.50287C4.6124 0 4.72294 0.00400748 4.83682 0.0103526C4.86521 0.0103526 4.89426 0.014694 4.92298 0.0166977C5.02817 0.0237107 5.13404 0.0327275 5.24157 0.0447498C5.28231 0.0494251 5.32339 0.0554361 5.36413 0.0607793C5.45864 0.0728017 5.55382 0.0861598 5.64966 0.101856C5.7091 0.111874 5.76922 0.123229 5.82933 0.135251C5.90502 0.149277 5.98117 0.164416 6.05775 0.180669C6.11285 0.192357 6.16829 0.206049 6.22473 0.219407C6.43311 0.268164 6.64195 0.324602 6.85122 0.388721C6.71179 0.660423 6.50051 0.888681 6.24037 1.04866C5.98023 1.20864 5.68121 1.29421 5.37582 1.29607H3.18208L2.32082 0.433471C2.41833 0.388387 2.51651 0.343638 2.61904 0.304565L2.62037 0.307237ZM0.987676 1.45303L1.11625 1.30208C1.14564 1.26869 1.17335 1.23529 1.20374 1.2059C1.29289 1.11779 1.38641 1.03419 1.48393 0.955439C1.52467 0.922044 1.56775 0.891321 1.61016 0.859595C1.64657 0.831877 1.68464 0.805828 1.72204 0.77978L4.98209 4.0395C5.04414 4.10152 5.09336 4.17516 5.12694 4.25621C5.16052 4.33726 5.17781 4.42414 5.17781 4.51187C5.17781 4.59961 5.16052 4.68648 5.12694 4.76753C5.09336 4.84858 5.04414 4.92222 4.98209 4.98425C4.85477 5.10562 4.68561 5.17333 4.50971 5.17333C4.33381 5.17333 4.16466 5.10562 4.03734 4.98425L0.779958 1.72687C0.844077 1.63103 0.912537 1.54019 0.986341 1.45136L0.987676 1.45303ZM0.43632 2.32732L0.918882 2.80921V5.748C0.919625 5.97047 0.874994 6.19076 0.787716 6.39541C0.700439 6.60005 0.572349 6.78475 0.411273 6.93821C-0.148766 5.17327 -0.133404 3.56027 0.43632 2.32732Z" fill="#0BACC6"/>
</svg>
