<svg width="17" height="12" viewBox="0 0 17 12" fill="none" xmlns="http://www.w3.org/2000/svg">
<path d="M1.40856 8.45117C0.631786 8.45117 0 9.08296 0 9.85973C0 10.6365 0.631786 11.2683 1.40856 11.2683C2.18533 11.2683 2.81712 10.6365 2.81712 9.85973C2.81712 9.08296 2.18533 8.45117 1.40856 8.45117ZM1.40856 10.3293C1.14957 10.3293 0.93904 10.1187 0.93904 9.85973C0.93904 9.60075 1.14957 9.39021 1.40856 9.39021C1.66755 9.39021 1.87808 9.60075 1.87808 9.85973C1.87808 10.1187 1.66755 10.3293 1.40856 10.3293Z" fill="#0BACC6"/>
<path d="M8.45178 0.93904C12.0763 0.93904 15.0251 3.88782 15.0251 7.51232H15.9641C15.9641 3.37003 12.5941 0 8.45178 0C4.30948 0 0.939453 3.37003 0.939453 7.51232H1.87849C1.87849 3.88782 4.82727 0.93904 8.45178 0.93904Z" fill="#0BACC6"/>
<path d="M15.2594 9.66459L14.6524 9.05741L13.9883 9.7215L15.2594 10.9924L17 9.25198L16.3359 8.58789L15.2594 9.66459Z" fill="#0BACC6"/>
<path d="M9.11475 8.53125L8.45085 9.19515L7.78695 8.53125L7.12305 9.19515L7.78695 9.85905L7.12305 10.523L7.78695 11.1869L8.45085 10.523L9.11475 11.1869L9.77865 10.523L9.11475 9.85905L9.77865 9.19515L9.11475 8.53125Z" fill="#0BACC6"/>
<path d="M4.22538 10.3316C4.48469 10.3316 4.6949 10.1214 4.6949 9.8621C4.6949 9.60279 4.48469 9.39258 4.22538 9.39258C3.96607 9.39258 3.75586 9.60279 3.75586 9.8621C3.75586 10.1214 3.96607 10.3316 4.22538 10.3316Z" fill="#0BACC6"/>
<path d="M6.10429 10.3297C6.36359 10.3297 6.57381 10.1195 6.57381 9.86015C6.57381 9.60084 6.36359 9.39062 6.10429 9.39062C5.84498 9.39062 5.63477 9.60084 5.63477 9.86015C5.63477 10.1195 5.84498 10.3297 6.10429 10.3297Z" fill="#0BACC6"/>
<path d="M10.7996 10.3297C11.0589 10.3297 11.2691 10.1195 11.2691 9.86015C11.2691 9.60084 11.0589 9.39062 10.7996 9.39062C10.5403 9.39062 10.3301 9.60084 10.3301 9.86015C10.3301 10.1195 10.5403 10.3297 10.7996 10.3297Z" fill="#0BACC6"/>
<path d="M12.6766 10.3297C12.9359 10.3297 13.1461 10.1195 13.1461 9.86015C13.1461 9.60084 12.9359 9.39062 12.6766 9.39062C12.4172 9.39062 12.207 9.60084 12.207 9.86015C12.207 10.1195 12.4172 10.3297 12.6766 10.3297Z" fill="#0BACC6"/>
</svg>
