<svg width="19" height="15" viewBox="0 0 19 15" fill="none" xmlns="http://www.w3.org/2000/svg">
<path d="M9.24993 4.89216C9.65043 4.22466 10.3179 3.74787 11.0999 3.5953C11.1761 3.38551 11.2334 3.15665 11.2334 2.90872C11.2334 1.82165 10.337 0.925293 9.24993 0.925293C8.16285 0.925293 7.26649 1.80258 7.26649 2.90872C7.26649 3.15665 7.30464 3.38551 7.4 3.5953C8.18192 3.7288 8.84943 4.22466 9.24993 4.89216ZM9.24993 1.57372C9.76486 1.57372 10.2416 1.87887 10.4514 2.35565C10.5277 2.50822 10.4514 2.69894 10.2989 2.77522C10.2607 2.7943 10.2226 2.7943 10.1654 2.7943C10.0509 2.7943 9.9365 2.71801 9.87928 2.60358C9.76486 2.35565 9.51693 2.18401 9.24993 2.18401C9.07828 2.18401 8.92571 2.05051 8.92571 1.85979C8.92571 1.66908 9.07828 1.57372 9.24993 1.57372Z" fill="#0BACC6"/>
<path d="M6.88507 8.2486C7.28557 7.5811 7.95307 7.10431 8.735 6.95174C8.81128 6.74196 8.8685 6.5131 8.8685 6.26517C8.8685 5.1781 7.97214 4.28174 6.88507 4.28174C5.79799 4.28174 4.90163 5.1781 4.90163 6.26517C4.90163 6.5131 4.93978 6.74196 5.03513 6.95174C5.81706 7.10431 6.50364 7.5811 6.88507 8.2486ZM6.88507 4.94924C7.4 4.94924 7.87678 5.25438 8.08657 5.73117C8.16285 5.88374 8.08657 6.07446 7.934 6.15074C7.89585 6.16981 7.85771 6.18888 7.8005 6.18888C7.68607 6.18888 7.55257 6.1126 7.51442 5.99817C7.4 5.75024 7.15207 5.5786 6.88507 5.5786C6.71342 5.5786 6.56085 5.4451 6.56085 5.25438C6.57992 5.08274 6.71342 4.94924 6.88507 4.94924Z" fill="#0BACC6"/>
<path d="M9.63135 6.26517C9.63135 6.5131 9.66949 6.74196 9.76485 6.95174C10.5468 7.10431 11.2143 7.5811 11.6148 8.2486H11.6339C12.0344 7.5811 12.7019 7.10431 13.4838 6.95174C13.5601 6.74196 13.6173 6.5131 13.6173 6.26517C13.6173 5.1781 12.74 4.28174 11.6339 4.28174C10.5086 4.30081 9.63135 5.1781 9.63135 6.26517ZM11.6148 4.94924C12.1297 4.94924 12.6065 5.25438 12.8354 5.73117C12.9116 5.88374 12.8354 6.07446 12.6828 6.15074C12.6446 6.16981 12.5874 6.18888 12.5493 6.18888C12.4349 6.18888 12.3204 6.1126 12.2632 5.99817C12.1488 5.75024 11.9009 5.5786 11.6339 5.5786C11.4622 5.5786 11.3096 5.4451 11.3096 5.25438C11.2906 5.08274 11.4241 4.94924 11.6148 4.94924Z" fill="#0BACC6"/>
<path d="M6.52263 9.66019C6.52263 8.57312 5.62628 7.67676 4.5392 7.67676C3.45213 7.67676 2.55577 8.57312 2.55577 9.66019C2.55577 9.90812 2.59391 10.137 2.68927 10.3468C3.4712 10.4993 4.1387 10.9761 4.5392 11.6436H4.55827C4.95877 10.9761 5.62628 10.4993 6.40821 10.3468C6.46542 10.1179 6.52263 9.88905 6.52263 9.66019ZM5.58813 9.52669C5.54999 9.54576 5.49278 9.54576 5.45463 9.54576C5.32113 9.54576 5.2067 9.46947 5.16856 9.35505C5.05413 9.10712 4.8062 8.93547 4.5392 8.93547C4.36756 8.93547 4.21499 8.80197 4.21499 8.61126C4.21499 8.43962 4.36756 8.28704 4.5392 8.28704C5.0732 8.28704 5.53092 8.59219 5.75978 9.06897C5.81699 9.25969 5.7407 9.4504 5.58813 9.52669Z" fill="#0BACC6"/>
<path d="M11.2334 9.66019C11.2334 8.57312 10.337 7.67676 9.24993 7.67676C8.16285 7.67676 7.26649 8.57312 7.26649 9.66019C7.26649 9.90812 7.30464 10.137 7.4 10.3468C8.18192 10.4993 8.84943 10.9761 9.24993 11.6436C9.65043 10.9761 10.2989 10.4993 11.0999 10.3468C11.1952 10.1179 11.2334 9.88905 11.2334 9.66019ZM10.2989 9.52669C10.2607 9.54576 10.2226 9.54576 10.1654 9.54576C10.0509 9.54576 9.9365 9.46947 9.87928 9.35505C9.76486 9.10712 9.51693 8.93547 9.24993 8.93547C9.07828 8.93547 8.92571 8.80197 8.92571 8.61126C8.92571 8.43962 9.05921 8.28704 9.24993 8.28704C9.76486 8.28704 10.2416 8.59219 10.4514 9.06897C10.5277 9.25969 10.4705 9.4504 10.2989 9.52669Z" fill="#0BACC6"/>
<path d="M15.9441 9.66019C15.9441 8.57312 15.0668 7.67676 13.9606 7.67676C12.8736 7.67676 11.9772 8.57312 11.9772 9.66019C11.9772 9.90812 12.0154 10.137 12.1107 10.3468C12.8926 10.4993 13.5601 10.9761 13.9606 11.6436H13.9797C14.3802 10.9761 15.0286 10.4993 15.8296 10.3468C15.9059 10.1179 15.9441 9.88905 15.9441 9.66019ZM15.0286 9.52669C14.9905 9.54576 14.9333 9.54576 14.8951 9.54576C14.7807 9.54576 14.6663 9.46947 14.6091 9.35505C14.4946 9.10712 14.2467 8.93547 13.9797 8.93547C13.8081 8.93547 13.6555 8.80197 13.6555 8.61126C13.6555 8.43962 13.8081 8.28704 13.9797 8.28704C14.5137 8.28704 14.9714 8.59219 15.2003 9.06897C15.2575 9.25969 15.1812 9.4504 15.0286 9.52669Z" fill="#0BACC6"/>
<path d="M2.17435 11.0332C1.08728 11.0332 0.190918 11.9296 0.190918 13.0166C0.190918 14.1037 1.08728 15.0001 2.17435 15.0001C3.26142 15.0001 4.15778 14.1037 4.15778 13.0166C4.15778 11.9296 3.26142 11.0332 2.17435 11.0332ZM3.22328 12.9022C3.18514 12.9213 3.14699 12.9213 3.08978 12.9213C2.97535 12.9213 2.86092 12.845 2.80371 12.7306C2.68928 12.4826 2.44135 12.311 2.17435 12.311C2.00271 12.311 1.85013 12.1775 1.85013 11.9868C1.85013 11.8151 1.98364 11.6626 2.17435 11.6626C2.68928 11.6626 3.16607 11.9677 3.39492 12.4445C3.45214 12.6352 3.37585 12.8259 3.22328 12.9022Z" fill="#0BACC6"/>
<path d="M6.88507 11.0332C5.79799 11.0332 4.90163 11.9296 4.90163 13.0166C4.90163 14.1037 5.79799 15.0001 6.88507 15.0001C7.97214 15.0001 8.8685 14.1037 8.8685 13.0166C8.8685 11.9296 7.99121 11.0332 6.88507 11.0332ZM7.95307 12.9022C7.89585 12.9213 7.85771 12.9213 7.81957 12.9213C7.70514 12.9213 7.59071 12.845 7.5335 12.7306C7.41907 12.4826 7.17114 12.311 6.90414 12.311C6.73249 12.311 6.57992 12.1775 6.57992 11.9868C6.57992 11.8151 6.71342 11.6626 6.90414 11.6626C7.41907 11.6626 7.89585 11.9677 8.12471 12.4445C8.18192 12.6352 8.10564 12.8259 7.95307 12.9022Z" fill="#0BACC6"/>
<path d="M11.6148 11.0332C10.5277 11.0332 9.63135 11.9296 9.63135 13.0166C9.63135 14.1037 10.5277 15.0001 11.6148 15.0001C12.7019 15.0001 13.5982 14.1037 13.5982 13.0166C13.5982 11.9296 12.7019 11.0332 11.6148 11.0332ZM12.6637 12.9022C12.6256 12.9213 12.5684 12.9213 12.5302 12.9213C12.4158 12.9213 12.3014 12.845 12.2441 12.7306C12.1297 12.4826 11.8818 12.311 11.6148 12.311C11.4431 12.311 11.2906 12.1775 11.2906 11.9868C11.2906 11.8151 11.4241 11.6626 11.6148 11.6626C12.1297 11.6626 12.6065 11.9677 12.8354 12.4445C12.8926 12.6352 12.8163 12.8259 12.6637 12.9022Z" fill="#0BACC6"/>
<path d="M16.3255 11.0332C15.2384 11.0332 14.3421 11.9296 14.3421 13.0166C14.3421 14.1037 15.2384 15.0001 16.3255 15.0001C17.4126 15.0001 18.3089 14.1037 18.3089 13.0166C18.3089 11.9296 17.4126 11.0332 16.3255 11.0332ZM17.3744 12.9022C17.3363 12.9213 17.2981 12.9213 17.26 12.9213C17.1456 12.9213 17.0311 12.845 16.9739 12.7306C16.8595 12.4826 16.6116 12.311 16.3446 12.311C16.1729 12.311 16.0204 12.1775 16.0204 11.9868C16.0204 11.8151 16.1539 11.6626 16.3446 11.6626C16.8595 11.6626 17.3363 11.9677 17.5651 12.4445C17.6033 12.6352 17.5461 12.8259 17.3744 12.9022Z" fill="#0BACC6"/>
</svg>
