<svg width="17" height="18" viewBox="0 0 17 18" fill="none" xmlns="http://www.w3.org/2000/svg">
<path d="M16.3331 11.8908C15.3751 9.167 15.1309 6.76257 11.9 7.90843C11.6745 7.98357 11.4491 8.03993 11.2237 8.09628C11.0359 8.64103 10.5099 9.05429 9.89 9.05429H6.95961C6.33972 9.05429 5.81375 8.65982 5.64469 8.09628C5.41927 8.05871 5.19385 7.98357 4.96844 7.90843C4.96844 7.90843 4.96844 7.90843 4.94965 7.90843C1.7187 6.76257 1.49329 9.167 0.51649 11.8908C-0.441525 14.6145 -0.0282634 17.2444 1.43694 17.7703C2.92092 18.2963 4.91209 16.5118 5.8701 13.7692H10.9419C11.806 16.1924 13.4591 17.8643 14.8679 17.8643C15.0558 17.8643 15.2436 17.8267 15.4127 17.7703C16.8779 17.2444 17.2911 14.6145 16.3331 11.8908ZM5.81375 11.4963C5.81375 11.5714 5.75739 11.6278 5.68225 11.6278H4.72424V12.5858C4.72424 12.6609 4.66789 12.7173 4.59275 12.7173H3.86015C3.78501 12.7173 3.72866 12.6609 3.72866 12.5858V11.6278H2.77064C2.6955 11.6278 2.63915 11.5714 2.63915 11.4963V10.7637C2.63915 10.6886 2.6955 10.6322 2.77064 10.6322H3.72866V9.67419C3.72866 9.59905 3.78501 9.54269 3.86015 9.54269H4.59275C4.66789 9.54269 4.72424 9.59905 4.72424 9.67419V10.6322H5.68225C5.75739 10.6322 5.81375 10.6886 5.81375 10.7637V11.4963ZM12.7265 9.24214C13.0834 9.24214 13.3652 9.52391 13.3652 9.88082C13.3652 10.2377 13.0834 10.5195 12.7265 10.5195C12.3696 10.5195 12.0878 10.2377 12.0878 9.88082C12.0878 9.52391 12.3696 9.24214 12.7265 9.24214ZM11.4679 11.7593C11.1298 11.7593 10.8292 11.4775 10.8292 11.1206C10.8292 10.7637 11.111 10.4819 11.4679 10.4819C11.8248 10.4819 12.1066 10.7637 12.1066 11.1206C12.1066 11.4775 11.8248 11.7593 11.4679 11.7593ZM12.7265 13.0178C12.3696 13.0178 12.0878 12.7361 12.0878 12.3792C12.0878 12.041 12.3696 11.7405 12.7265 11.7405C13.0834 11.7405 13.3652 12.0223 13.3652 12.3792C13.3652 12.7361 13.0834 13.0178 12.7265 13.0178ZM13.9663 11.7593C13.6094 11.7593 13.3276 11.4775 13.3276 11.1206C13.3276 10.7637 13.6094 10.4819 13.9663 10.4819C14.3232 10.4819 14.6049 10.7637 14.6049 11.1206C14.6049 11.4775 14.3232 11.7593 13.9663 11.7593Z" fill="#0BACC6"/>
<path d="M5.94514 4.97792L6.58381 5.14698C6.58381 5.14698 6.58381 5.14698 6.6026 5.16576C6.62138 5.18455 6.64017 5.22212 6.65895 5.2409C6.9595 5.54146 7.31641 5.76687 7.74846 5.87958V6.55582C7.74846 6.7061 7.61697 6.83759 7.46669 6.83759H6.9595C6.75287 6.83759 6.6026 7.00665 6.6026 7.1945V7.64533C6.6026 7.85196 6.77166 8.00224 6.9595 8.00224H9.8899C10.0965 8.00224 10.2468 7.83318 10.2468 7.64533V7.1945C10.2468 6.98787 10.0777 6.83759 9.8899 6.83759H9.38272C9.23244 6.83759 9.10095 6.7061 9.10095 6.55582V5.87958C9.51421 5.76687 9.8899 5.56024 10.1905 5.2409C10.2092 5.22212 10.228 5.20333 10.2468 5.16576C10.2468 5.16576 10.2468 5.16576 10.2656 5.14698L10.9043 4.97792C12.1253 4.6398 12.9894 3.5315 12.9894 2.27294V1.89724C12.9894 1.63426 12.7827 1.42763 12.5197 1.42763H11.2424V0.93923C11.4866 0.920445 11.6744 0.713815 11.6744 0.469615C11.6744 0.206631 11.4678 0 11.2048 0H5.64458C5.3816 0 5.17497 0.206631 5.17497 0.469615C5.17497 0.713815 5.36281 0.920445 5.60701 0.93923V1.40884H4.32966C4.06668 1.40884 3.86005 1.61548 3.86005 1.87846V2.25415C3.87883 3.5315 4.72414 4.6398 5.94514 4.97792ZM11.2236 2.34807H12.0313C11.9938 3.06189 11.5617 3.70057 10.9043 3.98233C11.1297 3.36244 11.2048 2.72377 11.2236 2.34807ZM7.05343 2.53592C7.07221 2.47957 7.12857 2.442 7.18492 2.42321L7.80481 2.34807C7.89873 2.32929 7.97387 2.27294 8.01144 2.1978L8.27443 1.63426C8.29321 1.57791 8.34956 1.54034 8.4247 1.54034C8.48106 1.54034 8.53741 1.57791 8.57498 1.63426L8.83796 2.1978C8.87553 2.29172 8.95067 2.34807 9.04459 2.34807L9.66449 2.42321C9.72084 2.42321 9.77719 2.47957 9.79598 2.53592C9.81476 2.59227 9.79598 2.64863 9.75841 2.70498L9.30758 3.11824C9.23244 3.1746 9.21366 3.2873 9.23244 3.36244L9.34515 3.98233C9.36393 4.03869 9.32636 4.09504 9.28879 4.13261C9.23244 4.17018 9.17609 4.17018 9.11973 4.1514L8.57498 3.85084C8.53741 3.83206 8.48106 3.81327 8.44349 3.81327C8.40592 3.81327 8.34956 3.83206 8.312 3.85084L7.76724 4.1514C7.71089 4.18897 7.65453 4.17018 7.59818 4.13261C7.54183 4.09504 7.52304 4.03869 7.54183 3.98233L7.65453 3.36244C7.67332 3.26852 7.63575 3.1746 7.5794 3.11824L7.12857 2.6862C7.05343 2.64863 7.03464 2.59227 7.05343 2.53592ZM5.6258 2.34807C5.64458 2.72377 5.71972 3.36244 5.94514 3.98233C5.28768 3.70057 4.85563 3.06189 4.81806 2.34807H5.6258V2.34807Z" fill="#0BACC6"/>
</svg>
