<svg width="21" height="20" viewBox="0 0 21 20" fill="none" xmlns="http://www.w3.org/2000/svg">
<path d="M9.28169 0.89415L6.87756 6.40436L1.13337 6.82191C-0.138576 6.91436 -0.285959 8.2992 0.422218 8.92782L4.91387 12.9148L3.54208 18.5122C3.28116 19.5767 4.60058 20.2618 5.32222 19.8384L10.5067 16.7965C10.5067 16.7965 13.7734 18.8214 15.4067 19.8338C16.338 20.4111 17.3946 19.3664 17.2145 18.5492C16.7832 16.5916 15.9207 12.6765 15.9207 12.6765L20.3206 8.96025C21.2962 8.13626 20.6039 6.92797 19.6599 6.83598L13.6818 6.2533L11.5024 0.922013C10.9348 -0.466349 9.70121 -0.0673021 9.28169 0.894221V0.89415Z" fill="#0D212F"/>
</svg>
