<svg width="17" height="12" viewBox="0 0 17 12" fill="none" xmlns="http://www.w3.org/2000/svg">
<path d="M13.4081 8.19727L9.85294 6.36719C10.0287 6.75935 10.2687 7.11293 10.5687 7.4108C10.8708 7.70867 10.7744 7.82654 10.618 8.09869L9.05362 10.8588L10.2194 11.4588L11.5544 8.58085C11.6852 8.29798 11.7216 8.14798 12.1438 8.22084C12.5595 8.29156 12.9881 8.28084 13.4081 8.19727Z" fill="#0BACC6"/>
<path d="M9.62768 5.71734L14.0679 8.00172C16.138 7.18526 17.3937 4.74873 16.888 2.60149C16.393 0.49283 14.3829 -0.540071 12.3792 0.282821C10.3391 1.12071 9.08552 3.55725 9.62768 5.71734Z" fill="#0BACC6"/>
<path d="M7.9692 6.23836C7.48489 5.2826 6.617 4.50685 5.53695 4.07612C3.63401 3.31323 1.06676 3.76539 0.239578 5.83762C-1.0269 9.00276 2.99113 11.9836 6.11555 10.8757L7.9692 6.23836Z" fill="#0BACC6"/>
<path d="M11.5718 9.67139L11.0275 10.8436L11.2889 10.9593L11.7754 9.74425L11.5718 9.67139Z" fill="#0BACC6"/>
<path d="M9.02564 9.94731L9.58066 8.96798L8.74277 8.67226C8.46847 8.57797 8.33775 8.53296 8.36775 8.13438C8.3999 7.71221 8.35061 7.28791 8.22632 6.87646L6.74126 10.5902C7.11413 10.378 7.44414 10.1037 7.71201 9.77802C7.98202 9.448 8.1106 9.53586 8.39133 9.6623L9.02564 9.94731Z" fill="#0BACC6"/>
<path d="M7.5297 1.64355C8.07187 1.64355 8.51332 2.08286 8.51332 2.62503C8.51332 3.16719 8.07187 3.6065 7.5297 3.6065C6.98968 3.6065 6.54823 3.16719 6.54823 2.62503C6.54823 2.08286 6.98968 1.64355 7.5297 1.64355Z" fill="#0BACC6"/>
</svg>
