<svg width="15" height="14" viewBox="0 0 15 14" fill="none" xmlns="http://www.w3.org/2000/svg">
<path d="M5.87714 7.29831C5.92076 7.66863 5.63721 7.9978 5.26642 8.03894L1.01323 8.55327C0.424322 8.61499 -0.077337 8.14181 0.0099081 7.56576L0.620624 3.69802C0.686057 3.3277 1.03504 3.08082 1.42764 3.14254H1.44945C1.84205 3.20426 2.10379 3.53343 2.03836 3.90375L1.71119 6.0022L7.86196 0.200588C8.14551 -0.0668626 8.60355 -0.0668626 8.88709 0.200588C9.17064 0.468038 9.17064 0.900073 8.88709 1.16752L2.69269 7.01029L5.07012 6.72226C5.46272 6.66054 5.83352 6.92799 5.87714 7.29831ZM9.23607 6.82513V6.86627C9.30151 7.23659 9.65049 7.48347 10.0431 7.42175L12.137 7.13373L6.09525 12.8325C5.8117 13.0999 5.8117 13.532 6.09525 13.7994C6.3788 14.0669 6.83683 14.0669 7.12038 13.7994L13.3802 7.87436L13.053 10.2403C13.0094 10.6106 13.2712 10.9397 13.6856 11.0015C14.0782 11.0426 14.4272 10.7752 14.4708 10.4254L14.9942 6.43424C15.0597 5.87877 14.558 5.40558 13.9473 5.48788L9.82498 6.06392C9.43237 6.10507 9.17064 6.45481 9.23607 6.82513Z" fill="#0BACC6"/>
</svg>
