<svg width="17" height="16" viewBox="0 0 17 16" fill="none" xmlns="http://www.w3.org/2000/svg">
<path d="M2.42124 13.7308C3.43531 13.2731 4.39848 12.732 5.27001 12.0363C3.03824 9.55667 1.49269 6.39355 1.75944 2.99854C-0.814431 6.20234 -0.539531 10.8524 2.42124 13.7308Z" fill="#0BACC6"/>
<path d="M12.403 8.1779C11.0488 7.73039 9.59901 7.60427 8.25505 8.16773C7.90481 11.0481 5.27799 12.9622 2.83444 14.1075C3.73856 14.8744 4.78928 15.4256 5.93572 15.7307C9.34447 14.2316 11.2688 11.6665 12.403 8.1779Z" fill="#0BACC6"/>
<path d="M15.7731 9.96515C14.8711 9.31828 13.9222 8.75685 12.8857 8.35205C11.8512 11.5213 9.88012 14.4444 6.80328 15.909C10.8738 16.5233 14.7631 13.9623 15.7731 9.96515Z" fill="#0BACC6"/>
<path d="M5.97253 4.10285C6.26372 5.50235 6.88072 6.82048 8.04547 7.69923C10.711 6.57028 13.6799 7.88231 15.8913 9.42012C16.099 8.25862 16.0481 7.05034 15.7406 5.91121C12.7615 3.72247 9.55029 3.34208 5.97253 4.10285Z" fill="#0BACC6"/>
<path d="M5.83594 0.299046C5.72802 1.40156 5.7158 2.5 5.88278 3.59844C9.14288 2.90887 12.6535 3.15093 15.4615 5.07117C13.9485 1.23069 9.7721 -0.8055 5.83594 0.299046Z" fill="#0BACC6"/>
<path d="M5.30648 0.467773C4.19466 0.866468 3.18059 1.5113 2.34571 2.3453C2.01379 6.12883 3.12968 8.89732 5.66079 11.7065C6.72985 10.7565 7.56473 9.56453 7.74596 8.11621C5.42662 6.37497 5.07841 3.15083 5.30648 0.467773Z" fill="#0BACC6"/>
</svg>
