<svg width="18" height="15" viewBox="0 0 18 15" fill="none" xmlns="http://www.w3.org/2000/svg">
<path d="M5.50034 0.803571H12.8664V1.47321H12.0628V1.33929C12.0628 1.26429 12.0039 1.20536 11.9289 1.20536C11.8539 1.20536 11.795 1.26429 11.795 1.33929V1.47321H10.9914V1.07143C10.9914 0.996429 10.9325 0.9375 10.8575 0.9375C10.7825 0.9375 10.7236 0.996429 10.7236 1.07143V1.47321H10.3218C10.2468 1.47321 10.1878 1.53214 10.1878 1.60714C10.1878 1.68214 10.2468 1.74107 10.3218 1.74107H11.795V2.54464H11.1253C11.0503 2.54464 10.9914 2.60357 10.9914 2.67857C10.9914 2.75357 11.0503 2.8125 11.1253 2.8125H11.795V2.94643C11.795 3.02143 11.8539 3.08036 11.9289 3.08036C12.0039 3.08036 12.0628 3.02143 12.0628 2.94643V2.8125H12.4646C12.5396 2.8125 12.5986 2.75357 12.5986 2.67857C12.5986 2.60357 12.5396 2.54464 12.4646 2.54464H12.0628V1.74107H13.9378V2.54464H13.5361C13.4611 2.54464 13.4021 2.60357 13.4021 2.67857C13.4021 2.75357 13.4611 2.8125 13.5361 2.8125H13.9378V2.94643C13.9378 3.02143 13.9968 3.08036 14.0718 3.08036C14.1468 3.08036 14.2057 3.02143 14.2057 2.94643V2.8125H15.0093V3.48214C15.0093 3.55714 15.0682 3.61607 15.1432 3.61607C15.2182 3.61607 15.2771 3.55714 15.2771 3.48214V2.8125H15.4111C15.4861 2.8125 15.545 2.75357 15.545 2.67857C15.545 2.60357 15.4861 2.54464 15.4111 2.54464H15.2771V1.74107H15.4111C15.4861 1.74107 15.545 1.68214 15.545 1.60714C15.545 1.53214 15.4861 1.47321 15.4111 1.47321H15.2771V0.803571H15.6789V3.75H9.78605C9.63873 3.75 9.5182 3.87054 9.5182 4.01786C9.5182 4.16518 9.63873 4.28571 9.78605 4.28571H15.6789V8.40536C15.6334 8.42411 15.5878 8.44554 15.545 8.475C15.4459 8.53929 15.3173 8.57143 15.1459 8.57143H15.1432C14.9959 8.57143 14.878 8.69196 14.878 8.83929C14.878 8.98661 14.9986 9.10714 15.1486 9.10714C15.4271 9.10714 15.6548 9.04554 15.8423 8.91964C15.9119 8.87411 15.9816 8.87143 16.0512 8.91964C16.2441 9.04554 16.4718 9.10714 16.7503 9.10714C16.8977 9.10714 17.0182 8.98661 17.0182 8.83929C17.0182 8.69196 16.8977 8.57143 16.7503 8.57143C16.5789 8.57143 16.4503 8.53929 16.3459 8.47232C16.303 8.44554 16.2602 8.42411 16.2146 8.40536V0.267857C16.2146 0.120536 16.0941 0 15.9468 0C15.7994 0 15.6789 0.120536 15.6789 0.267857H5.50034C5.35302 0.267857 5.23248 0.388393 5.23248 0.535714C5.23248 0.683036 5.35302 0.803571 5.50034 0.803571ZM14.2057 0.803571H15.0093V1.47321H14.2057V0.803571ZM14.2057 1.74107H15.0093V2.54464H14.2057V1.74107ZM13.1343 0.803571H13.9378V1.47321H13.1343V0.803571Z" fill="#0BACC6"/>
<path d="M4.42872 3.21429C4.57604 3.21429 4.69657 3.09375 4.69657 2.94643V0.267857C4.69657 0.120536 4.57604 0 4.42872 0C4.28139 0 4.16086 0.120536 4.16086 0.267857V2.94643C4.16086 3.09375 4.28139 3.21429 4.42872 3.21429Z" fill="#0BACC6"/>
<path d="M7.91112 1.47314C7.83612 1.47314 7.77719 1.53207 7.77719 1.60707C7.77719 1.68207 7.83612 1.741 7.91112 1.741H8.71469C8.78969 1.741 8.84862 1.68207 8.84862 1.60707C8.84862 1.53207 8.78969 1.47314 8.71469 1.47314H7.91112Z" fill="#0BACC6"/>
<path d="M5.23229 1.74107H5.90193V2.54464H5.768C5.693 2.54464 5.63407 2.60357 5.63407 2.67857C5.63407 2.75357 5.693 2.8125 5.768 2.8125H6.97336V2.94643C6.97336 3.02143 7.03229 3.08036 7.10729 3.08036C7.18229 3.08036 7.24122 3.02143 7.24122 2.94643V2.8125H7.91086C7.98586 2.8125 8.04479 2.75357 8.04479 2.67857C8.04479 2.60357 7.98586 2.54464 7.91086 2.54464H7.24122V2.41071C7.24122 2.33571 7.18229 2.27679 7.10729 2.27679C7.03229 2.27679 6.97336 2.33571 6.97336 2.41071V2.54464H6.16979V1.74107H6.30372C6.37872 1.74107 6.43764 1.68214 6.43764 1.60714C6.43764 1.53214 6.37872 1.47321 6.30372 1.47321H6.16979V1.07143C6.16979 0.996429 6.11086 0.9375 6.03586 0.9375C5.96086 0.9375 5.90193 0.996429 5.90193 1.07143V1.47321H5.23229C5.15729 1.47321 5.09836 1.53214 5.09836 1.60714C5.09836 1.68214 5.15729 1.74107 5.23229 1.74107Z" fill="#0BACC6"/>
<path d="M12.5932 11.7536C12.9602 11.3331 13.579 11.3331 13.9432 11.7536C14.5593 12.4634 15.3415 12.8572 16.1424 12.8572H16.2147C16.362 12.8572 16.4825 12.7366 16.4825 12.5893C16.4825 12.442 16.362 12.3215 16.2147 12.3215H16.1424C15.4995 12.3215 14.862 11.9947 14.3477 11.4027C14.0611 11.0733 13.6781 10.8911 13.2682 10.8911C12.8584 10.8911 12.4754 11.0733 12.1888 11.4027C12.0924 11.5152 12.1031 11.684 12.2156 11.7804C12.3254 11.8768 12.4968 11.8661 12.5932 11.7536Z" fill="#0BACC6"/>
<path d="M15.545 8.03578C15.545 7.96078 15.4861 7.90186 15.4111 7.90186H11.9289C11.8539 7.90186 11.795 7.96078 11.795 8.03578C11.795 8.11078 11.8539 8.16971 11.9289 8.16971H15.4111C15.4861 8.16971 15.545 8.11078 15.545 8.03578Z" fill="#0BACC6"/>
<path d="M16.4823 8.16971H17.018C17.093 8.16971 17.1519 8.11078 17.1519 8.03578C17.1519 7.96078 17.093 7.90186 17.018 7.90186H16.4823C16.4073 7.90186 16.3484 7.96078 16.3484 8.03578C16.3484 8.11078 16.4073 8.16971 16.4823 8.16971Z" fill="#0BACC6"/>
<path d="M17.0181 14.4643H16.8815C15.569 14.4643 14.2806 13.95 13.2493 13.0179C12.7511 12.5679 12.0922 12.3214 11.3931 12.3214C11.0663 12.3214 10.7475 12.3777 10.4502 12.4821C11.0582 11.5661 11.3931 10.4893 11.3931 9.375C11.3931 6.27321 8.86985 3.75 5.76807 3.75C2.66628 3.75 0.143066 6.27321 0.143066 9.375C0.143066 11.3545 1.17164 13.0929 2.72253 14.0973C2.1145 14.3357 1.46092 14.4643 0.799316 14.4643H0.678781C0.531459 14.4643 0.410924 14.5848 0.410924 14.7321C0.410924 14.8795 0.531459 15 0.678781 15H0.799316C2.07164 15 3.32253 14.5768 4.32164 13.808C4.66985 13.5402 5.13592 13.3929 5.63414 13.3929C6.13235 13.3929 6.59842 13.5402 6.94664 13.808C7.94575 14.5768 9.19664 15 10.469 15H10.5895C10.7368 15 10.8574 14.8795 10.8574 14.7321C10.8574 14.5848 10.7368 14.4643 10.5895 14.4643H10.469C9.90646 14.4643 9.352 14.3732 8.82432 14.1991C9.20467 13.9795 9.5636 13.7196 9.89842 13.4143C10.2949 13.0554 10.8279 12.8571 11.3931 12.8571C11.9582 12.8571 12.4913 13.0554 12.8877 13.4143C14.0181 14.4375 15.435 15 16.8815 15H17.0181C17.1654 15 17.2859 14.8795 17.2859 14.7321C17.2859 14.5848 17.1654 14.4643 17.0181 14.4643ZM5.76807 4.28571C8.13325 4.28571 10.1207 5.90893 10.6886 8.09732C9.73771 7.30179 7.91092 6.77143 5.76807 6.77143C5.57521 6.77143 5.38503 6.77679 5.20021 6.7875C4.99396 6.79821 4.79575 6.66696 4.75021 6.46607C4.71807 6.32143 4.6511 6.19286 4.54664 6.08839L4.46628 6.00804C4.37521 5.91696 4.33771 5.74286 4.39128 5.625C4.77967 4.77321 5.28057 4.28571 5.76807 4.28571ZM4.00825 7.62589C3.79664 7.84018 3.54485 7.98482 3.29575 8.03304C3.06539 8.07857 2.86985 8.03304 2.74396 7.90446C2.61807 7.77589 2.57253 7.57768 2.61807 7.34196C2.66628 7.09018 2.80825 6.83304 3.01985 6.61875C3.29039 6.34286 3.61985 6.19286 3.89575 6.19286C4.04842 6.19286 4.18503 6.24107 4.28414 6.34018C4.55735 6.61607 4.43414 7.19196 4.00825 7.62589ZM4.49039 4.45446C4.26807 4.71964 4.06717 5.05714 3.89307 5.45089C3.7886 5.68661 3.60378 5.88214 3.36807 5.98661C3.34128 5.99732 3.3145 6.01071 3.28771 6.02411C3.0895 6.12321 2.84842 6.075 2.69039 5.91696L2.36896 5.59821C2.96628 5.05982 3.6895 4.66339 4.49039 4.45446ZM1.99128 5.97589L2.31003 6.29464C2.46807 6.45268 2.51628 6.69643 2.4145 6.89732C2.40646 6.91339 2.39842 6.92946 2.39039 6.94821C2.2886 7.18393 2.1145 7.38214 1.88414 7.49732C1.54128 7.66607 1.0645 7.91786 0.847531 8.1C1.05646 7.29643 1.45289 6.57321 1.99128 5.97589ZM3.31717 13.8214C1.74753 12.9562 0.678781 11.2929 0.678781 9.375C0.678781 8.8875 1.16628 8.38661 2.01807 7.99821C2.13592 7.94464 2.31003 7.97946 2.39842 8.07321L2.47878 8.15625C2.527 8.20446 2.61539 8.24732 2.7145 8.27946C3.0011 8.37589 3.18057 8.65714 3.16985 8.95982C3.1645 9.09643 3.16182 9.23571 3.16182 9.37768C3.16182 10.9821 3.46182 12.4045 3.94396 13.4196C3.74842 13.567 3.53682 13.7036 3.31717 13.8214ZM8.17342 13.9339C7.85735 13.7812 7.552 13.5991 7.27342 13.3848C6.83146 13.0446 6.25021 12.8571 5.63414 12.8571C5.1895 12.8571 4.76628 12.9562 4.39664 13.1357C3.98414 12.2411 3.70021 10.942 3.70021 9.375C3.70021 9.10179 3.71092 8.83929 3.72967 8.58214C3.74039 8.4375 3.83682 8.31161 3.97342 8.26071C4.11003 8.2125 4.26003 8.24464 4.36182 8.34643L8.98503 12.9696C9.13503 13.1196 9.10825 13.3687 8.93414 13.4893C8.69039 13.658 8.43592 13.808 8.17342 13.9339ZM9.82878 12.442C9.70557 12.6054 9.46717 12.6268 9.31985 12.4821L4.7395 7.97143C4.63771 7.86964 4.60289 7.71696 4.65378 7.58304C4.70467 7.44643 4.82789 7.35 4.97521 7.33929C5.22967 7.32054 5.49485 7.30982 5.76807 7.30982C8.8136 7.30982 10.8574 8.37857 10.8574 9.37768C10.8574 10.4866 10.4957 11.5607 9.82878 12.442Z" fill="#0BACC6"/>
</svg>
