<svg width="26" height="26" viewBox="0 0 26 26" fill="none" xmlns="http://www.w3.org/2000/svg">
<path fill-rule="evenodd" clip-rule="evenodd" d="M13 26C5.8203 26 0 20.1797 0 13C0 5.8203 5.8203 0 13 0C20.1797 0 26 5.8203 26 13C26 20.1797 20.1797 26 13 26ZM5.99193 14.8913C5.89251 15.1503 5.93046 15.5501 6.07874 15.7876L7.87113 18.6577C8.01849 18.8937 8.36203 19.0692 8.63995 19.0495L12.7738 18.7574C13.051 18.7378 13.3667 18.5159 13.4777 18.2641L15.0119 14.7861C15.1235 14.5333 15.077 14.1503 14.9067 13.9287L12.2872 10.5204C12.1175 10.2997 11.757 10.1499 11.4823 10.1857L8.10158 10.6268C7.82668 10.6627 7.52336 10.9014 7.42381 11.1608L5.99193 14.8913ZM12.9971 9.96146L15.6352 13.394C15.8054 13.6155 16.1661 13.7764 16.4439 13.7573L19.8224 13.5261C20.1019 13.507 20.408 13.2826 20.51 13.0247L21.7919 9.78154C21.8946 9.52167 21.8473 9.12936 21.6879 8.90096L19.4695 5.72275C19.3083 5.4917 18.957 5.3147 18.6809 5.32149L14.8817 5.41487C14.6068 5.42163 14.2964 5.636 14.1911 5.89363L12.882 9.09722C12.7763 9.35573 12.8282 9.74178 12.9971 9.96146ZM2.01743 15.0048C2.09627 15.2702 2.37908 15.4425 2.65335 15.3889L4.51692 15.0245C4.78928 14.9712 5.08969 14.7206 5.18941 14.4608L6.68347 10.5683C6.78251 10.3103 6.77624 9.89107 6.6713 9.63642L5.60094 7.03892C5.49518 6.78227 5.18439 6.60363 4.91167 6.63928L3.56003 6.81598C3.28511 6.85192 2.97944 7.08786 2.87601 7.34617L1.19127 11.5538C1.17113 11.7199 1.15442 11.8871 1.14121 12.0553L2.01743 15.0048ZM16.3125 21.6623L13.9788 19.9071C13.7584 19.7414 13.354 19.6221 13.0769 19.6417L8.74672 19.9477C8.46733 19.9675 8.17714 20.197 8.09351 20.4607L7.67402 21.7836C7.59055 22.0468 7.67876 22.4233 7.8714 22.6234L9.57881 24.3964C10.6623 24.7212 11.8108 24.8958 13 24.8958C13.7758 24.8958 14.5343 24.8215 15.2688 24.6797L16.4774 22.4057C16.6064 22.163 16.5335 21.8285 16.3125 21.6623ZM18.2723 21.6175C18.0512 21.7851 17.7664 22.1195 17.6354 22.3659L16.5825 24.3468C19.2718 23.4985 21.5485 21.7206 23.0356 19.39L21.9838 19.25C21.7081 19.2132 21.3054 19.3192 21.0841 19.4869L18.2723 21.6175ZM23.2445 9.88685C22.9704 9.84987 22.6651 10.0303 22.5637 10.2868L21.2084 13.7155C21.1065 13.9734 21.0691 14.405 21.1238 14.6736L21.766 17.8316C21.8212 18.1029 22.09 18.3526 22.3645 18.3892L23.029 18.4777C23.3043 18.5143 23.5275 18.5441 23.5275 18.5441C24.4012 16.8886 24.8958 15.002 24.8958 13C24.8958 11.9854 24.7687 11.0005 24.5297 10.0603L23.2445 9.88685ZM19.1702 3.9256L19.4341 2.99269C17.5792 1.79765 15.3706 1.10425 13 1.10425C12.2776 1.10425 11.5702 1.16864 10.8833 1.292L10.5375 2.24616C10.4433 2.50636 10.5682 2.81623 10.8163 2.93917L13.5812 4.30943C13.8283 4.43185 14.2555 4.52651 14.5331 4.51969L18.5308 4.42143C18.8088 4.4146 19.0947 4.19261 19.1702 3.9256ZM3.43919 5.92061C3.43919 5.92061 3.66195 5.89149 3.93674 5.85557L5.42989 5.66038C5.70662 5.6242 6.10812 5.46268 6.33101 5.29905L8.84213 3.45545C9.06257 3.29362 9.32218 2.94814 9.41652 2.68781L9.83628 1.52955C7.24084 2.24381 5.0006 3.81537 3.43919 5.92061ZM5.5744 22.3915C5.5744 22.3915 6.31166 23.1859 7.47358 23.6761L6.97725 23.0666C6.80238 22.8518 6.4408 22.6198 6.17469 22.5497L5.5744 22.3915Z" fill="#4663FF"/>
</svg>
