<svg width="20" height="19" viewBox="0 0 20 19" fill="none" xmlns="http://www.w3.org/2000/svg">
<path d="M16.8224 8.77414L16.5371 7.17484L18.0521 5.17572L15.8217 2.40072L13.3925 3.37326L12.193 2.74435L11.5079 0.429688H7.96354L7.27843 2.74435L6.07896 3.37326L3.64975 2.40072L1.42154 5.17355L2.93655 7.17268L2.65127 8.77198L0.420898 9.88717L1.106 13.1722L3.67785 13.4013L4.50559 14.5446L4.22031 16.9154L7.27843 18.3721L8.90799 16.6583H10.5656L12.1952 18.3721L15.2533 16.9154L14.968 14.5446L15.7979 13.4013L18.3698 13.1722L19.0549 9.88717L16.8224 8.77414ZM9.73573 12.6168C7.96138 12.6168 6.52201 11.1774 6.52201 9.40305C6.52201 7.6287 7.96138 6.18933 9.73573 6.18933C11.5101 6.18933 12.9495 7.6287 12.9495 9.40305C12.9495 11.1774 11.5101 12.6168 9.73573 12.6168Z" fill="#7F7F7F"/>
<path d="M17.2397 8.65783C17.1446 8.12401 17.0495 7.59019 16.9544 7.05853C16.9393 7.16875 16.9263 7.28113 16.9112 7.39136C17.3542 6.80783 17.7951 6.22214 18.2382 5.63861C18.3008 5.55648 18.3635 5.47436 18.4262 5.39007C18.5494 5.22798 18.4694 5.00537 18.3592 4.86706C17.7065 4.0566 17.056 3.24615 16.4033 2.43569C16.3125 2.32331 16.2218 2.20876 16.131 2.09638C16.0445 1.98832 15.8371 1.93429 15.7095 1.98616C15.0007 2.26928 14.2896 2.55456 13.5808 2.83768C13.4813 2.87874 13.3798 2.91764 13.2803 2.9587C13.3906 2.97383 13.5029 2.9868 13.6132 3.00193C13.2133 2.79229 12.8135 2.58265 12.4137 2.37301C12.4807 2.45946 12.5455 2.54591 12.6125 2.63236C12.4115 1.9559 12.2127 1.2816 12.0117 0.60514C11.9836 0.510047 11.9555 0.412792 11.9274 0.317699C11.8734 0.133995 11.7027 0 11.5103 0C10.4751 0 9.43986 0 8.40464 0C8.25984 0 8.11288 0 7.96807 0C7.77573 0 7.60499 0.133995 7.55096 0.317699C7.34997 0.994159 7.15113 1.66846 6.95014 2.34492C6.92205 2.44001 6.89395 2.53727 6.86585 2.63236C6.93285 2.54591 6.99769 2.45946 7.06469 2.37301C6.66486 2.58265 6.26504 2.79229 5.86521 3.00193C5.97543 2.9868 6.08782 2.97383 6.19804 2.9587C5.48916 2.67558 4.77812 2.3903 4.06924 2.10718C3.96983 2.06612 3.86825 2.02722 3.76883 1.98616C3.64132 1.93429 3.43385 1.99048 3.3474 2.09638C2.69471 2.90683 2.04418 3.71729 1.3915 4.52775C1.30073 4.64013 1.20996 4.75467 1.11918 4.86706C1.00896 5.00321 0.928997 5.23014 1.05219 5.39007C1.49524 5.9736 1.93612 6.55929 2.37917 7.14282C2.44185 7.22494 2.50452 7.30707 2.5672 7.39136C2.55207 7.28113 2.5391 7.16875 2.52397 7.05853C2.42888 7.59235 2.33379 8.12617 2.23869 8.65783C2.30569 8.57138 2.37053 8.48493 2.43753 8.39848C1.787 8.72482 1.13431 9.04901 0.483787 9.37535C0.393016 9.42074 0.300084 9.46612 0.209313 9.51367C0.0320931 9.60228 -0.0262597 9.82272 0.010481 10.0021C0.211474 10.9638 0.412467 11.9234 0.611299 12.8852C0.639395 13.0192 0.66749 13.1532 0.695586 13.2893C0.736649 13.486 0.928997 13.5897 1.1127 13.607C1.86264 13.674 2.61042 13.741 3.36036 13.8058C3.46842 13.8145 3.57649 13.8253 3.68455 13.8339C3.5592 13.7626 3.43601 13.6913 3.31066 13.62C3.58729 14.0003 3.86393 14.3829 4.1384 14.7633C4.11895 14.6898 4.0995 14.6185 4.08005 14.545C3.99576 15.2366 3.91364 15.9303 3.82935 16.6219C3.81854 16.7192 3.80557 16.8186 3.79477 16.9158C3.77748 17.052 3.88554 17.2314 4.00873 17.2897C4.90131 17.7155 5.79389 18.1412 6.68647 18.567C6.81399 18.6275 6.93934 18.688 7.06685 18.7485C7.23758 18.8307 7.45154 18.8285 7.58986 18.6815C8.06533 18.1823 8.53864 17.6809 9.0141 17.1817C9.0811 17.1103 9.15026 17.039 9.21726 16.9677C9.11568 17.0109 9.0141 17.052 8.91253 17.0952C9.4658 17.0952 10.0169 17.0952 10.5702 17.0952C10.4686 17.052 10.367 17.0109 10.2654 16.9677C10.7409 17.4669 11.2164 17.9683 11.6897 18.4676C11.7567 18.5389 11.8258 18.6102 11.8928 18.6815C12.0333 18.8285 12.2451 18.8307 12.4159 18.7485C13.3084 18.3228 14.201 17.897 15.0936 17.4713C15.2211 17.4107 15.3465 17.3502 15.474 17.2897C15.5972 17.2314 15.7052 17.0541 15.6879 16.9158C15.6036 16.2242 15.5215 15.5305 15.4372 14.8389C15.4264 14.7416 15.4135 14.6422 15.4027 14.545C15.3832 14.6185 15.3638 14.6898 15.3443 14.7633C15.6209 14.3829 15.8976 14.0003 16.1742 13.62C16.0489 13.6913 15.9257 13.7626 15.8003 13.8339C16.5503 13.7669 17.298 13.6999 18.048 13.6351C18.156 13.6265 18.2641 13.6157 18.3722 13.607C18.5537 13.5919 18.7482 13.486 18.7893 13.2893C18.9903 12.3276 19.1913 11.368 19.3901 10.4063C19.4182 10.2723 19.4463 10.1383 19.4744 10.0021C19.5111 9.82272 19.4528 9.60228 19.2756 9.51367C18.625 9.18732 17.9723 8.86314 17.3218 8.5368C17.231 8.49141 17.1381 8.44603 17.0473 8.39848C16.8463 8.2969 16.5697 8.33797 16.4552 8.55409C16.3514 8.75076 16.3947 9.0382 16.6108 9.14626C17.2613 9.47261 17.914 9.79679 18.5645 10.1231C18.6553 10.1685 18.7482 10.2139 18.839 10.2614C18.772 10.0994 18.7072 9.93511 18.6402 9.77301C18.4392 10.7348 18.2382 11.6943 18.0393 12.6561C18.0112 12.7901 17.9831 12.9241 17.955 13.0602C18.0934 12.9543 18.2338 12.8484 18.3722 12.7425C17.5163 12.8182 16.6583 12.883 15.8046 12.9716C15.6317 12.9889 15.5302 13.0494 15.4264 13.1877C15.4113 13.2072 15.3962 13.2288 15.381 13.2504C15.3119 13.3455 15.2427 13.4406 15.1736 13.5357C15.0072 13.7648 14.8407 13.9939 14.6765 14.223C14.603 14.3245 14.5338 14.4088 14.5403 14.5493C14.5425 14.5904 14.5511 14.6314 14.5555 14.6725C14.5836 14.9145 14.6138 15.1544 14.6419 15.3965C14.7024 15.9044 14.7651 16.4123 14.8256 16.9202C14.8969 16.7948 14.9683 16.6716 15.0396 16.5463C14.147 16.972 13.2544 17.3978 12.3618 17.8235C12.2343 17.8841 12.109 17.9446 11.9815 18.0051C12.1565 18.0267 12.3316 18.0505 12.5045 18.0721C12.2041 17.7544 11.9015 17.4388 11.6011 17.1211C11.4131 16.9245 11.2272 16.7278 11.0392 16.5311C10.8922 16.3777 10.7841 16.235 10.5399 16.2307C10.0364 16.2199 9.53279 16.2307 9.02923 16.2307C8.87362 16.2307 8.73314 16.235 8.60563 16.3582C8.57754 16.3842 8.55376 16.4144 8.52567 16.4425C8.36141 16.6154 8.19716 16.7883 8.03075 16.9634C7.67847 17.3329 7.32619 17.7047 6.97608 18.0742C7.15113 18.0526 7.32619 18.0289 7.49909 18.0072C6.60651 17.5815 5.71393 17.1557 4.82135 16.73C4.69383 16.6695 4.56848 16.6089 4.44097 16.5484C4.51229 16.6738 4.58361 16.797 4.65493 16.9223C4.7068 16.4922 4.75867 16.06 4.81054 15.6299C4.84296 15.3554 4.87754 15.0831 4.90996 14.8086C4.93157 14.6336 4.97479 14.4737 4.86673 14.3116C4.61171 13.929 4.32859 13.5616 4.05627 13.1921C3.95254 13.0537 3.85096 12.9932 3.67806 12.9759C3.66077 12.9738 3.64564 12.9738 3.62835 12.9716C3.55271 12.9651 3.47707 12.9586 3.40143 12.9522C3.13128 12.9284 2.85896 12.9046 2.58881 12.8808C2.09605 12.8376 1.6033 12.7922 1.11054 12.749C1.24886 12.8549 1.38934 12.9608 1.52765 13.0667C1.32666 12.105 1.12567 11.1454 0.926836 10.1836C0.89874 10.0496 0.870645 9.91566 0.842549 9.7795C0.775551 9.94159 0.710715 10.1058 0.643717 10.2679C1.04354 10.0669 1.44553 9.86811 1.84535 9.66712C2.1047 9.53744 2.36404 9.40777 2.62339 9.2781C2.81142 9.18516 3.02105 9.11384 3.07508 8.88043C3.18747 8.38551 3.25446 7.87763 3.34307 7.37839C3.36901 7.23575 3.3971 7.09095 3.31282 6.95911C3.28472 6.91589 3.25014 6.87483 3.21772 6.83376C3.06212 6.62845 2.90651 6.42313 2.7509 6.21565C2.4332 5.79638 2.11767 5.37926 1.79997 4.95999C1.77835 5.13505 1.75458 5.31011 1.73297 5.483C2.38566 4.67255 3.03618 3.86209 3.68887 3.05164C3.77964 2.93925 3.87041 2.82471 3.96118 2.71232C3.8207 2.74907 3.68022 2.78581 3.53974 2.82255C3.92444 2.97599 4.30914 3.12944 4.69383 3.28505C4.96831 3.39527 5.24494 3.50549 5.51942 3.61571C5.66638 3.67407 5.81118 3.74322 5.96031 3.79293C6.18723 3.86857 6.47251 3.66326 6.66918 3.55952C6.91556 3.42985 7.1641 3.30018 7.41048 3.1705C7.54448 3.09918 7.64605 3.02354 7.70008 2.86145C7.71521 2.81606 7.72602 2.77068 7.74115 2.72529C7.81247 2.48756 7.88163 2.24983 7.95295 2.01425C8.09775 1.52582 8.24255 1.03738 8.38735 0.55111C8.24903 0.657009 8.10855 0.762909 7.97023 0.868808C9.00546 0.868808 10.0407 0.868808 11.0759 0.868808C11.2207 0.868808 11.3677 0.868808 11.5125 0.868808C11.3741 0.762909 11.2337 0.657009 11.0954 0.55111C11.2185 0.963902 11.3396 1.37669 11.4628 1.79165C11.5427 2.05964 11.6205 2.32547 11.7005 2.59346C11.7588 2.79013 11.7956 3.01706 11.9901 3.12944C12.1911 3.24614 12.4029 3.34556 12.6082 3.45362C12.7984 3.55304 12.9864 3.65678 13.1788 3.75187C13.4187 3.87074 13.5829 3.767 13.8012 3.68055C14.0562 3.57897 14.3134 3.47523 14.5684 3.37366C15.0266 3.18995 15.4848 3.00625 15.943 2.82471C15.8025 2.78797 15.662 2.75123 15.5215 2.71449C16.1742 3.52494 16.8247 4.3354 17.4774 5.14585C17.5682 5.25824 17.659 5.37278 17.7497 5.48516C17.7281 5.31011 17.7043 5.13505 17.6827 4.96215C17.3218 5.43978 16.9587 5.91741 16.5978 6.39504C16.4573 6.57874 16.2931 6.76028 16.172 6.95695C16.0791 7.10824 16.1202 7.27249 16.1504 7.43458C16.1807 7.60315 16.2109 7.76957 16.2412 7.93814C16.2974 8.258 16.3558 8.57786 16.4119 8.89556C16.4508 9.11817 16.7361 9.26513 16.9436 9.19813C17.177 9.11168 17.2808 8.89772 17.2397 8.65783Z" fill="#7F7F7F"/>
<path d="M9.73567 12.1852C9.6557 12.1852 9.57574 12.183 9.49361 12.1766C9.45471 12.1744 9.41364 12.1701 9.37474 12.1658C9.29262 12.1593 9.39419 12.1722 9.40068 12.1701C9.38123 12.1744 9.34665 12.1614 9.3272 12.1593C9.16943 12.1333 9.01166 12.0966 8.86037 12.0469C8.78689 12.0231 8.71557 11.9972 8.64425 11.9691C8.56861 11.9388 8.66586 11.9799 8.66803 11.9799C8.6637 11.982 8.6248 11.9604 8.61616 11.9561C8.57725 11.9388 8.53835 11.9194 8.50161 11.8999C8.36329 11.8286 8.2293 11.7486 8.10179 11.6579C8.08017 11.6427 8.02182 11.6146 8.01102 11.5909C8.02831 11.6254 8.07153 11.6406 8.03263 11.606C8.0175 11.593 8.00237 11.5822 7.9894 11.5693C7.92889 11.5174 7.86838 11.4655 7.81002 11.4093C7.75599 11.3575 7.70412 11.3034 7.65225 11.2472C7.62632 11.2191 7.60255 11.191 7.57877 11.1629C7.56581 11.1478 7.555 11.1349 7.54203 11.1197C7.49449 11.0614 7.52258 11.1176 7.54852 11.1305C7.50313 11.1111 7.44478 10.9879 7.41884 10.9468C7.37562 10.8798 7.33239 10.8107 7.29349 10.7394C7.25675 10.6724 7.22217 10.6054 7.18975 10.5362C7.18111 10.5189 7.17463 10.5016 7.16598 10.4843C7.14005 10.4325 7.19624 10.5621 7.17679 10.5081C7.16166 10.467 7.14437 10.4281 7.12924 10.3871C7.07521 10.2379 7.03199 10.0823 6.99957 9.92673C6.99092 9.88783 6.98444 9.84893 6.97796 9.81003C6.97579 9.79058 6.97147 9.77113 6.96931 9.75167C6.96067 9.69116 6.97796 9.83812 6.97363 9.77761C6.96499 9.69332 6.95634 9.60903 6.95418 9.52475C6.9477 9.35833 6.9585 9.19408 6.97363 9.02767C6.98012 8.96715 6.96067 9.11412 6.96931 9.0536C6.97147 9.03415 6.97579 9.0147 6.97796 8.99525C6.98444 8.95635 6.99092 8.91745 6.99957 8.87854C7.01686 8.79858 7.03415 8.71645 7.05792 8.63865C7.07953 8.56517 7.10331 8.49169 7.12924 8.41821C7.14221 8.38146 7.15734 8.34689 7.1703 8.31014C7.19192 8.25395 7.15517 8.31447 7.1595 8.33392C7.15517 8.32095 7.18327 8.27989 7.18975 8.26908C7.25459 8.12644 7.33239 7.99029 7.41668 7.85845C7.44478 7.81739 7.50097 7.69204 7.54636 7.67475C7.54203 7.67691 7.48152 7.75687 7.53123 7.69636C7.54419 7.68123 7.555 7.6661 7.56797 7.65314C7.59606 7.62072 7.622 7.5883 7.65009 7.55804C7.75383 7.4435 7.86621 7.33544 7.98508 7.23602C8.00021 7.22305 8.01534 7.21225 8.02831 7.19928C8.06721 7.16686 8.02398 7.17983 8.00669 7.21441C8.0175 7.19064 8.07585 7.16254 8.09747 7.14741C8.1623 7.10203 8.2293 7.05664 8.29846 7.01558C8.36329 6.97668 8.43029 6.93993 8.49729 6.90536C8.52755 6.89023 8.5578 6.8751 8.5859 6.86213C8.60319 6.85349 8.62048 6.847 8.63777 6.83836C8.72854 6.79513 8.547 6.87294 8.63993 6.8362C8.78905 6.77784 8.93818 6.72814 9.09378 6.69139C9.16943 6.67411 9.24723 6.65682 9.32287 6.64601C9.338 6.64385 9.35097 6.64169 9.3661 6.63953C9.4439 6.62656 9.34881 6.64385 9.34016 6.64385C9.38771 6.64601 9.43958 6.63304 9.48929 6.62872C9.6557 6.61575 9.82211 6.61791 9.98637 6.63088C10.0253 6.63304 10.0663 6.63953 10.1052 6.64169C10.1657 6.64817 10.0188 6.62872 10.0793 6.63736C10.0944 6.63953 10.1096 6.64169 10.1225 6.64385C10.209 6.65682 10.2954 6.67411 10.3819 6.69572C10.5375 6.73462 10.6866 6.78649 10.8336 6.84268C10.8876 6.86429 10.7579 6.8081 10.8098 6.83187C10.8271 6.84052 10.8444 6.847 10.8617 6.85565C10.8919 6.86861 10.9222 6.88374 10.9524 6.89887C11.0281 6.93777 11.1037 6.97884 11.1772 7.02206C11.242 7.06096 11.3047 7.10203 11.3674 7.14525C11.3868 7.15822 11.4495 7.19064 11.4582 7.21225C11.456 7.20793 11.376 7.14741 11.4365 7.19712C11.4538 7.21225 11.4733 7.22738 11.4906 7.2425C11.6094 7.34192 11.7218 7.44998 11.8234 7.56669C11.8493 7.59478 11.8731 7.62288 11.8969 7.65314C11.9098 7.66826 11.9207 7.68339 11.9336 7.69636C11.966 7.73526 11.9531 7.6942 11.9185 7.67475C11.9423 7.68555 11.9704 7.74391 11.9855 7.76552C12.0093 7.8001 12.033 7.83468 12.0568 7.87142C12.1411 8.00325 12.2167 8.13941 12.2816 8.28205C12.2859 8.29069 12.3075 8.3296 12.3054 8.33392C12.3054 8.33176 12.2643 8.2345 12.2945 8.31014C12.3075 8.34689 12.3226 8.38146 12.3356 8.41821C12.3615 8.48953 12.3853 8.56301 12.4069 8.63865C12.4285 8.71429 12.4458 8.78993 12.4631 8.86558C12.4718 8.90448 12.4782 8.94338 12.4847 8.98012C12.4891 8.99957 12.4912 9.01902 12.4934 9.03847C12.5107 9.14005 12.4847 8.9369 12.4934 9.04064C12.5085 9.20057 12.5171 9.3605 12.5107 9.52259C12.5085 9.60255 12.4999 9.68252 12.4934 9.76248C12.4869 9.84028 12.4955 9.74735 12.4977 9.73655C12.4934 9.756 12.4912 9.77545 12.4891 9.7949C12.4804 9.84245 12.4718 9.89215 12.4631 9.9397C12.4329 10.091 12.3896 10.2401 12.3378 10.3849C12.3248 10.4217 12.3097 10.4562 12.2967 10.493C12.2664 10.5686 12.3075 10.4714 12.3075 10.4692C12.3097 10.4735 12.2881 10.5124 12.2837 10.5211C12.2492 10.5989 12.2103 10.6745 12.167 10.7502C12.1325 10.8128 12.0957 10.8733 12.0568 10.9317C12.0352 10.9641 12.0157 10.9944 11.9941 11.0246C11.9768 11.0484 11.9444 11.1154 11.9185 11.1284C11.9531 11.1111 11.966 11.0679 11.9336 11.1068C11.9207 11.1219 11.9098 11.137 11.8969 11.15C11.8731 11.1781 11.8493 11.2083 11.8234 11.2364C11.7672 11.2991 11.7089 11.3596 11.6462 11.418C11.5943 11.4677 11.5424 11.5131 11.4884 11.5585C11.4776 11.5671 11.3804 11.6492 11.4322 11.6038C11.4798 11.5628 11.4322 11.6038 11.4193 11.6125C11.3998 11.6254 11.3804 11.6406 11.3631 11.6535C11.2312 11.7465 11.0929 11.8286 10.9503 11.9021C10.92 11.9172 10.8898 11.9323 10.8595 11.9453C10.8422 11.954 10.8249 11.9604 10.8076 11.9691C10.7558 11.995 10.8854 11.9388 10.8314 11.9583C10.7558 11.9864 10.6801 12.0166 10.6023 12.0426C10.4445 12.0923 10.2846 12.1312 10.1204 12.1571C10.1052 12.1593 10.0901 12.1614 10.0771 12.1636C10.0166 12.1722 10.1636 12.1549 10.1031 12.1593C10.0642 12.1636 10.0231 12.1679 9.98421 12.1701C9.9064 12.1809 9.82211 12.183 9.73567 12.1852C9.50874 12.1852 9.29262 12.384 9.30342 12.6174C9.31423 12.8509 9.49361 13.0519 9.73567 13.0497C10.477 13.0454 11.2247 12.8228 11.8299 12.3862C12.4458 11.9431 12.9083 11.3423 13.1698 10.6291C13.6864 9.2265 13.2325 7.55372 12.0741 6.60711C11.4754 6.11867 10.7644 5.82691 9.99285 5.7664C9.25372 5.70804 8.48864 5.89391 7.85541 6.2786C7.24378 6.65033 6.72942 7.20793 6.43333 7.86061C6.10699 8.5803 6.01405 9.36482 6.16534 10.1385C6.44846 11.5801 7.67387 12.7709 9.12836 12.9935C9.32936 13.0238 9.53251 13.0454 9.73567 13.0454C9.96259 13.0454 10.1787 12.8465 10.1679 12.6131C10.1571 12.3819 9.97772 12.1852 9.73567 12.1852Z" fill="#7F7F7F"/>
</svg>
