<svg width="26" height="26" viewBox="0 0 26 26" fill="none" xmlns="http://www.w3.org/2000/svg">
<path d="M13 0C10.4288 0 7.91539 0.762409 5.77755 2.19087C3.63971 3.61933 1.97351 5.64965 0.989566 8.02509C0.00562659 10.4005 -0.251809 13.0144 0.249799 15.5362C0.751408 18.0579 1.98951 20.3743 3.8076 22.1924C5.62568 24.0105 7.94209 25.2486 10.4638 25.7502C12.9856 26.2518 15.5995 25.9944 17.9749 25.0104C20.3503 24.0265 22.3807 22.3603 23.8091 20.2225C25.2376 18.0846 26 15.5712 26 13C26 9.55219 24.6304 6.24558 22.1924 3.8076C19.7544 1.36963 16.4478 0 13 0ZM22.5442 20.1284C22.1857 19.8276 21.7972 19.5643 21.385 19.3429C21.2062 19.24 21.0383 19.1479 20.8921 19.0504C19.7162 18.307 18.7577 17.2662 18.1133 16.0333C20.5996 15.8167 23.3079 15.3887 24.8138 14.5437C24.551 16.5697 23.7692 18.4934 22.5442 20.1284ZM17.7233 14.9771C17.5617 14.3461 17.5087 13.6921 17.5663 13.0433C17.5663 13.0433 17.5663 13.0108 17.5663 12.9946C17.5663 12.9783 17.5663 12.9621 17.5663 12.9459C17.3659 10.6329 18.5142 8.55831 20.8867 6.94414C21.0329 6.84664 21.2008 6.74919 21.3796 6.65168C21.7918 6.43025 22.1803 6.16702 22.5387 5.86623C24.0844 7.92316 24.919 10.4271 24.9167 13C24.9167 13.6825 22.3871 14.5979 17.7233 14.9825V14.9771ZM21.8562 5.03211C21.5458 5.2935 21.208 5.52052 20.8487 5.70919C20.6429 5.82294 20.4533 5.93669 20.3071 6.05044C16.8892 8.37419 16.3529 11.1096 16.5154 13.0108C16.4592 13.6965 16.5067 14.3868 16.6562 15.0584C15.7083 15.1179 14.6792 15.1504 13.5742 15.1613V1.07791C15.1479 1.15757 16.6902 1.54857 18.1118 2.22823C19.5334 2.90789 20.8061 3.86274 21.8562 5.03753V5.03211ZM12.4583 1.08333V15.1667C11.375 15.1667 10.3477 15.1324 9.37628 15.0638C9.52591 14.3923 9.57333 13.702 9.51705 13.0163C9.67413 11.115 9.13788 8.37962 5.72538 6.05586C5.55747 5.94211 5.36247 5.82836 5.18372 5.71461C4.82443 5.52594 4.48664 5.29892 4.17622 5.03753C5.22683 3.86373 6.49975 2.90986 7.92134 2.23114C9.34293 1.55242 10.885 1.1623 12.4583 1.08333ZM3.45583 5.85545C3.81432 6.15624 4.20275 6.4194 4.61501 6.64084C4.79376 6.74376 4.96169 6.83586 5.10794 6.93336C7.48586 8.55836 8.63413 10.6221 8.43372 12.935C8.43372 12.935 8.43372 12.9675 8.43372 12.9837C8.43372 13 8.43372 13.0163 8.43372 13.0325C8.49132 13.6814 8.43825 14.3352 8.27668 14.9663C3.61293 14.5817 1.08333 13.6662 1.08333 12.9837C1.08411 10.4188 1.91658 7.92334 3.45583 5.87165V5.85545ZM1.18621 14.5546C2.17796 15.0403 3.237 15.3744 4.32791 15.5458C5.50363 15.7628 6.68963 15.9201 7.88127 16.0171C7.23841 17.2493 6.28176 18.29 5.10794 19.0342C4.96169 19.1317 4.79376 19.2292 4.61501 19.3267C4.20273 19.5481 3.81429 19.8113 3.45583 20.1121C2.23961 18.4891 1.46002 16.5812 1.19163 14.5709L1.18621 14.5546ZM4.13834 20.9517C4.44875 20.6903 4.78654 20.4633 5.14583 20.2746C5.35166 20.1609 5.54124 20.0471 5.68749 19.9334C7.14686 19.0151 8.30063 17.6841 9.00249 16.1092C10.0858 16.1796 11.245 16.2229 12.4258 16.2283V24.895C10.854 24.8188 9.31296 24.4321 7.89145 23.7571C6.46995 23.0821 5.19623 22.1323 4.14376 20.9625L4.13834 20.9517ZM13.5417 24.9167V16.25C14.3325 16.25 15.5729 16.2121 16.965 16.1254C17.6659 17.7023 18.8198 19.0353 20.28 19.955C20.4479 20.0687 20.6429 20.1825 20.8216 20.2962C21.1809 20.4849 21.5188 20.7119 21.8292 20.9733C20.777 22.1458 19.5028 23.098 18.0802 23.7748C16.6577 24.4517 15.1151 24.8398 13.5417 24.9167Z" fill="#4663FF"/>
</svg>
