<svg width="32" height="27" viewBox="0 0 32 27" fill="none" xmlns="http://www.w3.org/2000/svg">
<path d="M12.4201 20.9253C19.3887 23.8881 25.8961 23.7422 27.2349 20.5932L29.1114 16.1796C30.4502 13.0308 26.0402 8.24336 19.0716 5.28058C12.107 2.31951 5.60265 2.46664 4.26391 5.61544L2.38742 10.029C1.04857 13.1781 5.45547 17.9642 12.4201 20.9253ZM18.6329 6.31237C25.4474 9.20961 29.0172 13.5259 28.0761 15.7394C27.135 17.9529 21.5498 18.3769 14.7353 15.4796C7.92518 12.5842 4.35814 8.26909 5.29922 6.05561C6.2403 3.84213 11.8227 3.41697 18.6329 6.31237ZM4.32942 8.33663C5.3868 11.1251 9.13884 14.3185 14.2967 16.5114C19.458 18.7058 24.3639 19.1931 27.1066 18.0198L26.1996 20.153C25.2584 22.3668 19.6732 22.7907 12.8588 19.8935C6.04859 16.9981 2.48155 12.6829 3.42274 10.4692L4.32942 8.33663Z" fill="#4663FF"/>
</svg>
