<svg width="21" height="20" viewBox="0 0 21 20" fill="none" xmlns="http://www.w3.org/2000/svg">
<path d="M9.28169 0.872666L6.87756 6.38287L1.13337 6.80042C-0.138576 6.89288 -0.285959 8.27772 0.422218 8.90634L4.91387 12.8933L3.54208 18.4907C3.28116 19.5553 4.60058 20.2403 5.32222 19.8169L10.5067 16.775C10.5067 16.775 13.7734 18.7999 15.4067 19.8123C16.338 20.3896 17.3946 19.3449 17.2145 18.5277C16.7832 16.5701 15.9207 12.655 15.9207 12.655L20.3206 8.93876C21.2962 8.11477 20.6039 6.90649 19.6599 6.81449L13.6818 6.23182L11.5024 0.900528C10.9348 -0.487834 9.70121 -0.0887865 9.28169 0.872737V0.872666Z" fill="#2865FF"/>
</svg>
