<svg width="21" height="20" viewBox="0 0 21 20" fill="none" xmlns="http://www.w3.org/2000/svg">
<path d="M9.38521 0.89415L6.98107 6.40436L1.23688 6.82191C-0.03506 6.91436 -0.182443 8.2992 0.525734 8.92782L5.01738 12.9148L3.6456 18.5122C3.38467 19.5767 4.7041 20.2618 5.42574 19.8384L10.6102 16.7965C10.6102 16.7965 13.8769 18.8214 15.5102 19.8338C16.4415 20.4111 17.4981 19.3664 17.3181 18.5492C16.8867 16.5916 16.0242 12.6765 16.0242 12.6765L20.4241 8.96025C21.3997 8.13626 20.7074 6.92797 19.7635 6.83598L13.7853 6.2533L11.606 0.922013C11.0384 -0.466349 9.80472 -0.0673021 9.38521 0.894221V0.89415Z" fill="#D5D5D5"/>
</svg>
