<svg width="26" height="26" viewBox="0 0 26 26" fill="none" xmlns="http://www.w3.org/2000/svg">
<path d="M26 13C26 9.6881 24.7433 6.53095 22.4652 4.10429C19.9705 1.45476 16.6152 0 13 0C9.38476 0 6.02952 1.45476 3.53476 4.10429C1.25667 6.53095 0 9.6881 0 13C0 16.3119 1.25667 19.469 3.53476 21.8957C6.02952 24.5452 9.38476 26 13 26C16.6152 26 19.9705 24.5452 22.459 21.8957C24.7433 19.469 26 16.3119 26 13ZM21.8524 20.7257C21.8152 20.7071 21.7843 20.6948 21.7471 20.6824C21.6543 20.639 21.5614 20.5895 21.4686 20.54C21.3757 20.4905 21.2767 20.441 21.1838 20.3852C21.0971 20.3357 21.0043 20.28 20.9176 20.2305C20.8248 20.1748 20.7381 20.119 20.6452 20.0571C20.5586 20.0014 20.4781 19.9457 20.3976 19.8838C20.311 19.8219 20.2243 19.76 20.1376 19.6919C20.0571 19.63 19.9829 19.5681 19.9086 19.5062C19.8281 19.4381 19.7476 19.37 19.6671 19.2957C19.5929 19.2276 19.5248 19.1657 19.4505 19.0976C19.3762 19.0233 19.2957 18.949 19.2214 18.8686C19.1533 18.8005 19.0852 18.7262 19.0233 18.6581C18.949 18.5776 18.881 18.4971 18.8129 18.4105C18.751 18.3362 18.689 18.2619 18.6333 18.1876C18.5714 18.101 18.5095 18.0143 18.4476 17.9276C18.3919 17.8471 18.3362 17.7729 18.2867 17.6924C18.2248 17.5995 18.169 17.5067 18.1133 17.4138C18.0638 17.3333 18.0143 17.2529 17.971 17.1724C17.9152 17.0795 17.8657 16.9805 17.8162 16.8814C17.7729 16.7948 17.7295 16.7143 17.6924 16.6276C17.6429 16.5286 17.5995 16.4233 17.5562 16.3181C17.519 16.2314 17.4819 16.1448 17.451 16.0581C17.4076 15.9529 17.3767 15.8414 17.3395 15.7362C17.3086 15.6495 17.2776 15.5629 17.2529 15.4762C17.2157 15.3648 17.191 15.2471 17.16 15.1357C17.1352 15.049 17.1105 14.9686 17.0919 14.8819C17.0671 14.7581 17.0424 14.6343 17.0238 14.5167C17.0114 14.4362 16.9929 14.3557 16.9805 14.269C16.9619 14.1329 16.9495 13.9905 16.931 13.8543C16.9248 13.7862 16.9124 13.7119 16.9062 13.6438C16.8876 13.4333 16.8814 13.2229 16.8814 13.0062C16.8814 12.7895 16.8876 12.579 16.9062 12.3686C16.9124 12.3005 16.9248 12.2262 16.931 12.1581C16.9433 12.0157 16.9557 11.8795 16.9805 11.7433C16.9929 11.6629 17.0114 11.5762 17.0238 11.4957C17.0486 11.3719 17.0671 11.2481 17.0919 11.1305C17.1105 11.0438 17.1352 10.9571 17.16 10.8767C17.191 10.759 17.2157 10.6476 17.2529 10.53C17.2776 10.4433 17.3086 10.3567 17.3395 10.27C17.3767 10.1586 17.4138 10.0533 17.451 9.94191C17.4819 9.85524 17.519 9.76857 17.5562 9.6881C17.5995 9.58286 17.6429 9.48381 17.6924 9.37857C17.7295 9.2919 17.7729 9.21143 17.8162 9.13095C17.8657 9.03191 17.9152 8.93286 17.971 8.84C18.0143 8.75952 18.0638 8.67905 18.1133 8.59857C18.169 8.50571 18.2248 8.41286 18.2867 8.32C18.3362 8.23952 18.3919 8.16524 18.4476 8.08476C18.5095 7.9981 18.5776 7.90524 18.6395 7.81857C18.6952 7.74429 18.7571 7.67 18.819 7.59572C18.8871 7.50905 18.9614 7.42857 19.0295 7.3481C19.0914 7.28 19.1595 7.20572 19.2214 7.13762C19.2957 7.05714 19.3762 6.98286 19.4505 6.90238C19.5186 6.83429 19.5867 6.77238 19.661 6.71048C19.7414 6.63619 19.8281 6.5619 19.9086 6.49381C19.9829 6.4319 20.0571 6.37 20.1314 6.31429C20.2181 6.24619 20.311 6.17809 20.3976 6.11619C20.4719 6.06048 20.5524 6.00476 20.6329 5.95524C20.7257 5.89333 20.8248 5.83143 20.9176 5.77571C20.9981 5.72619 21.0786 5.67667 21.1652 5.62714C21.2643 5.57143 21.3695 5.51571 21.4686 5.46619C21.5552 5.42286 21.6357 5.37952 21.7224 5.33619C21.7595 5.31762 21.7967 5.30524 21.8338 5.28667C23.7343 7.42238 24.7619 10.1524 24.7619 13C24.7619 15.8476 23.7343 18.5776 21.8524 20.7257ZM4.14762 5.27429C4.18476 5.29286 4.2219 5.30524 4.25905 5.32381C4.34571 5.36714 4.43238 5.41048 4.51286 5.45381C4.6181 5.50952 4.71714 5.55905 4.81619 5.61476C4.89667 5.66429 4.98333 5.71381 5.06381 5.76333C5.16286 5.82524 5.25571 5.88095 5.34857 5.94286C5.42905 5.99857 5.50333 6.0481 5.58381 6.10381C5.67667 6.17191 5.76333 6.23381 5.85 6.30191C5.92429 6.35762 5.99857 6.41952 6.07286 6.48143C6.15952 6.54952 6.24 6.62381 6.32048 6.6981C6.38857 6.76 6.46286 6.82809 6.53095 6.89C6.61143 6.96429 6.68571 7.04476 6.76 7.12524C6.8281 7.19333 6.89 7.26143 6.9519 7.33571C7.02619 7.41619 7.09429 7.50286 7.16238 7.58333C7.22429 7.65762 7.28 7.73191 7.34191 7.80619C7.41 7.89286 7.47191 7.97952 7.53381 8.07238C7.58952 8.14667 7.64524 8.22714 7.69476 8.30762C7.75667 8.40048 7.81238 8.49333 7.86809 8.58619C7.91762 8.66667 7.96714 8.74714 8.01048 8.82762C8.06619 8.92667 8.11572 9.01952 8.16524 9.11857C8.20857 9.19905 8.2519 9.28571 8.28905 9.36619C8.33857 9.46524 8.38191 9.57048 8.42524 9.67571C8.46238 9.76238 8.49952 9.84286 8.53048 9.92952C8.57381 10.0348 8.60476 10.1462 8.6419 10.2514C8.67286 10.3381 8.70381 10.4248 8.72857 10.5114C8.76571 10.6229 8.79048 10.7405 8.82143 10.8519C8.84619 10.9386 8.87095 11.0252 8.88952 11.1057C8.91429 11.2295 8.93905 11.3533 8.95762 11.471C8.97 11.5514 8.98857 11.6319 9.00095 11.7186C9.01952 11.8548 9.03191 11.9971 9.05048 12.1333C9.05667 12.2014 9.06905 12.2757 9.07524 12.3438C9.09381 12.5543 9.1 12.7648 9.1 12.9814C9.1 13.1981 9.09381 13.4086 9.07524 13.619C9.06905 13.6871 9.05667 13.7614 9.05048 13.8295C9.0381 13.9719 9.02571 14.1081 9.00095 14.2443C8.98857 14.3248 8.97 14.4114 8.95762 14.4919C8.93286 14.6157 8.91429 14.7395 8.88952 14.8571C8.87095 14.9438 8.84619 15.0305 8.82143 15.1171C8.79048 15.2286 8.76571 15.3462 8.72857 15.4576C8.70381 15.5443 8.67286 15.631 8.6419 15.7176C8.60476 15.8229 8.56762 15.9343 8.53048 16.0395C8.49952 16.1262 8.46238 16.2129 8.42524 16.2995C8.38191 16.4048 8.33857 16.5038 8.28905 16.609C8.2519 16.6957 8.20238 16.7762 8.16524 16.8629C8.11572 16.9619 8.06619 17.061 8.01048 17.1538C7.96095 17.2343 7.91143 17.3148 7.86809 17.3952C7.81238 17.4881 7.75667 17.581 7.69476 17.6738C7.63905 17.7543 7.58333 17.8286 7.53381 17.909C7.47191 17.9957 7.41 18.0824 7.34191 18.169C7.28 18.2433 7.22429 18.3176 7.16238 18.3919C7.09429 18.4724 7.02619 18.559 6.9519 18.6395C6.89 18.7138 6.82191 18.7819 6.75381 18.85C6.67952 18.9243 6.60524 19.0048 6.52476 19.079C6.45667 19.1471 6.38238 19.2152 6.3081 19.2833C6.22762 19.3576 6.14714 19.4257 6.06667 19.4938C5.99238 19.5557 5.9119 19.6176 5.83143 19.6795C5.74476 19.7476 5.66429 19.8095 5.57762 19.8714C5.49714 19.9271 5.41048 19.989 5.33 20.0448C5.24333 20.1067 5.15048 20.1624 5.05762 20.2181C4.97095 20.2738 4.88429 20.3233 4.79143 20.3729C4.69857 20.4224 4.60571 20.4781 4.50667 20.5276C4.41381 20.5771 4.32095 20.6205 4.2281 20.67C4.19714 20.6886 4.16 20.701 4.12286 20.7133C2.26571 18.5776 1.2381 15.8476 1.2381 13C1.2381 10.1524 2.26571 7.42238 4.14762 5.27429ZM5.36714 21.4933C5.44143 21.45 5.52191 21.4129 5.59619 21.3633C5.73238 21.2829 5.86857 21.1962 6.00476 21.1033C6.06667 21.06 6.12857 21.0229 6.19048 20.9795C6.36381 20.8557 6.53714 20.7319 6.70429 20.5957C6.71667 20.5833 6.73524 20.571 6.75381 20.5586C6.93333 20.41 7.10667 20.2614 7.28 20.1067C7.33571 20.0571 7.38524 20.0014 7.44095 19.9457C7.55238 19.8405 7.66381 19.729 7.76905 19.6176C7.83095 19.5495 7.89286 19.4814 7.94857 19.4071C8.04143 19.3019 8.1281 19.2029 8.21476 19.0914C8.27667 19.0171 8.33238 18.9367 8.39429 18.8562C8.47476 18.751 8.55524 18.6457 8.62952 18.5405C8.68524 18.46 8.74095 18.3733 8.79667 18.2867C8.86476 18.1814 8.93286 18.07 9.00095 17.9586C9.05048 17.8719 9.1 17.779 9.14952 17.6924C9.21143 17.581 9.27333 17.4695 9.32905 17.3519C9.37238 17.259 9.42191 17.1662 9.46524 17.0733C9.52095 16.9557 9.57048 16.8381 9.62 16.7205C9.65714 16.6276 9.70048 16.5286 9.73143 16.4357C9.77476 16.3119 9.8181 16.1881 9.86143 16.0643C9.89238 15.9652 9.92333 15.8724 9.95429 15.7733C9.99143 15.6433 10.0286 15.5133 10.0595 15.3833C10.0843 15.2843 10.109 15.1914 10.1338 15.0924C10.1648 14.9562 10.1895 14.8138 10.2143 14.6776C10.2329 14.5848 10.2514 14.4919 10.2638 14.399C10.2886 14.2443 10.301 14.0833 10.3195 13.9286C10.3257 13.8481 10.3381 13.7738 10.3443 13.6933C10.3629 13.4581 10.369 13.2167 10.369 12.9752C10.369 12.7338 10.3567 12.4924 10.3443 12.2571C10.3381 12.1767 10.3257 12.1024 10.3195 12.0219C10.3071 11.8671 10.2886 11.7062 10.2638 11.5514C10.2514 11.4586 10.2329 11.3657 10.2143 11.2729C10.1895 11.1367 10.1648 10.9943 10.1338 10.8581C10.1152 10.759 10.0843 10.6662 10.0657 10.5671C10.0348 10.4371 9.99762 10.3071 9.96048 10.1771C9.92952 10.0781 9.89857 9.98524 9.86762 9.88619C9.82429 9.76238 9.78714 9.63857 9.73762 9.51476C9.70048 9.42191 9.66333 9.32286 9.62619 9.23C9.57667 9.11238 9.52714 8.99476 9.47143 8.87714C9.42809 8.78429 9.38476 8.69143 9.34143 8.59857C9.28572 8.48095 9.22381 8.36952 9.1619 8.2581C9.11238 8.17143 9.06286 8.07857 9.01333 7.9919C8.94524 7.88048 8.87714 7.76905 8.80905 7.66381C8.75333 7.57714 8.69762 7.49667 8.6419 7.41C8.56762 7.30476 8.48714 7.19952 8.40667 7.09429C8.34476 7.01381 8.28905 6.93952 8.22714 6.85905C8.14048 6.75381 8.04762 6.64857 7.96095 6.54333C7.89905 6.47524 7.84333 6.40095 7.77524 6.33286C7.67 6.22143 7.55857 6.11619 7.45333 6.00476C7.39762 5.94905 7.3481 5.89333 7.29238 5.84381C7.12524 5.68905 6.95191 5.53429 6.77238 5.3919C6.74762 5.37333 6.72286 5.35476 6.6981 5.33619C6.54333 5.21238 6.38238 5.08857 6.21524 4.97714C6.14714 4.92762 6.07286 4.88429 6.00476 4.84095C5.88095 4.76048 5.75095 4.67381 5.62095 4.59952C5.54048 4.55 5.44762 4.50667 5.36714 4.45714C5.27429 4.40143 5.18143 4.34571 5.08238 4.29619C7.10667 2.43286 9.65714 1.3681 12.3995 1.22571V24.6938C9.65714 24.5514 7.10667 23.4867 5.08238 21.6233C5.16905 21.611 5.2681 21.549 5.36714 21.4933ZM13.619 24.731V1.26905C16.3614 1.41143 18.9119 2.47619 20.9362 4.33952C20.8371 4.38905 20.7443 4.44476 20.6514 4.50048C20.5648 4.55 20.4781 4.59333 20.3976 4.64286C20.2676 4.71714 20.1438 4.80381 20.0138 4.88429C19.9457 4.92762 19.8714 4.97095 19.8033 5.02048C19.6362 5.1381 19.4752 5.25571 19.3205 5.37952C19.2957 5.3981 19.271 5.41667 19.2462 5.43524C19.0667 5.57762 18.8933 5.73238 18.7262 5.88714C18.6705 5.93667 18.6148 5.99857 18.5652 6.0481C18.4538 6.15333 18.3486 6.26476 18.2433 6.37619C18.1814 6.44429 18.1195 6.51238 18.0576 6.58667C17.9648 6.6919 17.8781 6.79095 17.7914 6.90238C17.7295 6.97667 17.6738 7.05714 17.6119 7.13762C17.5314 7.24286 17.451 7.3481 17.3767 7.45333C17.321 7.53381 17.2652 7.62048 17.2095 7.70714C17.1414 7.81238 17.0671 7.92381 17.0052 8.03524C16.9557 8.1219 16.9062 8.20857 16.8567 8.30143C16.7948 8.41286 16.7329 8.52429 16.6771 8.6419C16.6338 8.73476 16.5843 8.82762 16.5471 8.92048C16.4914 9.0381 16.4419 9.15571 16.3924 9.27333C16.3552 9.36619 16.3181 9.45905 16.281 9.5581C16.2376 9.68191 16.1943 9.80572 16.151 9.92952C16.12 10.0224 16.089 10.1214 16.0581 10.2205C16.021 10.3505 15.9838 10.4805 15.9529 10.6105C15.9281 10.7033 15.9033 10.8024 15.8848 10.9014C15.8538 11.0376 15.829 11.18 15.8043 11.3162C15.7857 11.409 15.7671 11.5019 15.7548 11.5948C15.73 11.7495 15.7176 11.9105 15.699 12.0652C15.6929 12.1457 15.6805 12.22 15.6743 12.3005C15.6557 12.5357 15.6495 12.7771 15.6495 13.0186C15.6495 13.26 15.6619 13.5014 15.6743 13.7367C15.6805 13.8171 15.6929 13.8914 15.699 13.9719C15.7114 14.1267 15.73 14.2876 15.7548 14.4424C15.7671 14.5352 15.7857 14.6281 15.8043 14.721C15.829 14.8571 15.8538 14.9995 15.8848 15.1357C15.9033 15.2348 15.9343 15.3276 15.959 15.4267C15.99 15.5567 16.0271 15.6867 16.0643 15.8167C16.0952 15.9157 16.1262 16.0086 16.1571 16.1076C16.2005 16.2314 16.2376 16.3552 16.2871 16.479C16.3243 16.5781 16.3614 16.671 16.3986 16.7638C16.4481 16.8814 16.4976 16.9991 16.5533 17.1167C16.5967 17.2095 16.64 17.3024 16.6895 17.3952C16.7452 17.5067 16.8071 17.6243 16.869 17.7357C16.9186 17.8224 16.9681 17.9152 17.0176 18.0019C17.0857 18.1133 17.1538 18.2186 17.2219 18.33C17.2776 18.4167 17.3333 18.4971 17.389 18.5838C17.4633 18.689 17.5438 18.7943 17.6243 18.8995C17.6862 18.98 17.7419 19.0543 17.8038 19.1348C17.8905 19.24 17.9833 19.3452 18.07 19.4505C18.1319 19.5186 18.1876 19.5929 18.2495 19.661C18.3548 19.7724 18.4662 19.8838 18.5776 19.989C18.6333 20.0386 18.6829 20.0943 18.7386 20.15C18.9057 20.3048 19.079 20.4595 19.2648 20.6019C19.2771 20.6143 19.2957 20.6267 19.3143 20.639C19.4814 20.769 19.6548 20.899 19.8281 21.0229C19.89 21.0662 19.9519 21.1033 20.0138 21.1467C20.15 21.2333 20.28 21.32 20.4224 21.4067C20.4967 21.45 20.5771 21.4933 20.6514 21.5367C20.7567 21.5924 20.8557 21.6543 20.961 21.7038C18.9119 23.53 16.3614 24.5948 13.619 24.731Z" fill="#4663FF"/>
</svg>
